SplineFontDB: 3.0
FontName: PunkNova
FullName: Punk Nova
FamilyName: Punk Nova
Weight: Medium
Copyright: 
UComments: "2010-4-16: Created." 
Version: 001.000
ItalicAngle: 0
UnderlinePosition: -100
UnderlineWidth: 50
Ascent: 800
Descent: 200
LayerCount: 2
Layer: 0 0 "Back"  1
Layer: 1 0 "Fore"  0
NeedsXUIDChange: 1
XUID: [1021 749 994474470 3974468]
OS2Version: 0
OS2_WeightWidthSlopeOnly: 0
OS2_UseTypoMetrics: 1
CreationTime: 1271443547
ModificationTime: 1271443966
OS2TypoAscent: 0
OS2TypoAOffset: 1
OS2TypoDescent: 0
OS2TypoDOffset: 1
OS2TypoLinegap: 0
OS2WinAscent: 0
OS2WinAOffset: 1
OS2WinDescent: 0
OS2WinDOffset: 1
HheadAscent: 0
HheadAOffset: 1
HheadDescent: 0
HheadDOffset: 1
OS2Vendor: 'PfEd'
Lookup: 3 0 0 "Randomize lookup"  {"Randomize subtable"  } ['rand' ('DFLT' <'dflt' > 'grek' <'dflt' > 'latn' <'dflt' > ) ]
Lookup: 258 0 0 "Kern lookup"  {"Kern subtable"  } ['kern' ('DFLT' <'dflt' > 'grek' <'dflt' > 'latn' <'dflt' > ) ]
DEI: 91125
Encoding: UnicodeBmp
UnicodeInterp: none
NameList: Adobe Glyph List
DisplaySize: -24
AntiAlias: 1
FitToEm: 1
BeginChars: 66715 1324

StartChar: exclam
Encoding: 33 33 0
Width: 197
VWidth: 0
Flags: HW
LayerCount: 2
Fore
SplineSet
166.916992188 30.755859375 m 0
 166.916992188 30.7509765625 147.880859375 -15.2060546875 147.877929688 -15.208984375 c 0
 147.875 -15.2119140625 101.91796875 -34.248046875 101.913085938 -34.248046875 c 0
 101.909179688 -34.248046875 55.9521484375 -15.2119140625 55.94921875 -15.208984375 c 0
 55.9453125 -15.2060546875 36.9091796875 30.7509765625 36.9091796875 30.755859375 c 0
 36.9091796875 30.759765625 55.9453125 76.716796875 55.94921875 76.7197265625 c 0
 55.9521484375 76.7236328125 101.909179688 95.759765625 101.913085938 95.759765625 c 0
 101.91796875 95.759765625 147.875 76.7236328125 147.877929688 76.7197265625 c 0
 147.880859375 76.716796875 166.916992188 30.759765625 166.916992188 30.755859375 c 0
159.0078125 733.306640625 m 0
 159.0078125 733.302734375 139.971679688 687.345703125 139.96875 687.342773438 c 0
 139.965820312 687.338867188 94.0078125 668.302734375 94.00390625 668.302734375 c 0
 94 668.302734375 48.0419921875 687.338867188 48.0390625 687.342773438 c 0
 48.0361328125 687.345703125 29 733.302734375 29 733.306640625 c 0
 29 733.311523438 48.0361328125 779.268554688 48.0390625 779.271484375 c 0
 48.0419921875 779.274414062 94 798.310546875 94.00390625 798.310546875 c 0
 94.0078125 798.310546875 139.965820312 779.274414062 139.96875 779.271484375 c 0
 139.971679688 779.268554688 159.0078125 733.311523438 159.0078125 733.306640625 c 0
167.78125 212.43359375 m 0
 167.78125 212.4296875 148.745117188 166.47265625 148.7421875 166.469726562 c 0
 148.739257812 166.466796875 102.78125 147.4296875 102.77734375 147.4296875 c 0
 102.7734375 147.4296875 56.8154296875 166.466796875 56.8125 166.469726562 c 0
 56.8095703125 166.47265625 37.7734375 212.4296875 37.7734375 212.43359375 c 0
 37.7734375 212.438476562 56.8095703125 258.395507812 56.8125 258.3984375 c 0
 56.8154296875 258.401367188 102.7734375 277.4375 102.77734375 277.4375 c 0
 102.78125 277.4375 148.739257812 258.401367188 148.7421875 258.3984375 c 0
 148.745117188 258.395507812 167.78125 212.438476562 167.78125 212.43359375 c 0
93.267578125 758.30078125 m 0
 113.741210938 758.540039062 123.83203125 743.711914062 124.000976562 733.657226562 c 0
 132.774414062 212.78515625 l 0
 133.060546875 195.8125 115.296875 187.578125 103.231445312 187.436523438 c 0
 91.2265625 187.296875 73.0751953125 194.584960938 72.7802734375 212.083007812 c 0
 64.0068359375 732.956054688 l 0
 63.8388671875 742.955078125 72.26953125 758.0546875 93.267578125 758.30078125 c 0
EndSplineSet
AlternateSubs2: "Randomize subtable" exclam.1 exclam.2 exclam.3 exclam.4 exclam.5 exclam.6 exclam.7 exclam.8 exclam.9
EndChar

StartChar: quotedbl
Encoding: 34 34 1
Width: 371
VWidth: 0
Flags: HW
LayerCount: 2
Fore
SplineSet
161.0078125 649.6171875 m 0
 161.0078125 649.612304688 141.971679688 603.655273438 141.96875 603.65234375 c 0
 141.965820312 603.649414062 96.0078125 584.61328125 96.00390625 584.61328125 c 0
 96 584.61328125 50.0419921875 603.649414062 50.0390625 603.65234375 c 0
 50.0361328125 603.655273438 31 649.612304688 31 649.6171875 c 0
 31 649.62109375 50.0361328125 695.578125 50.0390625 695.58203125 c 0
 50.0419921875 695.584960938 96 714.62109375 96.00390625 714.62109375 c 0
 96.0078125 714.62109375 141.965820312 695.584960938 141.96875 695.58203125 c 0
 141.971679688 695.578125 161.0078125 649.62109375 161.0078125 649.6171875 c 0
202.39453125 475.334960938 m 0
 202.39453125 475.331054688 183.357421875 429.374023438 183.354492188 429.370117188 c 0
 183.3515625 429.3671875 137.39453125 410.331054688 137.390625 410.331054688 c 0
 137.385742188 410.331054688 91.4287109375 429.3671875 91.42578125 429.370117188 c 0
 91.4228515625 429.374023438 72.38671875 475.331054688 72.38671875 475.334960938 c 0
 72.38671875 475.33984375 91.4228515625 521.296875 91.42578125 521.299804688 c 0
 91.4287109375 521.302734375 137.385742188 540.338867188 137.390625 540.338867188 c 0
 137.39453125 540.338867188 183.3515625 521.302734375 183.354492188 521.299804688 c 0
 183.357421875 521.296875 202.39453125 475.33984375 202.39453125 475.334960938 c 0
316.35546875 723.786132812 m 0
 316.35546875 723.782226562 297.319335938 677.825195312 297.315429688 677.821289062 c 0
 297.3125 677.818359375 251.35546875 658.782226562 251.3515625 658.782226562 c 0
 251.346679688 658.782226562 205.389648438 677.818359375 205.38671875 677.821289062 c 0
 205.383789062 677.825195312 186.34765625 723.782226562 186.34765625 723.786132812 c 0
 186.34765625 723.791015625 205.383789062 769.748046875 205.38671875 769.750976562 c 0
 205.389648438 769.75390625 251.346679688 788.790039062 251.3515625 788.790039062 c 0
 251.35546875 788.790039062 297.3125 769.75390625 297.315429688 769.750976562 c 0
 297.319335938 769.748046875 316.35546875 723.791015625 316.35546875 723.786132812 c 0
340.29296875 495.798828125 m 0
 340.29296875 495.793945312 321.255859375 449.836914062 321.252929688 449.833984375 c 0
 321.25 449.831054688 275.29296875 430.794921875 275.288085938 430.794921875 c 0
 275.284179688 430.794921875 229.327148438 449.831054688 229.32421875 449.833984375 c 0
 229.321289062 449.836914062 210.284179688 495.793945312 210.284179688 495.798828125 c 0
 210.284179688 495.802734375 229.321289062 541.759765625 229.32421875 541.763671875 c 0
 229.327148438 541.766601562 275.284179688 560.802734375 275.288085938 560.802734375 c 0
 275.29296875 560.802734375 321.25 541.766601562 321.252929688 541.763671875 c 0
 321.255859375 541.759765625 340.29296875 495.802734375 340.29296875 495.798828125 c 0
88.8349609375 673.919921875 m 0
 106.900390625 676.8984375 122.521484375 666.732421875 125.43359375 654.470703125 c 0
 166.819335938 480.188476562 l 0
 170.313476562 465.473632812 159.321289062 453.466796875 144.606445312 451.040039062 c 0
 132.391601562 449.026367188 111.987304688 453.524414062 107.959960938 470.482421875 c 0
 66.57421875 644.764648438 l 0
 64.2138671875 654.705078125 68.4853515625 670.564453125 88.8349609375 673.919921875 c 0
249.09765625 748.717773438 m 0
 267.029296875 750.024414062 279.928710938 738.41796875 281.236328125 725.96484375 c 0
 305.173828125 497.977539062 l 0
 306.743164062 483.03515625 292.583007812 471.96484375 277.552734375 470.868164062 c 0
 261.909179688 469.727539062 246.908203125 479.280273438 245.40234375 493.620117188 c 0
 221.46484375 721.607421875 l 0
 220.095703125 734.643554688 231.78515625 747.455078125 249.09765625 748.717773438 c 0
EndSplineSet
AlternateSubs2: "Randomize subtable" quotedbl.1 quotedbl.2 quotedbl.3 quotedbl.4 quotedbl.5 quotedbl.6 quotedbl.7 quotedbl.8 quotedbl.9
EndChar

StartChar: numbersign
Encoding: 35 35 2
Width: 504
VWidth: 0
Flags: HW
LayerCount: 2
Fore
SplineSet
212.38671875 -18.232421875 m 0
 212.38671875 -18.236328125 193.350585938 -64.1943359375 193.346679688 -64.197265625 c 0
 193.34375 -64.2001953125 147.38671875 -83.236328125 147.3828125 -83.236328125 c 0
 147.377929688 -83.236328125 101.420898438 -64.2001953125 101.41796875 -64.197265625 c 0
 101.415039062 -64.1943359375 82.37890625 -18.236328125 82.37890625 -18.232421875 c 0
 82.37890625 -18.228515625 101.415039062 27.7294921875 101.41796875 27.732421875 c 0
 101.420898438 27.7353515625 147.377929688 46.771484375 147.3828125 46.771484375 c 0
 147.38671875 46.771484375 193.34375 27.7353515625 193.346679688 27.732421875 c 0
 193.350585938 27.7294921875 212.38671875 -18.228515625 212.38671875 -18.232421875 c 0
448.40234375 682.852539062 m 0
 448.40234375 682.848632812 429.365234375 636.891601562 429.362304688 636.888671875 c 0
 429.359375 636.884765625 383.40234375 617.848632812 383.3984375 617.848632812 c 0
 383.393554688 617.848632812 337.436523438 636.884765625 337.43359375 636.888671875 c 0
 337.430664062 636.891601562 318.39453125 682.848632812 318.39453125 682.852539062 c 0
 318.39453125 682.857421875 337.430664062 728.814453125 337.43359375 728.817382812 c 0
 337.436523438 728.8203125 383.393554688 747.856445312 383.3984375 747.856445312 c 0
 383.40234375 747.856445312 429.359375 728.8203125 429.362304688 728.817382812 c 0
 429.365234375 728.814453125 448.40234375 682.857421875 448.40234375 682.852539062 c 0
412.404296875 676.33984375 m 0
 407.975585938 659.131835938 388.905273438 656.299804688 377.106445312 658.409179688 c 0
 297.465820312 672.643554688 l 1
 177.07421875 -21.806640625 l 0
 174.17578125 -38.529296875 155.061523438 -44.416015625 142.059570312 -42.8505859375 c 0
 127.212890625 -41.0634765625 115.1171875 -29.50390625 117.69140625 -14.658203125 c 0
 242.673828125 706.2734375 l 0
 245.032226562 719.881835938 261.056640625 730.2890625 278.657226562 727.142578125 c 0
 389.690429688 707.296875 l 0
 404.356445312 704.67578125 416.278320312 691.391601562 412.404296875 676.33984375 c 0
389.4609375 707.36328125 m 0
 409.947265625 704.651367188 414.94921875 689.014648438 413.026367188 678.9296875 c 0
 282.524414062 -5.5439453125 l 0
 281.1953125 -12.5166015625 275.115234375 -23.5654296875 258.465820312 -26.1865234375 c 0
 152.952148438 -42.7978515625 l 0
 135.6328125 -45.5244140625 120.532226562 -34.466796875 117.6953125 -21.9521484375 c 0
 114.493164062 -7.8271484375 126.751953125 3.9619140625 141.813476562 6.3330078125 c 0
 226.581054688 19.677734375 l 1
 353.770507812 686.775390625 l 0
 356.124023438 699.12109375 371.272460938 709.771484375 389.4609375 707.36328125 c 0
165.778320312 482.450195312 m 0
 165.778320312 482.4453125 146.741210938 436.48828125 146.73828125 436.485351562 c 0
 146.735351562 436.482421875 100.778320312 417.4453125 100.7734375 417.4453125 c 0
 100.76953125 417.4453125 54.8125 436.482421875 54.8095703125 436.485351562 c 0
 54.806640625 436.48828125 35.76953125 482.4453125 35.76953125 482.450195312 c 0
 35.76953125 482.454101562 54.806640625 528.411132812 54.8095703125 528.4140625 c 0
 54.8125 528.416992188 100.76953125 547.454101562 100.7734375 547.454101562 c 0
 100.778320312 547.454101562 146.735351562 528.416992188 146.73828125 528.4140625 c 0
 146.741210938 528.411132812 165.778320312 482.454101562 165.778320312 482.450195312 c 0
476.110351562 485.095703125 m 0
 476.110351562 485.091796875 457.073242188 439.133789062 457.0703125 439.130859375 c 0
 457.067382812 439.127929688 411.110351562 420.091796875 411.106445312 420.091796875 c 0
 411.1015625 420.091796875 365.14453125 439.127929688 365.141601562 439.130859375 c 0
 365.138671875 439.133789062 346.1015625 485.091796875 346.1015625 485.095703125 c 0
 346.1015625 485.099609375 365.138671875 531.057617188 365.141601562 531.060546875 c 0
 365.14453125 531.063476562 411.1015625 550.099609375 411.106445312 550.099609375 c 0
 411.110351562 550.099609375 457.067382812 531.063476562 457.0703125 531.060546875 c 0
 457.073242188 531.057617188 476.110351562 485.099609375 476.110351562 485.095703125 c 0
70.7744140625 482.194335938 m 0
 70.5625 499.481445312 89.041015625 507.3515625 100.466796875 507.44921875 c 0
 410.798828125 510.094726562 l 0
 431.543945312 510.271484375 440.98828125 494.873046875 441.104492188 485.3515625 c 0
 441.221679688 475.830078125 432.158203125 460.2734375 411.413085938 460.096679688 c 0
 101.080078125 457.451171875 l 0
 89.654296875 457.354492188 70.9873046875 464.907226562 70.7744140625 482.194335938 c 0
158.0078125 248.139648438 m 0
 158.0078125 248.135742188 138.971679688 202.178710938 138.96875 202.174804688 c 0
 138.965820312 202.171875 93.0078125 183.135742188 93.00390625 183.135742188 c 0
 93 183.135742188 47.0419921875 202.171875 47.0390625 202.174804688 c 0
 47.0361328125 202.178710938 28 248.135742188 28 248.139648438 c 0
 28 248.14453125 47.0361328125 294.1015625 47.0390625 294.104492188 c 0
 47.0419921875 294.107421875 93 313.143554688 93.00390625 313.143554688 c 0
 93.0078125 313.143554688 138.965820312 294.107421875 138.96875 294.104492188 c 0
 138.971679688 294.1015625 158.0078125 248.14453125 158.0078125 248.139648438 c 0
472.581054688 240.780273438 m 0
 472.581054688 240.776367188 453.543945312 194.819335938 453.541015625 194.815429688 c 0
 453.538085938 194.8125 407.581054688 175.776367188 407.577148438 175.776367188 c 0
 407.572265625 175.776367188 361.615234375 194.8125 361.612304688 194.815429688 c 0
 361.609375 194.819335938 342.573242188 240.776367188 342.573242188 240.780273438 c 0
 342.573242188 240.78515625 361.609375 286.7421875 361.612304688 286.745117188 c 0
 361.615234375 286.748046875 407.572265625 305.784179688 407.577148438 305.784179688 c 0
 407.581054688 305.784179688 453.538085938 286.748046875 453.541015625 286.745117188 c 0
 453.543945312 286.7421875 472.581054688 240.78515625 472.581054688 240.780273438 c 0
62.8720703125 244.57421875 m 0
 63.1923828125 254.096679688 72.1044921875 273.638671875 93.845703125 273.129882812 c 0
 408.41796875 265.770507812 l 0
 418.9140625 265.524414062 438.3203125 262.49609375 437.709960938 244.37890625 c 0
 437.360351562 234.008789062 427.47265625 215.3046875 406.734375 215.790039062 c 0
 92.162109375 223.149414062 l 0
 80.740234375 223.416992188 62.2890625 227.29296875 62.8720703125 244.57421875 c 0
EndSplineSet
AlternateSubs2: "Randomize subtable" numbersign.1 numbersign.2 numbersign.3 numbersign.4 numbersign.5 numbersign.6 numbersign.7 numbersign.8 numbersign.9
EndChar

StartChar: dollar
Encoding: 36 36 3
Width: 425
VWidth: 0
Flags: HW
LayerCount: 2
Fore
SplineSet
384.870117188 471.852539062 m 0
 384.870117188 471.848632812 365.833984375 425.891601562 365.830078125 425.888671875 c 0
 365.827148438 425.884765625 319.870117188 406.848632812 319.866210938 406.848632812 c 0
 319.861328125 406.848632812 273.904296875 425.884765625 273.901367188 425.888671875 c 0
 273.8984375 425.891601562 254.862304688 471.848632812 254.862304688 471.852539062 c 0
 254.862304688 471.857421875 273.8984375 517.814453125 273.901367188 517.817382812 c 0
 273.904296875 517.8203125 319.861328125 536.856445312 319.866210938 536.856445312 c 0
 319.870117188 536.856445312 365.827148438 517.8203125 365.830078125 517.817382812 c 0
 365.833984375 517.814453125 384.870117188 471.857421875 384.870117188 471.852539062 c 0
158.0078125 194.150390625 m 0
 158.0078125 194.146484375 138.971679688 148.189453125 138.96875 148.186523438 c 0
 138.965820312 148.182617188 93.0078125 129.146484375 93.00390625 129.146484375 c 0
 93 129.146484375 47.0419921875 148.182617188 47.0390625 148.186523438 c 0
 47.0361328125 148.189453125 28 194.146484375 28 194.150390625 c 0
 28 194.155273438 47.0361328125 240.112304688 47.0390625 240.115234375 c 0
 47.0419921875 240.118164062 93 259.154296875 93.00390625 259.154296875 c 0
 93.0078125 259.154296875 138.965820312 240.118164062 138.96875 240.115234375 c 0
 138.971679688 240.112304688 158.0078125 194.155273438 158.0078125 194.150390625 c 0
299.403320312 453.571289062 m 0
 283.959960938 465.575195312 289.698242188 481.551757812 297.928710938 488.905273438 c 0
 372.999023438 555.97265625 327.501953125 680.66015625 232.552734375 683.55859375 c 0
 146.821289062 686.17578125 94.1884765625 582.479492188 130.791992188 492.232421875 c 0
 152.755859375 438.075195312 208.244140625 395.698242188 238.479492188 370.470703125 c 0
 289.788085938 327.661132812 334.969726562 286.26953125 360.223632812 230.16015625 c 0
 408.744140625 122.357421875 363.907226562 3.7783203125 262.33203125 -26.587890625 c 0
 120.58984375 -68.962890625 -4.51171875 76.8955078125 65.7333984375 204.569335938 c 0
 74.53515625 220.567382812 94.5380859375 221.06640625 105.506835938 216.875976562 c 0
 116.475585938 212.684570312 129.076171875 199.728515625 120.274414062 183.731445312 c 0
 71.67578125 95.400390625 152.014648438 -6.4482421875 242.072265625 20.474609375 c 0
 317.366210938 42.984375 336.623046875 140.21875 304.045898438 212.6015625 c 0
 282.754882812 259.904296875 242.974609375 295.965820312 196.026367188 335.137695312 c 0
 158.489257812 366.458007812 100.153320312 411.616210938 73.9501953125 476.22265625 c 0
 24.087890625 599.162109375 102.326171875 737.567382812 234.75 733.524414062 c 0
 384.477539062 728.954101562 449.490234375 551.005859375 341.803710938 454.80078125 c 0
 333.573242188 447.447265625 314.846679688 441.567382812 299.403320312 453.571289062 c 0
298.655273438 778.549804688 m 0
 298.655273438 778.544921875 279.619140625 732.587890625 279.616210938 732.584960938 c 0
 279.612304688 732.58203125 233.655273438 713.545898438 233.651367188 713.545898438 c 0
 233.646484375 713.545898438 187.689453125 732.58203125 187.686523438 732.584960938 c 0
 187.68359375 732.587890625 168.647460938 778.544921875 168.647460938 778.549804688 c 0
 168.647460938 778.553710938 187.68359375 824.510742188 187.686523438 824.514648438 c 0
 187.689453125 824.517578125 233.646484375 843.553710938 233.651367188 843.553710938 c 0
 233.655273438 843.553710938 279.612304688 824.517578125 279.616210938 824.514648438 c 0
 279.619140625 824.510742188 298.655273438 778.553710938 298.655273438 778.549804688 c 0
237.616210938 803.620117188 m 0
 257.981445312 803.956054688 263.407226562 789.09765625 263.645507812 779.043945312 c 0
 282.196289062 -2.5625 l 0
 282.598632812 -19.533203125 261.17578125 -27.9130859375 248.141601562 -28.1279296875 c 0
 226.771484375 -28.48046875 222.430664062 -12.923828125 222.208007812 -3.55078125 c 0
 203.657226562 778.055664062 l 0
 203.234375 795.864257812 225.484375 803.419921875 237.616210938 803.620117188 c 0
EndSplineSet
AlternateSubs2: "Randomize subtable" dollar.1 dollar.2 dollar.3 dollar.4 dollar.5 dollar.6 dollar.7 dollar.8 dollar.9
EndChar

StartChar: percent
Encoding: 37 37 4
Width: 583
VWidth: 0
Flags: HW
LayerCount: 2
Fore
SplineSet
212.770507812 775.569335938 m 0
 212.770507812 775.565429688 193.734375 729.607421875 193.731445312 729.604492188 c 0
 193.728515625 729.6015625 147.770507812 710.565429688 147.766601562 710.565429688 c 0
 147.762695312 710.565429688 101.8046875 729.6015625 101.801757812 729.604492188 c 0
 101.798828125 729.607421875 82.7626953125 775.565429688 82.7626953125 775.569335938 c 0
 82.7626953125 775.573242188 101.798828125 821.53125 101.801757812 821.534179688 c 0
 101.8046875 821.537109375 147.762695312 840.573242188 147.766601562 840.573242188 c 0
 147.770507812 840.573242188 193.728515625 821.537109375 193.731445312 821.534179688 c 0
 193.734375 821.53125 212.770507812 775.573242188 212.770507812 775.569335938 c 0
118.78125 782.015625 m 1
 121.858398438 791.625 132.086914062 797.328125 139.288085938 799.638671875 c 0
 150.547851562 803.251953125 168.173828125 800.9765625 175.762695312 784.552734375 c 0
 190.795898438 750.577148438 l 0
 217.931640625 686.450195312 239.188476562 620.544921875 254.732421875 549.37890625 c 0
 281.87109375 425.129882812 230.615234375 326.736328125 138.37109375 330.0703125 c 0
 22.44140625 334.259765625 8.7685546875 473.462890625 50.6005859375 585.47265625 c 0
 70.3046875 638.236328125 89.3818359375 692.340820312 108.0625 749.045898438 c 0
 118.784179688 782.025390625 l 0
 122.657226562 794.1015625 135.194335938 804.248046875 152.583984375 800.374023438 c 0
 165.271484375 797.547851562 173.206054688 790.092773438 175.767578125 784.54296875 c 0
 118.78125 782.015625 l 1
151.102539062 691.600585938 m 1
 107.889648438 570.614257812 l 0
 69.978515625 469.102539062 89.86328125 381.870117188 140.970703125 380.0234375 c 0
 185.26171875 378.421875 215.801757812 448.403320312 195.703125 540.424804688 c 0
 183.005859375 598.553710938 168.853515625 644.255859375 151.102539062 691.600585938 c 1
490.881835938 355.854492188 m 0
 490.881835938 355.850585938 471.844726562 309.893554688 471.841796875 309.889648438 c 0
 471.838867188 309.88671875 425.881835938 290.850585938 425.876953125 290.850585938 c 0
 425.873046875 290.850585938 379.916015625 309.88671875 379.913085938 309.889648438 c 0
 379.91015625 309.893554688 360.873046875 355.850585938 360.873046875 355.854492188 c 0
 360.873046875 355.858398438 379.91015625 401.81640625 379.913085938 401.819335938 c 0
 379.916015625 401.822265625 425.873046875 420.858398438 425.876953125 420.858398438 c 0
 425.881835938 420.858398438 471.838867188 401.822265625 471.841796875 401.819335938 c 0
 471.844726562 401.81640625 490.881835938 355.858398438 490.881835938 355.854492188 c 0
396.87109375 362.234375 m 1
 399.439453125 370.34375 408.552734375 377.422851562 418.844726562 380.245117188 c 0
 433.092773438 384.15234375 448.630859375 378.21484375 454.375 363.668945312 c 0
 528.240234375 176.620117188 l 1
 592.844726562 17.2412109375 530.525390625 -89.9912109375 437.002929688 -90.1943359375 c 0
 322.4453125 -90.443359375 298.938476562 44.7333984375 333.790039062 158.740234375 c 1
 396.831054688 362.107421875 l 0
 400.583007812 374.209960938 412.111328125 384.638671875 429.5390625 380.88671875 c 0
 440.489257812 378.530273438 451.12890625 371.74609375 454.325195312 363.793945312 c 0
 396.87109375 362.234375 l 1
429.34765625 267.091796875 m 1
 391.909179688 146.315429688 l 1
 358.741210938 37.8193359375 389.174804688 -40.2978515625 436.846679688 -40.1943359375 c 0
 494.733398438 -40.0693359375 512.446289062 59.3466796875 471.3203125 160.803710938 c 1
 429.34765625 267.091796875 l 1
203.485351562 -86.208984375 m 0
 203.485351562 -86.2138671875 184.448242188 -132.170898438 184.4453125 -132.173828125 c 0
 184.442382812 -132.176757812 138.485351562 -151.212890625 138.481445312 -151.212890625 c 0
 138.4765625 -151.212890625 92.51953125 -132.176757812 92.5166015625 -132.173828125 c 0
 92.513671875 -132.170898438 73.4765625 -86.2138671875 73.4765625 -86.208984375 c 0
 73.4765625 -86.205078125 92.513671875 -40.248046875 92.5166015625 -40.2451171875 c 0
 92.51953125 -40.2412109375 138.4765625 -21.205078125 138.481445312 -21.205078125 c 0
 138.485351562 -21.205078125 184.442382812 -40.2412109375 184.4453125 -40.2451171875 c 0
 184.448242188 -40.248046875 203.485351562 -86.205078125 203.485351562 -86.208984375 c 0
447.62109375 781.081054688 m 0
 462.379882812 777.408203125 474.352539062 763.666015625 469.30859375 749.592773438 c 0
 167.2265625 -93.3623046875 l 0
 162.934570312 -105.33984375 148.40234375 -114.768554688 131.513671875 -110.565429688 c 0
 117.470703125 -107.071289062 104.53125 -93.578125 109.736328125 -79.0556640625 c 0
 411.818359375 763.900390625 l 0
 415.895507812 775.278320312 430.193359375 785.41796875 447.62109375 781.081054688 c 0
133.264648438 797.455078125 m 0
 151.752929688 805.961914062 168.196289062 796.45703125 174.029296875 787.654296875 c 0
 230.487304688 702.44921875 349.095703125 693.829101562 416.234375 771.374023438 c 0
 428.591796875 785.646484375 448.331054688 782.904296875 458.116210938 777.020507812 c 0
 467.90234375 771.13671875 477.249023438 756.390625 464.892578125 742.119140625 c 0
 372.646484375 635.57421875 199.732421875 645.427734375 121.50390625 763.485351562 c 0
 115.671875 772.288085938 114.77734375 788.948242188 133.264648438 797.455078125 c 0
EndSplineSet
AlternateSubs2: "Randomize subtable" percent.1 percent.2 percent.3 percent.4 percent.5 percent.6 percent.7 percent.8 percent.9
EndChar

StartChar: ampersand
Encoding: 38 38 5
Width: 430
VWidth: 0
Flags: HW
LayerCount: 2
Fore
SplineSet
392.114257812 696.979492188 m 0
 392.114257812 696.975585938 373.078125 651.018554688 373.075195312 651.015625 c 0
 373.072265625 651.012695312 327.114257812 631.975585938 327.110351562 631.975585938 c 0
 327.106445312 631.975585938 281.1484375 651.012695312 281.145507812 651.015625 c 0
 281.142578125 651.018554688 262.106445312 696.975585938 262.106445312 696.979492188 c 0
 262.106445312 696.984375 281.142578125 742.94140625 281.145507812 742.944335938 c 0
 281.1484375 742.947265625 327.106445312 761.984375 327.110351562 761.984375 c 0
 327.114257812 761.984375 373.072265625 742.947265625 373.075195312 742.944335938 c 0
 373.078125 742.94140625 392.114257812 696.984375 392.114257812 696.979492188 c 0
400.639648438 416.293945312 m 0
 400.639648438 416.290039062 381.603515625 370.333007812 381.600585938 370.330078125 c 0
 381.59765625 370.327148438 335.639648438 351.290039062 335.635742188 351.290039062 c 0
 335.631835938 351.290039062 289.673828125 370.327148438 289.670898438 370.330078125 c 0
 289.66796875 370.333007812 270.631835938 416.290039062 270.631835938 416.293945312 c 0
 270.631835938 416.298828125 289.66796875 462.255859375 289.670898438 462.258789062 c 0
 289.673828125 462.26171875 335.631835938 481.298828125 335.635742188 481.298828125 c 0
 335.639648438 481.298828125 381.59765625 462.26171875 381.600585938 462.258789062 c 0
 381.603515625 462.255859375 400.639648438 416.298828125 400.639648438 416.293945312 c 0
357.287109375 699.345703125 m 0
 356.666015625 688.865234375 346.416992188 671.154296875 325.629882812 672.009765625 c 0
 91.1748046875 681.663085938 l 1
 117.577148438 79.5703125 l 1
 308.360351562 426.705078125 l 0
 317.154296875 442.705078125 337.157226562 443.2109375 348.127929688 439.024414062 c 0
 359.098632812 434.836914062 371.705078125 421.885742188 362.911132812 405.884765625 c 0
 119.489257812 -37.02734375 l 0
 118.215820312 -39.3447265625 111.560546875 -49.9208984375 95.658203125 -51.4521484375 c 0
 79.267578125 -53.03125 62.9052734375 -42.8330078125 62.2333984375 -27.5302734375 c 0
 30.0205078125 707.063476562 l 0
 29.984375 707.896484375 30.04296875 706.4140625 30.013671875 707.247070312 c 0
 29.466796875 722.865234375 45.0009765625 733.624023438 61.4814453125 732.946289062 c 0
 328.590820312 721.94921875 l 0
 340.642578125 721.453125 358.291992188 716.298828125 357.287109375 699.345703125 c 0
342.297851562 718.5390625 m 0
 360.510742188 709.62890625 359.090820312 692.994140625 352.981445312 684.323242188 c 0
 101.978515625 328.022460938 l 0
 91.287109375 312.845703125 71.3251953125 314.029296875 60.919921875 319.119140625 c 0
 50.513671875 324.209960938 39.5439453125 338.158203125 50.236328125 353.3359375 c 0
 301.239257812 709.635742188 l 0
 307.34765625 718.307617188 324.0859375 727.448242188 342.297851562 718.5390625 c 0
400.036132812 11.578125 m 0
 400.036132812 11.5732421875 381 -34.3837890625 380.99609375 -34.38671875 c 0
 380.993164062 -34.3896484375 335.036132812 -53.4267578125 335.032226562 -53.4267578125 c 0
 335.02734375 -53.4267578125 289.0703125 -34.3896484375 289.067382812 -34.38671875 c 0
 289.064453125 -34.3837890625 270.028320312 11.5732421875 270.028320312 11.578125 c 0
 270.028320312 11.58203125 289.064453125 57.5390625 289.067382812 57.5419921875 c 0
 289.0703125 57.544921875 335.02734375 76.58203125 335.032226562 76.58203125 c 0
 335.036132812 76.58203125 380.993164062 57.544921875 380.99609375 57.5419921875 c 0
 381 57.5390625 400.036132812 11.58203125 400.036132812 11.578125 c 0
345.051757812 -11.986328125 m 0
 325.145507812 -17.8642578125 310.784179688 -6.25 306.75390625 3.2275390625 c 0
 209.991210938 230.782226562 l 0
 202.9375 247.370117188 216.875 259.337890625 228.248046875 262.696289062 c 0
 239.622070312 266.0546875 259.4921875 264.0703125 266.545898438 247.482421875 c 0
 363.30859375 19.927734375 l 0
 367.338867188 10.4501953125 364.95703125 -6.1083984375 345.051757812 -11.986328125 c 0
EndSplineSet
AlternateSubs2: "Randomize subtable" ampersand.1 ampersand.2 ampersand.3 ampersand.4 ampersand.5 ampersand.6 ampersand.7 ampersand.8 ampersand.9
EndChar

StartChar: quotesingle
Encoding: 39 39 6
Width: 234
VWidth: 0
Flags: HW
LayerCount: 2
Fore
SplineSet
160.0078125 723.670898438 m 0
 160.0078125 723.666992188 140.971679688 677.709960938 140.96875 677.70703125 c 0
 140.965820312 677.704101562 95.0078125 658.666992188 95.00390625 658.666992188 c 0
 95 658.666992188 49.0419921875 677.704101562 49.0390625 677.70703125 c 0
 49.0361328125 677.709960938 30 723.666992188 30 723.670898438 c 0
 30 723.67578125 49.0361328125 769.6328125 49.0390625 769.635742188 c 0
 49.0419921875 769.638671875 95 788.67578125 95.00390625 788.67578125 c 0
 95.0078125 788.67578125 140.965820312 769.638671875 140.96875 769.635742188 c 0
 140.971679688 769.6328125 160.0078125 723.67578125 160.0078125 723.670898438 c 0
204.294921875 430.609375 m 0
 204.294921875 430.60546875 185.2578125 384.647460938 185.254882812 384.64453125 c 0
 185.251953125 384.641601562 139.294921875 365.60546875 139.290039062 365.60546875 c 0
 139.286132812 365.60546875 93.3291015625 384.641601562 93.326171875 384.64453125 c 0
 93.3232421875 384.647460938 74.2861328125 430.60546875 74.2861328125 430.609375 c 0
 74.2861328125 430.61328125 93.3232421875 476.5703125 93.326171875 476.57421875 c 0
 93.3291015625 476.577148438 139.286132812 495.61328125 139.290039062 495.61328125 c 0
 139.294921875 495.61328125 185.251953125 476.577148438 185.254882812 476.57421875 c 0
 185.2578125 476.5703125 204.294921875 430.61328125 204.294921875 430.609375 c 0
84.986328125 747.265625 m 0
 102.6328125 751.69921875 119.586914062 742.33203125 123.7265625 730.887695312 c 0
 150.763671875 656.153320312 163.66796875 584.104492188 168.134765625 522.0625 c 0
 170.775390625 485.3828125 170.279296875 450.965820312 169.266601562 429.622070312 c 0
 168.461914062 412.661132812 148.232421875 405.295898438 134.672851562 405.7421875 c 0
 115 406.389648438 108.780273438 420.35546875 109.313476562 431.596679688 c 0
 110.6328125 459.411132812 110.473632812 488.075195312 108.2421875 519.068359375 c 0
 103.4453125 585.697265625 90.0146484375 650.848632812 66.28125 716.455078125 c 0
 62.7978515625 726.083007812 65.0361328125 742.25390625 84.986328125 747.265625 c 0
EndSplineSet
AlternateSubs2: "Randomize subtable" quotesingle.1 quotesingle.2 quotesingle.3 quotesingle.4 quotesingle.5 quotesingle.6 quotesingle.7 quotesingle.8 quotesingle.9
EndChar

StartChar: parenleft
Encoding: 40 40 7
Width: 320
VWidth: 0
Flags: HW
LayerCount: 2
Fore
SplineSet
269.962890625 688.965820312 m 0
 269.962890625 688.961914062 250.926757812 643.00390625 250.923828125 643.000976562 c 0
 250.919921875 642.998046875 204.962890625 623.961914062 204.958984375 623.961914062 c 0
 204.955078125 623.961914062 158.997070312 642.998046875 158.994140625 643.000976562 c 0
 158.991210938 643.00390625 139.955078125 688.961914062 139.955078125 688.965820312 c 0
 139.955078125 688.969726562 158.991210938 734.927734375 158.994140625 734.930664062 c 0
 158.997070312 734.93359375 204.955078125 753.969726562 204.958984375 753.969726562 c 0
 204.962890625 753.969726562 250.919921875 734.93359375 250.923828125 734.930664062 c 0
 250.926757812 734.927734375 269.962890625 688.969726562 269.962890625 688.965820312 c 0
291.650390625 -17.14453125 m 0
 291.650390625 -17.1494140625 272.614257812 -63.1064453125 272.611328125 -63.109375 c 0
 272.607421875 -63.1123046875 226.650390625 -82.1484375 226.646484375 -82.1484375 c 0
 226.642578125 -82.1484375 180.684570312 -63.1123046875 180.681640625 -63.109375 c 0
 180.678710938 -63.1064453125 161.642578125 -17.1494140625 161.642578125 -17.14453125 c 0
 161.642578125 -17.140625 180.678710938 28.81640625 180.681640625 28.8203125 c 0
 180.684570312 28.8232421875 226.642578125 47.859375 226.646484375 47.859375 c 0
 226.650390625 47.859375 272.607421875 28.8232421875 272.611328125 28.8203125 c 0
 272.614257812 28.81640625 291.650390625 -17.140625 291.650390625 -17.14453125 c 0
228.865234375 704.779296875 m 0
 245.294921875 692.901367188 234.5 679.193359375 227.619140625 672.583984375 c 0
 133.064453125 581.752929688 90.36328125 462.834960938 89.0302734375 351.811523438 c 0
 87.232421875 201.885742188 157.828125 77.3701171875 248.110351562 0.3203125 c 0
 262.864257812 -12.271484375 256.237304688 -28.0068359375 247.604492188 -35.0322265625 c 0
 238.970703125 -42.056640625 219.935546875 -47.2021484375 205.180664062 -34.6103515625 c 0
 77.9560546875 73.966796875 27.4833984375 223.041015625 29.0341796875 352.311523438 c 0
 30.6064453125 483.350585938 83.6953125 610.630859375 182.296875 705.348632812 c 0
 196.548828125 719.0390625 220.159179688 711.073242188 228.865234375 704.779296875 c 0
EndSplineSet
AlternateSubs2: "Randomize subtable" parenleft.1 parenleft.2 parenleft.3 parenleft.4 parenleft.5 parenleft.6 parenleft.7 parenleft.8 parenleft.9
EndChar

StartChar: parenright
Encoding: 41 41 8
Width: 285
VWidth: 0
Flags: HW
LayerCount: 2
Fore
SplineSet
162.620117188 705.063476562 m 0
 162.620117188 705.05859375 143.583984375 659.1015625 143.581054688 659.098632812 c 0
 143.578125 659.095703125 97.62109375 640.05859375 97.6162109375 640.05859375 c 0
 97.6123046875 640.05859375 51.6552734375 659.095703125 51.65234375 659.098632812 c 0
 51.6494140625 659.1015625 32.6123046875 705.05859375 32.6123046875 705.063476562 c 0
 32.6123046875 705.067382812 51.6494140625 751.024414062 51.65234375 751.02734375 c 0
 51.6552734375 751.030273438 97.6123046875 770.067382812 97.6162109375 770.067382812 c 0
 97.62109375 770.067382812 143.578125 751.030273438 143.581054688 751.02734375 c 0
 143.583984375 751.024414062 162.620117188 705.067382812 162.620117188 705.063476562 c 0
159.0078125 -0.908203125 m 0
 159.0078125 -0.912109375 139.971679688 -46.869140625 139.96875 -46.8720703125 c 0
 139.965820312 -46.875 94.0078125 -65.912109375 94.00390625 -65.912109375 c 0
 94 -65.912109375 48.0419921875 -46.875 48.0390625 -46.8720703125 c 0
 48.0361328125 -46.869140625 29 -0.912109375 29 -0.908203125 c 0
 29 -0.9033203125 48.0361328125 45.0537109375 48.0390625 45.056640625 c 0
 48.0419921875 45.0595703125 94 64.095703125 94.00390625 64.095703125 c 0
 94.0078125 64.095703125 139.965820312 45.0595703125 139.96875 45.056640625 c 0
 139.971679688 45.0537109375 159.0078125 -0.9033203125 159.0078125 -0.908203125 c 0
80.37109375 725.51953125 m 0
 97.6513671875 735.635742188 115.227539062 727.662109375 122.1640625 719.434570312 c 0
 218.021484375 605.737304688 251.951171875 477.43359375 255.319335938 372.844726562 c 0
 259.125976562 254.68359375 225.115234375 108.919921875 118.408203125 -15.4482421875 c 0
 106.125 -29.7646484375 86.37109375 -27.0927734375 76.5556640625 -21.2451171875 c 0
 66.740234375 -15.396484375 57.3173828125 -0.68359375 69.599609375 13.6318359375 c 0
 153.379882812 111.279296875 199.634765625 238.221679688 195.340820312 371.502929688 c 0
 191.603515625 487.536132812 149.423828125 600.125976562 73.0703125 690.69140625 c 0
 66.1328125 698.918945312 63.0908203125 715.40234375 80.37109375 725.51953125 c 0
EndSplineSet
AlternateSubs2: "Randomize subtable" parenright.1 parenright.2 parenright.3 parenright.4 parenright.5 parenright.6 parenright.7 parenright.8 parenright.9
EndChar

StartChar: asterisk
Encoding: 42 42 9
Width: 377
VWidth: 0
Flags: HW
LayerCount: 2
Fore
SplineSet
240.397460938 755.095703125 m 0
 240.397460938 755.091796875 221.361328125 709.134765625 221.358398438 709.131835938 c 0
 221.35546875 709.12890625 175.3984375 690.091796875 175.393554688 690.091796875 c 0
 175.389648438 690.091796875 129.432617188 709.12890625 129.4296875 709.131835938 c 0
 129.42578125 709.134765625 110.389648438 755.091796875 110.389648438 755.095703125 c 0
 110.389648438 755.100585938 129.42578125 801.057617188 129.4296875 801.060546875 c 0
 129.432617188 801.063476562 175.389648438 820.100585938 175.393554688 820.100585938 c 0
 175.3984375 820.100585938 221.35546875 801.063476562 221.358398438 801.060546875 c 0
 221.361328125 801.057617188 240.397460938 755.100585938 240.397460938 755.095703125 c 0
145.991210938 760.05859375 m 1
 149.260742188 773.5078125 165.615234375 778.893554688 171.869140625 780.053710938 c 0
 183.647460938 782.239257812 200.088867188 777.70703125 204.677734375 760.528320312 c 0
 233.073242188 654.234375 l 1
 307.708007812 642.995117188 l 0
 317.875976562 641.463867188 324.134765625 635.943359375 326.577148438 633.1640625 c 0
 337.211914062 621.0625 333.456054688 605.012695312 318.14453125 597.126953125 c 0
 297.94921875 586.7265625 279.107421875 575.203125 258.370117188 559.536132812 c 0
 346.318359375 230.310546875 l 0
 350.030273438 216.416992188 339.784179688 207.094726562 332.458984375 203.436523438 c 0
 317.020507812 195.723632812 298.1875 200.31640625 290.172851562 213.747070312 c 0
 153.213867188 443.262695312 l 1
 146.9296875 432.965820312 140.47265625 421.5234375 133.84765625 408.020507812 c 1
 89.91796875 196.236328125 l 0
 86.724609375 180.83984375 68.931640625 172.872070312 52.943359375 176.270507812 c 0
 44.5693359375 178.049804688 30.953125 185.26171875 30.373046875 199.65625 c 0
 27.9306640625 260.28125 36.8701171875 339.762695312 75.8056640625 421.75390625 c 1
 99.0830078125 533.973632812 l 1
 33.611328125 643.690429688 l 0
 30.765625 648.458984375 30.14453125 653.348632812 30.6240234375 657.323242188 c 0
 31.94140625 668.240234375 45.142578125 682.53515625 65.80859375 679.422851562 c 0
 127.331054688 670.158203125 l 1
 145.833007812 759.354492188 l 0
 148.143554688 770.494140625 160.727539062 782.579101562 179.321289062 779.901367188 c 0
 196.049804688 777.491210938 203.024414062 766.018554688 204.478515625 761.225585938 c 0
 145.991210938 760.05859375 l 1
117.111328125 620.887695312 m 0
 113.943359375 621.364257812 l 1
 116.3671875 617.301757812 l 1
 117.111328125 620.887695312 l 0
189.81640625 494.216796875 m 1
 234.235351562 419.780273438 l 1
 208.708984375 515.336914062 l 1
 203.178710938 509.444335938 l 0
 189.81640625 494.216796875 l 1
162.787109375 547.541015625 m 1
 172.728515625 557.853515625 180.706054688 565.336914062 188.452148438 572.247070312 c 0
 192.541992188 575.854492188 l 0
 183.169921875 610.939453125 l 1
 176.157226562 611.99609375 l 1
 162.787109375 547.541015625 l 1
EndSplineSet
AlternateSubs2: "Randomize subtable" asterisk.1 asterisk.2 asterisk.3 asterisk.4 asterisk.5 asterisk.6 asterisk.7 asterisk.8 asterisk.9
EndChar

StartChar: plus
Encoding: 43 43 10
Width: 384
VWidth: 0
Flags: HW
LayerCount: 2
Fore
SplineSet
159.0078125 333.974609375 m 0
 159.0078125 333.969726562 139.971679688 288.012695312 139.96875 288.009765625 c 0
 139.965820312 288.006835938 94.0078125 268.970703125 94.00390625 268.970703125 c 0
 94 268.970703125 48.0419921875 288.006835938 48.0390625 288.009765625 c 0
 48.0361328125 288.012695312 29 333.969726562 29 333.974609375 c 0
 29 333.978515625 48.0361328125 379.935546875 48.0390625 379.938476562 c 0
 48.0419921875 379.942382812 94 398.978515625 94.00390625 398.978515625 c 0
 94.0078125 398.978515625 139.965820312 379.942382812 139.96875 379.938476562 c 0
 139.971679688 379.935546875 159.0078125 333.978515625 159.0078125 333.974609375 c 0
355.3828125 350.211914062 m 0
 355.3828125 350.208007812 336.346679688 304.250976562 336.34375 304.248046875 c 0
 336.340820312 304.244140625 290.383789062 285.208007812 290.37890625 285.208007812 c 0
 290.375 285.208007812 244.41796875 304.244140625 244.4140625 304.248046875 c 0
 244.411132812 304.250976562 225.375 350.208007812 225.375 350.211914062 c 0
 225.375 350.216796875 244.411132812 396.173828125 244.4140625 396.176757812 c 0
 244.41796875 396.1796875 290.375 415.215820312 290.37890625 415.215820312 c 0
 290.383789062 415.215820312 336.340820312 396.1796875 336.34375 396.176757812 c 0
 336.346679688 396.173828125 355.3828125 350.216796875 355.3828125 350.211914062 c 0
64.2490234375 330.678710938 m 0
 62.4423828125 345.85546875 76.115234375 357.618164062 91.0419921875 358.852539062 c 0
 287.416992188 375.08984375 l 0
 305.329101562 376.571289062 318.649414062 365.979492188 320.130859375 353.540039062 c 0
 321.428710938 342.633789062 313.239257812 326.979492188 293.341796875 325.333984375 c 0
 96.966796875 309.096679688 l 0
 84.103515625 308.033203125 66.2236328125 314.096679688 64.2490234375 330.678710938 c 0
241.436523438 92.4853515625 m 0
 241.436523438 92.4814453125 222.399414062 46.5234375 222.396484375 46.5205078125 c 0
 222.393554688 46.517578125 176.436523438 27.4814453125 176.432617188 27.4814453125 c 0
 176.427734375 27.4814453125 130.470703125 46.517578125 130.467773438 46.5205078125 c 0
 130.46484375 46.5234375 111.427734375 92.4814453125 111.427734375 92.4853515625 c 0
 111.427734375 92.4892578125 130.46484375 138.446289062 130.467773438 138.450195312 c 0
 130.470703125 138.453125 176.427734375 157.489257812 176.432617188 157.489257812 c 0
 176.436523438 157.489257812 222.393554688 138.453125 222.396484375 138.450195312 c 0
 222.399414062 138.446289062 241.436523438 92.4892578125 241.436523438 92.4853515625 c 0
262.288085938 598.440429688 m 0
 262.288085938 598.436523438 243.251953125 552.479492188 243.249023438 552.475585938 c 0
 243.24609375 552.47265625 197.288085938 533.436523438 197.284179688 533.436523438 c 0
 197.280273438 533.436523438 151.322265625 552.47265625 151.319335938 552.475585938 c 0
 151.31640625 552.479492188 132.280273438 598.436523438 132.280273438 598.440429688 c 0
 132.280273438 598.4453125 151.31640625 644.40234375 151.319335938 644.405273438 c 0
 151.322265625 644.408203125 197.280273438 663.444335938 197.284179688 663.444335938 c 0
 197.288085938 663.444335938 243.24609375 644.408203125 243.249023438 644.405273438 c 0
 243.251953125 644.40234375 262.288085938 598.4453125 262.288085938 598.440429688 c 0
175.086914062 67.5087890625 m 0
 154.098632812 68.109375 146.05078125 83.6611328125 146.44921875 93.3427734375 c 0
 167.301757812 599.298828125 l 0
 168.022460938 616.788085938 187.024414062 623.749023438 198.721679688 623.4140625 c 0
 211.15625 623.05859375 227.965820312 614.546875 227.266601562 597.583007812 c 0
 206.4140625 91.626953125 l 0
 205.987304688 81.265625 195.55078125 66.9228515625 175.086914062 67.5087890625 c 0
EndSplineSet
AlternateSubs2: "Randomize subtable" plus.1 plus.2 plus.3 plus.4 plus.5 plus.6 plus.7 plus.8 plus.9
EndChar

StartChar: comma
Encoding: 44 44 11
Width: 221
VWidth: 0
Flags: HW
LayerCount: 2
Fore
SplineSet
185.258789062 -0.40625 m 0
 185.258789062 -0.41015625 166.22265625 -46.3671875 166.219726562 -46.3701171875 c 0
 166.216796875 -46.3740234375 120.259765625 -65.41015625 120.254882812 -65.41015625 c 0
 120.250976562 -65.41015625 74.2939453125 -46.3740234375 74.291015625 -46.3701171875 c 0
 74.287109375 -46.3671875 55.2509765625 -0.41015625 55.2509765625 -0.40625 c 0
 55.2509765625 -0.4013671875 74.287109375 45.5556640625 74.291015625 45.55859375 c 0
 74.2939453125 45.5615234375 120.250976562 64.59765625 120.254882812 64.59765625 c 0
 120.259765625 64.59765625 166.216796875 45.5615234375 166.219726562 45.55859375 c 0
 166.22265625 45.5556640625 185.258789062 -0.4013671875 185.258789062 -0.40625 c 0
166.0078125 -219.57421875 m 0
 166.0078125 -219.578125 146.971679688 -265.536132812 146.96875 -265.5390625 c 0
 146.965820312 -265.541992188 101.0078125 -284.578125 101.00390625 -284.578125 c 0
 101 -284.578125 55.0419921875 -265.541992188 55.0390625 -265.5390625 c 0
 55.0361328125 -265.536132812 36 -219.578125 36 -219.57421875 c 0
 36 -219.5703125 55.0361328125 -173.612304688 55.0390625 -173.609375 c 0
 55.0419921875 -173.606445312 101 -154.5703125 101.00390625 -154.5703125 c 0
 101.0078125 -154.5703125 146.965820312 -173.606445312 146.96875 -173.609375 c 0
 146.971679688 -173.612304688 166.0078125 -219.5703125 166.0078125 -219.57421875 c 0
106.740234375 21.9130859375 m 0
 125.594726562 29.841796875 141.602539062 19.8330078125 147.038085938 10.8564453125 c 0
 178.823242188 -41.6376953125 l 0
 180.599609375 -44.5712890625 183.545898438 -51.1201171875 181.108398438 -59.080078125 c 0
 130.072265625 -225.755859375 l 0
 124.879882812 -242.711914062 104.313476562 -246.079101562 92.2236328125 -243.508789062 c 0
 77.689453125 -240.41796875 67.4853515625 -227.927734375 71.935546875 -213.393554688 c 0
 120.19140625 -55.796875 l 1
 93.4716796875 -11.66796875 l 0
 88.03515625 -2.69140625 87.8857421875 13.9853515625 106.740234375 21.9130859375 c 0
EndSplineSet
AlternateSubs2: "Randomize subtable" comma.1 comma.2 comma.3 comma.4 comma.5 comma.6 comma.7 comma.8 comma.9
EndChar

StartChar: hyphen
Encoding: 45 45 12
Width: 326
VWidth: 0
Flags: HW
LayerCount: 2
Fore
SplineSet
165.0078125 273.44921875 m 0
 165.0078125 273.4453125 145.971679688 227.48828125 145.96875 227.484375 c 0
 145.965820312 227.481445312 100.0078125 208.4453125 100.00390625 208.4453125 c 0
 100 208.4453125 54.0419921875 227.481445312 54.0390625 227.484375 c 0
 54.0361328125 227.48828125 35 273.4453125 35 273.44921875 c 0
 35 273.454101562 54.0361328125 319.411132812 54.0390625 319.4140625 c 0
 54.0419921875 319.416992188 100 338.453125 100.00390625 338.453125 c 0
 100.0078125 338.453125 145.965820312 319.416992188 145.96875 319.4140625 c 0
 145.971679688 319.411132812 165.0078125 273.454101562 165.0078125 273.44921875 c 0
291.368164062 321.502929688 m 0
 291.368164062 321.499023438 272.33203125 275.541015625 272.329101562 275.538085938 c 0
 272.325195312 275.53515625 226.368164062 256.499023438 226.364257812 256.499023438 c 0
 226.359375 256.499023438 180.40234375 275.53515625 180.399414062 275.538085938 c 0
 180.396484375 275.541015625 161.360351562 321.499023438 161.360351562 321.502929688 c 0
 161.360351562 321.506835938 180.396484375 367.46484375 180.399414062 367.467773438 c 0
 180.40234375 367.470703125 226.359375 386.506835938 226.364257812 386.506835938 c 0
 226.368164062 386.506835938 272.325195312 367.470703125 272.329101562 367.467773438 c 0
 272.33203125 367.46484375 291.368164062 321.506835938 291.368164062 321.502929688 c 0
72.7109375 263.0703125 m 0
 64.09765625 278.797851562 77.1533203125 292.239257812 87.548828125 296.193359375 c 0
 213.909179688 344.247070312 l 0
 232.782226562 351.423828125 248.913085938 340.544921875 253.657226562 331.881835938 c 0
 258.400390625 323.219726562 257.692382812 305.936523438 238.819335938 298.758789062 c 0
 112.458007812 250.705078125 l 0
 102.063476562 246.751953125 81.3232421875 247.342773438 72.7109375 263.0703125 c 0
EndSplineSet
AlternateSubs2: "Randomize subtable" hyphen.1 hyphen.2 hyphen.3 hyphen.4 hyphen.5 hyphen.6 hyphen.7 hyphen.8 hyphen.9
EndChar

StartChar: period
Encoding: 46 46 13
Width: 203
VWidth: 0
Flags: HW
LayerCount: 2
Fore
SplineSet
167.0078125 36.8955078125 m 0
 167.0078125 36.890625 147.971679688 -9.06640625 147.96875 -9.0693359375 c 0
 147.965820312 -9.072265625 102.0078125 -28.1083984375 102.00390625 -28.1083984375 c 0
 102 -28.1083984375 56.0419921875 -9.072265625 56.0390625 -9.0693359375 c 0
 56.0361328125 -9.06640625 37 36.890625 37 36.8955078125 c 0
 37 36.8994140625 56.0361328125 82.8564453125 56.0390625 82.859375 c 0
 56.0419921875 82.86328125 102 101.899414062 102.00390625 101.899414062 c 0
 102.0078125 101.899414062 147.965820312 82.86328125 147.96875 82.859375 c 0
 147.971679688 82.8564453125 167.0078125 36.8994140625 167.0078125 36.8955078125 c 0
EndSplineSet
AlternateSubs2: "Randomize subtable" period.1 period.2 period.3 period.4 period.5 period.6 period.7 period.8 period.9
EndChar

StartChar: slash
Encoding: 47 47 14
Width: 303
VWidth: 0
Flags: HW
LayerCount: 2
Fore
SplineSet
158.0078125 -64.1015625 m 0
 158.0078125 -64.1064453125 138.971679688 -110.063476562 138.96875 -110.06640625 c 0
 138.965820312 -110.069335938 93.0078125 -129.10546875 93.00390625 -129.10546875 c 0
 93 -129.10546875 47.04296875 -110.069335938 47.0390625 -110.06640625 c 0
 47.0361328125 -110.063476562 28 -64.1064453125 28 -64.1015625 c 0
 28 -64.09765625 47.0361328125 -18.140625 47.0390625 -18.13671875 c 0
 47.04296875 -18.1337890625 93 0.90234375 93.00390625 0.90234375 c 0
 93.0078125 0.90234375 138.965820312 -18.1337890625 138.96875 -18.13671875 c 0
 138.971679688 -18.140625 158.0078125 -64.09765625 158.0078125 -64.1015625 c 0
274.528320312 708.520507812 m 0
 274.528320312 708.515625 255.4921875 662.55859375 255.489257812 662.555664062 c 0
 255.486328125 662.552734375 209.529296875 643.516601562 209.524414062 643.516601562 c 0
 209.520507812 643.516601562 163.563476562 662.552734375 163.559570312 662.555664062 c 0
 163.556640625 662.55859375 144.520507812 708.515625 144.520507812 708.520507812 c 0
 144.520507812 708.524414062 163.556640625 754.481445312 163.559570312 754.485351562 c 0
 163.563476562 754.48828125 209.520507812 773.524414062 209.524414062 773.524414062 c 0
 209.529296875 773.524414062 255.486328125 754.48828125 255.489257812 754.485351562 c 0
 255.4921875 754.481445312 274.528320312 708.524414062 274.528320312 708.520507812 c 0
87.296875 -88.7001953125 m 0
 66.7158203125 -86.544921875 61.6865234375 -71.2705078125 63.23828125 -60.984375 c 0
 179.758789062 711.637695312 l 0
 182.344726562 728.7890625 202.364257812 734.466796875 215.092773438 733.133789062 c 0
 231.091796875 731.458007812 241.3828125 719.278320312 239.290039062 705.40234375 c 0
 122.76953125 -67.21875 l 0
 120.758789062 -80.55078125 104.505859375 -90.5029296875 87.296875 -88.7001953125 c 0
EndSplineSet
AlternateSubs2: "Randomize subtable" slash.1 slash.2 slash.3 slash.4 slash.5 slash.6 slash.7 slash.8 slash.9
EndChar

StartChar: zero
Encoding: 48 48 15
Width: 397
VWidth: 0
Flags: HW
LayerCount: 2
Fore
SplineSet
261.907226562 714.108398438 m 0
 261.907226562 714.104492188 242.87109375 668.146484375 242.8671875 668.143554688 c 0
 242.864257812 668.140625 196.907226562 649.104492188 196.903320312 649.104492188 c 0
 196.8984375 649.104492188 150.94140625 668.140625 150.938476562 668.143554688 c 0
 150.935546875 668.146484375 131.899414062 714.104492188 131.899414062 714.108398438 c 0
 131.899414062 714.112304688 150.935546875 760.0703125 150.938476562 760.073242188 c 0
 150.94140625 760.076171875 196.8984375 779.112304688 196.903320312 779.112304688 c 0
 196.907226562 779.112304688 242.864257812 760.076171875 242.8671875 760.073242188 c 0
 242.87109375 760.0703125 261.907226562 714.112304688 261.907226562 714.108398438 c 0
167.489257812 719.030273438 m 1
 170.83984375 732.934570312 190.564453125 738.569335938 197.655273438 739.573242188 c 0
 215.401367188 742.086914062 223.96484375 730.62109375 226.478515625 718.297851562 c 0
 230.168945312 700.202148438 234.051757812 682.194335938 238.955078125 661.084960938 c 0
 261.139648438 565.583984375 289.985351562 470.599609375 326.288085938 375.912109375 c 0
 412.291015625 151.59765625 358.583984375 -16.580078125 216.743164062 -28.6669921875 c 0
 49.193359375 -42.943359375 -19.8974609375 164.856445312 68.8828125 396.796875 c 0
 101.69921875 482.532226562 131.173828125 569.975585938 154.145507812 661.673828125 c 0
 158.6171875 679.52734375 162.83984375 697.385742188 167.370117188 718.506835938 c 0
 169.625976562 729.020507812 181.587890625 741.786132812 200.901367188 738.909179688 c 0
 218.185546875 736.333984375 225.181640625 723.956054688 226.364257812 718.821289062 c 0
 167.489257812 719.030273438 l 1
195.8125 588.012695312 m 1
 173.905273438 511.798828125 149.875 443.860351562 126.044921875 381.602539062 c 0
 53.2255859375 191.358398438 96.0185546875 11.306640625 210.639648438 21.07421875 c 0
 307.91015625 29.3623046875 340.547851562 174.43359375 269.133789062 360.6953125 c 0
 238.194335938 441.393554688 214.5078125 517.16015625 195.8125 588.012695312 c 1
EndSplineSet
AlternateSubs2: "Randomize subtable" zero.1 zero.2 zero.3 zero.4 zero.5 zero.6 zero.7 zero.8 zero.9
EndChar

StartChar: one
Encoding: 49 49 16
Width: 283
VWidth: 0
Flags: HW
LayerCount: 2
Fore
SplineSet
158.0078125 496.62890625 m 0
 158.0078125 496.625 138.971679688 450.666992188 138.96875 450.6640625 c 0
 138.965820312 450.661132812 93.0078125 431.625 93.00390625 431.625 c 0
 93 431.625 47.0419921875 450.661132812 47.0390625 450.6640625 c 0
 47.0361328125 450.666992188 28 496.625 28 496.62890625 c 0
 28 496.6328125 47.0361328125 542.590820312 47.0390625 542.59375 c 0
 47.0419921875 542.596679688 93 561.6328125 93.00390625 561.6328125 c 0
 93.0078125 561.6328125 138.965820312 542.596679688 138.96875 542.59375 c 0
 138.971679688 542.590820312 158.0078125 496.6328125 158.0078125 496.62890625 c 0
254.780273438 -26.7080078125 m 0
 254.780273438 -26.7119140625 235.744140625 -72.669921875 235.741210938 -72.6728515625 c 0
 235.73828125 -72.67578125 189.78125 -91.7119140625 189.776367188 -91.7119140625 c 0
 189.772460938 -91.7119140625 143.815429688 -72.67578125 143.811523438 -72.6728515625 c 0
 143.80859375 -72.669921875 124.772460938 -26.7119140625 124.772460938 -26.7080078125 c 0
 124.772460938 -26.7041015625 143.80859375 19.25390625 143.811523438 19.2568359375 c 0
 143.815429688 19.259765625 189.772460938 38.2958984375 189.776367188 38.2958984375 c 0
 189.78125 38.2958984375 235.73828125 19.259765625 235.741210938 19.2568359375 c 0
 235.744140625 19.25390625 254.780273438 -26.7041015625 254.780273438 -26.7080078125 c 0
81.2109375 473.641601562 m 0
 61.79296875 480.560546875 60.6767578125 497.2109375 65.419921875 506.45703125 c 0
 163.444335938 697.514648438 l 0
 170.521484375 711.306640625 189.006835938 716.791992188 204.951171875 709.831054688 c 0
 209.662109375 707.774414062 221.052734375 700.946289062 221.029296875 687.649414062 c 0
 219.77734375 -26.744140625 l 0
 219.748046875 -43.71875 201.799804688 -51.72265625 189.733398438 -51.7080078125 c 0
 177.666992188 -51.693359375 159.748046875 -43.6455078125 159.77734375 -26.671875 c 0
 160.814453125 565.203125 l 1
 120.58984375 486.80078125 l 0
 115.845703125 477.5546875 100.629882812 466.723632812 81.2109375 473.641601562 c 0
EndSplineSet
AlternateSubs2: "Randomize subtable" one.1 one.2 one.3 one.4 one.5 one.6 one.7 one.8 one.9
EndChar

StartChar: two
Encoding: 50 50 17
Width: 341
VWidth: 0
Flags: HW
LayerCount: 2
Fore
SplineSet
212.969726562 488.540039062 m 0
 212.969726562 488.536132812 193.93359375 442.579101562 193.9296875 442.576171875 c 0
 193.926757812 442.572265625 147.969726562 423.536132812 147.965820312 423.536132812 c 0
 147.9609375 423.536132812 102.00390625 442.572265625 102.000976562 442.576171875 c 0
 101.998046875 442.579101562 82.9619140625 488.536132812 82.9619140625 488.540039062 c 0
 82.9619140625 488.544921875 101.998046875 534.501953125 102.000976562 534.504882812 c 0
 102.00390625 534.5078125 147.9609375 553.543945312 147.965820312 553.543945312 c 0
 147.969726562 553.543945312 193.926757812 534.5078125 193.9296875 534.504882812 c 0
 193.93359375 534.501953125 212.969726562 488.544921875 212.969726562 488.540039062 c 0
313.447265625 -15.064453125 m 0
 313.447265625 -15.068359375 294.411132812 -61.025390625 294.407226562 -61.0283203125 c 0
 294.404296875 -61.03125 248.447265625 -80.068359375 248.443359375 -80.068359375 c 0
 248.438476562 -80.068359375 202.481445312 -61.03125 202.478515625 -61.0283203125 c 0
 202.475585938 -61.025390625 183.439453125 -15.068359375 183.439453125 -15.064453125 c 0
 183.439453125 -15.0595703125 202.475585938 30.8974609375 202.478515625 30.900390625 c 0
 202.481445312 30.9033203125 248.438476562 49.939453125 248.443359375 49.939453125 c 0
 248.447265625 49.939453125 294.404296875 30.9033203125 294.407226562 30.900390625 c 0
 294.411132812 30.8974609375 313.447265625 -15.0595703125 313.447265625 -15.064453125 c 0
177.68359375 484.938476562 m 0
 175.638671875 467.736328125 157.387695312 462.640625 145.006835938 463.662109375 c 0
 10.748046875 474.74609375 -13.3466796875 653.016601562 112.11328125 697.451171875 c 0
 240.037109375 742.759765625 352.446289062 584.344726562 272.125 374.385742188 c 0
 197.212890625 178.568359375 143.916015625 20.3359375 143.874023438 20.212890625 c 1
 251.899414062 9.76953125 l 0
 266.426757812 8.3642578125 280.615234375 -0.8994140625 278.541015625 -15.7998046875 c 0
 276.999023438 -26.876953125 264.473632812 -41.78125 244.985351562 -39.8974609375 c 0
 101.934570312 -26.068359375 l 0
 100.96875 -25.974609375 100.247070312 -25.87109375 99.5322265625 -25.7529296875 c 0
 86.84375 -23.6474609375 70.8525390625 -11.171875 76.51953125 5.5576171875 c 0
 119.720703125 133.087890625 165.642578125 260.66015625 214.958984375 389.572265625 c 0
 280.541015625 561.001953125 201.79296875 674.885742188 135.58203125 651.435546875 c 0
 66.9619140625 627.131835938 78.6025390625 519.388671875 150.922851562 513.418945312 c 0
 165.849609375 512.186523438 179.499023438 500.209960938 177.68359375 484.938476562 c 0
EndSplineSet
AlternateSubs2: "Randomize subtable" two.1 two.2 two.3 two.4 two.5 two.6 two.7 two.8 two.9
EndChar

StartChar: three
Encoding: 51 51 18
Width: 344
VWidth: 0
Flags: HW
LayerCount: 2
Fore
SplineSet
160.926757812 505.434570312 m 0
 160.926757812 505.4296875 141.890625 459.47265625 141.887695312 459.469726562 c 0
 141.884765625 459.466796875 95.927734375 440.430664062 95.9228515625 440.430664062 c 0
 95.9189453125 440.430664062 49.9619140625 459.466796875 49.9580078125 459.469726562 c 0
 49.955078125 459.47265625 30.9189453125 505.4296875 30.9189453125 505.434570312 c 0
 30.9189453125 505.438476562 49.955078125 551.395507812 49.9580078125 551.3984375 c 0
 49.9619140625 551.401367188 95.9189453125 570.438476562 95.9228515625 570.438476562 c 0
 95.927734375 570.438476562 141.884765625 551.401367188 141.887695312 551.3984375 c 0
 141.890625 551.395507812 160.926757812 505.438476562 160.926757812 505.434570312 c 0
183.264648438 122.502929688 m 0
 183.264648438 122.499023438 164.228515625 76.5419921875 164.225585938 76.5390625 c 0
 164.22265625 76.5361328125 118.265625 57.4990234375 118.260742188 57.4990234375 c 0
 118.256835938 57.4990234375 72.2998046875 76.5361328125 72.296875 76.5390625 c 0
 72.29296875 76.5419921875 53.2568359375 122.499023438 53.2568359375 122.502929688 c 0
 53.2568359375 122.5078125 72.29296875 168.46484375 72.296875 168.467773438 c 0
 72.2998046875 168.470703125 118.256835938 187.5078125 118.260742188 187.5078125 c 0
 118.265625 187.5078125 164.22265625 168.470703125 164.225585938 168.467773438 c 0
 164.228515625 168.46484375 183.264648438 122.5078125 183.264648438 122.502929688 c 0
116.3125 487.095703125 m 0
 100.821289062 475.134765625 82.1181640625 481.067382812 73.9169921875 488.443359375 c 0
 -28.7939453125 580.819335938 63.4765625 742.313476562 198.112304688 711.841796875 c 0
 287.8046875 691.541992188 314.591796875 594.732421875 295.169921875 517.13671875 c 0
 272.604492188 426.979492188 205.459960938 382.2421875 205.427734375 382.217773438 c 1
 260.37109375 309.07421875 288.876953125 237.309570312 304.467773438 179.370117188 c 0
 336.618164062 59.88671875 292.120117188 -44.9560546875 196.985351562 -53.654296875 c 0
 89.740234375 -63.4609375 21.8564453125 57.697265625 94.330078125 137.580078125 c 0
 107.06640625 151.619140625 126.727539062 148.509765625 136.353515625 142.4453125 c 0
 145.978515625 136.381835938 154.927734375 121.46484375 142.19140625 107.426757812 c 0
 102.012695312 63.140625 135.420898438 -8.9833984375 190.440429688 -3.953125 c 0
 250.90234375 1.5751953125 265.967773438 93.9287109375 245.920898438 168.4296875 c 0
 226.037109375 242.325195312 190.96484375 311.997070312 140.693359375 373.35546875 c 0
 133.90625 381.638671875 131.251953125 397.822265625 148.048828125 407.805664062 c 0
 189.830078125 432.638671875 223.182617188 474.399414062 236.43359375 527.344726562 c 0
 249.430664062 579.26953125 236.05078125 651.444335938 182.385742188 663.58984375 c 0
 105.3515625 681.024414062 57.2666015625 576.984375 117.928710938 522.42578125 c 0
 126.129882812 515.049804688 131.803710938 499.056640625 116.3125 487.095703125 c 0
EndSplineSet
AlternateSubs2: "Randomize subtable" three.1 three.2 three.3 three.4 three.5 three.6 three.7 three.8 three.9
EndChar

StartChar: four
Encoding: 52 52 19
Width: 304
VWidth: 0
Flags: HW
LayerCount: 2
Fore
SplineSet
275.844726562 176.78125 m 0
 275.844726562 176.776367188 256.80859375 130.819335938 256.805664062 130.81640625 c 0
 256.802734375 130.813476562 210.845703125 111.776367188 210.840820312 111.776367188 c 0
 210.836914062 111.776367188 164.879882812 130.813476562 164.876953125 130.81640625 c 0
 164.873046875 130.819335938 145.836914062 176.776367188 145.836914062 176.78125 c 0
 145.836914062 176.78515625 164.873046875 222.7421875 164.876953125 222.745117188 c 0
 164.879882812 222.748046875 210.836914062 241.78515625 210.840820312 241.78515625 c 0
 210.845703125 241.78515625 256.802734375 222.748046875 256.805664062 222.745117188 c 0
 256.80859375 222.7421875 275.844726562 176.78515625 275.844726562 176.78125 c 0
272.26171875 11 m 0
 272.26171875 10.99609375 253.225585938 -34.9609375 253.22265625 -34.96484375 c 0
 253.219726562 -34.9677734375 207.262695312 -54.00390625 207.2578125 -54.00390625 c 0
 207.25390625 -54.00390625 161.296875 -34.9677734375 161.29296875 -34.96484375 c 0
 161.290039062 -34.9609375 142.25390625 10.99609375 142.25390625 11 c 0
 142.25390625 11.0048828125 161.290039062 56.9619140625 161.29296875 56.96484375 c 0
 161.296875 56.9677734375 207.25390625 76.00390625 207.2578125 76.00390625 c 0
 207.262695312 76.00390625 253.219726562 56.9677734375 253.22265625 56.96484375 c 0
 253.225585938 56.9619140625 272.26171875 11.0048828125 272.26171875 11 c 0
234.612304688 161.475585938 m 1
 237.254882812 11.3671875 l 0
 237.553710938 -5.60546875 219.795898438 -13.849609375 207.731445312 -13.9970703125 c 0
 195.725585938 -14.1435546875 177.569335938 -6.8642578125 177.260742188 10.6337890625 c 0
 174.708984375 155.63671875 l 1
 53.900390625 169.295898438 l 0
 31.720703125 171.803710938 26.099609375 188.942382812 28.5205078125 198.990234375 c 0
 164.67578125 764.116210938 l 0
 168.973632812 781.954101562 189.5 786.26953125 202.283203125 783.244140625 c 0
 210.576171875 781.282226562 223.833007812 773.928710938 224.0859375 759.5625 c 0
 234.064453125 192.631835938 l 1
 240.765625 185.293945312 241.071289062 176.506835938 240.487304688 172.921875 c 0
 239.754882812 168.422851562 237.203125 164.590820312 234.612304688 161.475585938 c 1
173.819335938 206.1953125 m 1
 168.211914062 524.786132812 l 1
 93.6376953125 215.260742188 l 1
 173.819335938 206.1953125 l 1
EndSplineSet
AlternateSubs2: "Randomize subtable" four.1 four.2 four.3 four.4 four.5 four.6 four.7 four.8 four.9
EndChar

StartChar: five
Encoding: 53 53 20
Width: 374
VWidth: 0
Flags: HW
LayerCount: 2
Fore
SplineSet
328.559570312 709.96875 m 0
 328.559570312 709.96484375 309.5234375 664.0078125 309.520507812 664.004882812 c 0
 309.517578125 664.001953125 263.560546875 644.96484375 263.555664062 644.96484375 c 0
 263.551757812 644.96484375 217.594726562 664.001953125 217.591796875 664.004882812 c 0
 217.587890625 664.0078125 198.551757812 709.96484375 198.551757812 709.96875 c 0
 198.551757812 709.973632812 217.587890625 755.930664062 217.591796875 755.93359375 c 0
 217.594726562 755.936523438 263.551757812 774.973632812 263.555664062 774.973632812 c 0
 263.560546875 774.973632812 309.517578125 755.936523438 309.520507812 755.93359375 c 0
 309.5234375 755.930664062 328.559570312 709.973632812 328.559570312 709.96875 c 0
158.0078125 135.12890625 m 0
 158.0078125 135.125 138.971679688 89.16796875 138.96875 89.1650390625 c 0
 138.965820312 89.1611328125 93.0078125 70.125 93.00390625 70.125 c 0
 93 70.125 47.0419921875 89.1611328125 47.0390625 89.1650390625 c 0
 47.0361328125 89.16796875 28 135.125 28 135.12890625 c 0
 28 135.133789062 47.0361328125 181.090820312 47.0390625 181.09375 c 0
 47.0419921875 181.096679688 93 200.1328125 93.00390625 200.1328125 c 0
 93.0078125 200.1328125 138.965820312 181.096679688 138.96875 181.09375 c 0
 138.971679688 181.090820312 158.0078125 135.133789062 158.0078125 135.12890625 c 0
293.267578125 713.573242188 m 0
 296.51171875 699.137695312 283.822265625 687.698242188 269.078125 685.396484375 c 0
 144.684570312 665.981445312 l 1
 136.637695312 518.079101562 l 1
 237.572265625 444.383789062 299.15625 346.684570312 329.715820312 251.153320312 c 0
 369.498046875 126.791992188 331.963867188 5.3037109375 226.69921875 -17.6591796875 c 0
 128.665039062 -39.044921875 41.0439453125 45.650390625 63.5810546875 140.008789062 c 0
 67.630859375 156.962890625 88.041015625 161.442382812 100.252929688 159.416992188 c 0
 114.963867188 156.9765625 125.940429688 144.959960938 122.426757812 130.249023438 c 0
 108.228515625 70.802734375 158.646484375 19.1796875 211.50390625 30.7109375 c 0
 281.942382812 46.076171875 301.068359375 146.595703125 271.741210938 238.274414062 c 0
 239.572265625 338.834960938 175.310546875 426.813476562 86.8935546875 487.698242188 c 0
 82.9169921875 490.435546875 75.455078125 497.458984375 76.0341796875 508.1015625 c 0
 85.8232421875 688.0390625 l 0
 86.2861328125 696.548828125 93.044921875 708.791015625 110.26953125 711.479492188 c 0
 258.033203125 734.541992188 l 0
 275.080078125 737.203125 290.4140625 726.268554688 293.267578125 713.573242188 c 0
EndSplineSet
AlternateSubs2: "Randomize subtable" five.1 five.2 five.3 five.4 five.5 five.6 five.7 five.8 five.9
EndChar

StartChar: six
Encoding: 54 54 21
Width: 398
VWidth: 0
Flags: HW
LayerCount: 2
Fore
SplineSet
370.353515625 696.6171875 m 0
 370.353515625 696.61328125 351.317382812 650.65625 351.314453125 650.653320312 c 0
 351.311523438 650.649414062 305.354492188 631.61328125 305.349609375 631.61328125 c 0
 305.345703125 631.61328125 259.388671875 650.649414062 259.384765625 650.653320312 c 0
 259.381835938 650.65625 240.345703125 696.61328125 240.345703125 696.6171875 c 0
 240.345703125 696.622070312 259.381835938 742.579101562 259.384765625 742.58203125 c 0
 259.388671875 742.584960938 305.345703125 761.62109375 305.349609375 761.62109375 c 0
 305.354492188 761.62109375 351.311523438 742.584960938 351.314453125 742.58203125 c 0
 351.317382812 742.579101562 370.353515625 696.622070312 370.353515625 696.6171875 c 0
158.0078125 270.393554688 m 0
 158.0078125 270.389648438 138.971679688 224.432617188 138.96875 224.4296875 c 0
 138.965820312 224.42578125 93.0078125 205.389648438 93.00390625 205.389648438 c 0
 93 205.389648438 47.0419921875 224.42578125 47.0390625 224.4296875 c 0
 47.0361328125 224.432617188 28 270.389648438 28 270.393554688 c 0
 28 270.3984375 47.0361328125 316.35546875 47.0390625 316.358398438 c 0
 47.0419921875 316.361328125 93 335.397460938 93.00390625 335.397460938 c 0
 93.0078125 335.397460938 138.965820312 316.361328125 138.96875 316.358398438 c 0
 138.971679688 316.35546875 158.0078125 270.3984375 158.0078125 270.393554688 c 0
141.786132812 271.876953125 m 1
 112.291015625 251.245117188 l 0
 104.249023438 245.620117188 87.6259765625 236.84765625 73.642578125 250.73046875 c 0
 66.2314453125 258.087890625 57.0576171875 277.888671875 73.716796875 289.541992188 c 0
 176.36328125 361.341796875 l 1
 186.84765625 390.50390625 l 0
 222.297851562 490.931640625 252.006835938 593.88671875 275.8515625 701.169921875 c 0
 278.6171875 713.615234375 292.192382812 724.073242188 309.522460938 721.3984375 c 0
 324.59765625 719.071289062 338.041015625 706.4296875 334.84765625 692.064453125 c 0
 312.8203125 592.955078125 286.583984375 501.393554688 259.133789062 419.23828125 c 1
 266.432617188 424.34375 274.272460938 425.139648438 278.047851562 425.194335938 c 0
 296.044921875 425.458984375 309.525390625 412.401367188 308.520507812 398.676757812 c 0
 302.962890625 322.747070312 312.970703125 258.2578125 326.655273438 207.225585938 c 0
 381.180664062 3.916015625 321.499023438 -73.384765625 239.31640625 -83.052734375 c 0
 105.475585938 -98.7958984375 55.75390625 68.6552734375 126.17578125 234.358398438 c 0
 141.786132812 271.876953125 l 1
228.502929688 332.533203125 m 1
 216.666992188 301.333984375 l 0
 182.734375 217.666015625 l 0
 123.059570312 77.2529296875 161.609375 -41.6982421875 230.9296875 -33.5439453125 c 0
 292.977539062 -26.2451171875 302.10546875 69.5244140625 268.100585938 196.321289062 c 0
 246.337890625 277.47265625 247.081054688 345.475585938 247.080078125 345.52734375 c 1
 228.502929688 332.533203125 l 1
EndSplineSet
AlternateSubs2: "Randomize subtable" six.1 six.2 six.3 six.4 six.5 six.6 six.7 six.8 six.9
EndChar

StartChar: seven
Encoding: 55 55 22
Width: 289
VWidth: 0
Flags: HW
LayerCount: 2
Fore
SplineSet
159.0078125 709.6875 m 0
 159.0078125 709.682617188 139.971679688 663.725585938 139.96875 663.72265625 c 0
 139.965820312 663.719726562 94.0078125 644.682617188 94.00390625 644.682617188 c 0
 94 644.682617188 48.0419921875 663.719726562 48.0390625 663.72265625 c 0
 48.0361328125 663.725585938 29 709.682617188 29 709.6875 c 0
 29 709.69140625 48.0361328125 755.6484375 48.0390625 755.651367188 c 0
 48.0419921875 755.654296875 94 774.69140625 94.00390625 774.69140625 c 0
 94.0078125 774.69140625 139.965820312 755.654296875 139.96875 755.651367188 c 0
 139.971679688 755.6484375 159.0078125 709.69140625 159.0078125 709.6875 c 0
173.885742188 13.0009765625 m 0
 173.885742188 12.99609375 154.849609375 -32.9609375 154.846679688 -32.9638671875 c 0
 154.84375 -32.966796875 108.885742188 -52.0029296875 108.881835938 -52.0029296875 c 0
 108.877929688 -52.0029296875 62.919921875 -32.966796875 62.9169921875 -32.9638671875 c 0
 62.9140625 -32.9609375 43.8779296875 12.99609375 43.8779296875 13.0009765625 c 0
 43.8779296875 13.0048828125 62.9140625 58.9619140625 62.9169921875 58.9658203125 c 0
 62.919921875 58.96875 108.877929688 78.0048828125 108.881835938 78.0048828125 c 0
 108.885742188 78.0048828125 154.84375 58.96875 154.846679688 58.9658203125 c 0
 154.849609375 58.9619140625 173.885742188 13.0048828125 173.885742188 13.0009765625 c 0
70.7822265625 725.515625 m 0
 84.1533203125 739.137695312 103.658203125 735.404296875 112.998046875 729.038085938 c 0
 249.268554688 636.15234375 l 0
 255.813476562 631.69140625 264.171875 621.864257812 258.59765625 608.559570312 c 0
 193.836914062 454.013671875 138.881835938 251.224609375 138.881835938 13.0009765625 c 0
 138.881835938 -3.97265625 120.948242188 -11.9990234375 108.881835938 -11.9990234375 c 0
 96.8154296875 -11.9990234375 78.8818359375 -3.97265625 78.8818359375 13.0009765625 c 0
 78.8818359375 251.188476562 132.267578125 453.381835938 195.116210938 608.46875 c 1
 75.009765625 690.3359375 l 0
 65.669921875 696.702148438 57.412109375 711.892578125 70.7822265625 725.515625 c 0
EndSplineSet
AlternateSubs2: "Randomize subtable" seven.1 seven.2 seven.3 seven.4 seven.5 seven.6 seven.7 seven.8 seven.9
EndChar

StartChar: eight
Encoding: 56 56 23
Width: 330
VWidth: 0
Flags: HW
LayerCount: 2
Fore
SplineSet
222.169921875 707.168945312 m 0
 222.169921875 707.165039062 203.133789062 661.208007812 203.130859375 661.204101562 c 0
 203.127929688 661.201171875 157.170898438 642.165039062 157.166015625 642.165039062 c 0
 157.162109375 642.165039062 111.205078125 661.201171875 111.202148438 661.204101562 c 0
 111.198242188 661.208007812 92.162109375 707.165039062 92.162109375 707.168945312 c 0
 92.162109375 707.173828125 111.198242188 753.130859375 111.202148438 753.133789062 c 0
 111.205078125 753.13671875 157.162109375 772.172851562 157.166015625 772.172851562 c 0
 157.170898438 772.172851562 203.127929688 753.13671875 203.130859375 753.133789062 c 0
 203.133789062 753.130859375 222.169921875 707.173828125 222.169921875 707.168945312 c 0
146.337890625 683.393554688 m 1
 143.1640625 683.870117188 145.29296875 683.932617188 141.615234375 685.790039062 c 0
 114.315429688 699.579101562 66.4111328125 640.754882812 102.47265625 560.443359375 c 0
 122.0546875 516.831054688 158.291992188 467.840820312 168.927734375 452.388671875 c 1
 203.181640625 488.62890625 224.747070312 508.723632812 235.118164062 541.067382812 c 0
 254.774414062 602.3671875 217.760742188 672.541015625 151.780273438 682.575195312 c 0
 148.607421875 683.057617188 150.010742188 681.529296875 146.337890625 683.393554688 c 1
200.458984375 404.21484375 m 1
 202.366210938 401.0546875 l 0
 232.162109375 351.395507812 262.127929688 288.3359375 284.810546875 209.750976562 c 0
 323.374023438 76.1494140625 267.59765625 -35.0732421875 167.263671875 -31.4580078125 c 0
 66.78515625 -27.837890625 25.3271484375 82.482421875 63.9716796875 227.077148438 c 0
 80.9619140625 290.650390625 95.6103515625 350.767578125 128.044921875 401.588867188 c 0
 131.184570312 406.399414062 l 0
 104.46875 446.663085938 68.630859375 493.138671875 46.27734375 542.920898438 c 0
 -7.9765625 663.749023438 83.8837890625 766.276367188 167.698242188 730.903320312 c 1
 265.25390625 712.471679688 321.52734375 616.86328125 293.084960938 528.16015625 c 0
 275.84375 474.390625 231.029296875 439.952148438 200.458984375 404.21484375 c 1
165.267578125 349.521484375 m 1
 146.81640625 310.591796875 135.547851562 264.891601562 122.536132812 216.20703125 c 0
 92.5029296875 103.829101562 117.33203125 20.3876953125 169.85546875 18.4951171875 c 0
 221.670898438 16.6279296875 255.251953125 98.3603515625 226.474609375 198.057617188 c 0
 215.328125 236.67578125 196.4296875 291.42578125 165.267578125 349.521484375 c 1
EndSplineSet
AlternateSubs2: "Randomize subtable" eight.1 eight.2 eight.3 eight.4 eight.5 eight.6 eight.7 eight.8 eight.9
EndChar

StartChar: nine
Encoding: 57 57 24
Width: 293
VWidth: 0
Flags: HW
LayerCount: 2
Fore
SplineSet
217.895507812 49.5703125 m 0
 217.895507812 49.56640625 198.859375 3.609375 198.856445312 3.6064453125 c 0
 198.853515625 3.603515625 152.895507812 -15.43359375 152.891601562 -15.43359375 c 0
 152.887695312 -15.43359375 106.9296875 3.603515625 106.926757812 3.6064453125 c 0
 106.923828125 3.609375 87.8876953125 49.56640625 87.8876953125 49.5703125 c 0
 87.8876953125 49.5751953125 106.923828125 95.5322265625 106.926757812 95.53515625 c 0
 106.9296875 95.5380859375 152.887695312 114.575195312 152.891601562 114.575195312 c 0
 152.895507812 114.575195312 198.853515625 95.5380859375 198.856445312 95.53515625 c 0
 198.859375 95.5322265625 217.895507812 49.5751953125 217.895507812 49.5703125 c 0
262.546875 289.784179688 m 0
 262.546875 289.780273438 243.510742188 243.822265625 243.5078125 243.819335938 c 0
 243.50390625 243.81640625 197.546875 224.780273438 197.54296875 224.780273438 c 0
 197.538085938 224.780273438 151.581054688 243.81640625 151.578125 243.819335938 c 0
 151.575195312 243.822265625 132.5390625 289.780273438 132.5390625 289.784179688 c 0
 132.5390625 289.788085938 151.575195312 335.745117188 151.578125 335.749023438 c 0
 151.581054688 335.751953125 197.538085938 354.788085938 197.54296875 354.788085938 c 0
 197.546875 354.788085938 243.50390625 335.751953125 243.5078125 335.749023438 c 0
 243.510742188 335.745117188 262.546875 289.788085938 262.546875 289.784179688 c 0
214.000976562 316.666015625 m 1
 223.684570312 302.048828125 l 0
 234.044921875 286.712890625 226.9453125 274.888671875 216.430664062 269.956054688 c 0
 212.602539062 268.16015625 208.08203125 266.336914062 206.25390625 265.860351562 c 1
 196.083007812 195.043945312 188.158203125 122.552734375 182.83984375 48.0859375 c 0
 182.16015625 38.5712890625 172.387695312 23.5595703125 151.424804688 24.599609375 c 0
 130.985351562 25.61328125 122.206054688 40.70703125 122.9453125 51.056640625 c 0
 129.361328125 140.876953125 138.793945312 220.678710938 150.379882812 296.797851562 c 0
 152.00390625 307.344726562 l 1
 135.916015625 333.952148438 l 0
 97.3740234375 399.962890625 65.7529296875 471.0390625 42.26953125 547.491210938 c 0
 19.0078125 623.216796875 20.552734375 741.864257812 121.443359375 758.970703125 c 0
 232.578125 777.813476562 283.240234375 648.157226562 252.438476562 513.818359375 c 0
 239.893554688 459.102539062 228.6171875 403.127929688 218.626953125 344.564453125 c 0
 214.000976562 316.666015625 l 1
167.2734375 396.767578125 m 1
 176.704101562 447.478515625 184.86328125 485.512695312 193.504882812 523.202148438 c 0
 219.4609375 636.40625 182.693359375 718.331054688 133.40625 709.974609375 c 0
 90.3408203125 702.672851562 78.080078125 632.532226562 100.39453125 559.890625 c 0
 113.177734375 518.276367188 134.436523438 459.815429688 167.2734375 396.767578125 c 1
EndSplineSet
AlternateSubs2: "Randomize subtable" nine.1 nine.2 nine.3 nine.4 nine.5 nine.6 nine.7 nine.8 nine.9
EndChar

StartChar: colon
Encoding: 58 58 25
Width: 205
VWidth: 0
Flags: HW
LayerCount: 2
Fore
SplineSet
171.251953125 9.658203125 m 0
 171.251953125 9.654296875 152.215820312 -36.3037109375 152.212890625 -36.306640625 c 0
 152.209960938 -36.3095703125 106.252929688 -55.345703125 106.248046875 -55.345703125 c 0
 106.244140625 -55.345703125 60.287109375 -36.3095703125 60.283203125 -36.306640625 c 0
 60.2802734375 -36.3037109375 41.244140625 9.654296875 41.244140625 9.658203125 c 0
 41.244140625 9.662109375 60.2802734375 55.6201171875 60.283203125 55.623046875 c 0
 60.287109375 55.6259765625 106.244140625 74.662109375 106.248046875 74.662109375 c 0
 106.252929688 74.662109375 152.209960938 55.6259765625 152.212890625 55.623046875 c 0
 152.215820312 55.6201171875 171.251953125 9.662109375 171.251953125 9.658203125 c 0
164.0078125 298.12890625 m 0
 164.0078125 298.125 144.971679688 252.16796875 144.96875 252.1640625 c 0
 144.965820312 252.161132812 99.0078125 233.125 99.00390625 233.125 c 0
 99 233.125 53.0419921875 252.161132812 53.0390625 252.1640625 c 0
 53.0361328125 252.16796875 34 298.125 34 298.12890625 c 0
 34 298.133789062 53.0361328125 344.090820312 53.0390625 344.09375 c 0
 53.0419921875 344.096679688 99 363.1328125 99.00390625 363.1328125 c 0
 99.0078125 363.1328125 144.965820312 344.096679688 144.96875 344.09375 c 0
 144.971679688 344.090820312 164.0078125 298.133789062 164.0078125 298.12890625 c 0
EndSplineSet
AlternateSubs2: "Randomize subtable" colon.1 colon.2 colon.3 colon.4 colon.5 colon.6 colon.7 colon.8 colon.9
EndChar

StartChar: semicolon
Encoding: 59 59 26
Width: 247
VWidth: 0
Flags: HW
LayerCount: 2
Fore
SplineSet
164.0078125 -7.5556640625 m 0
 164.0078125 -7.5595703125 144.971679688 -53.5166015625 144.96875 -53.5205078125 c 0
 144.965820312 -53.5234375 99.0078125 -72.5595703125 99.00390625 -72.5595703125 c 0
 99 -72.5595703125 53.0419921875 -53.5234375 53.0390625 -53.5205078125 c 0
 53.0361328125 -53.5166015625 34 -7.5595703125 34 -7.5556640625 c 0
 34 -7.55078125 53.0361328125 38.40625 53.0390625 38.4091796875 c 0
 53.0419921875 38.412109375 99 57.4482421875 99.00390625 57.4482421875 c 0
 99.0078125 57.4482421875 144.965820312 38.412109375 144.96875 38.4091796875 c 0
 144.971679688 38.40625 164.0078125 -7.55078125 164.0078125 -7.5556640625 c 0
172.828125 -193.719726562 m 0
 172.828125 -193.723632812 153.791992188 -239.680664062 153.7890625 -239.68359375 c 0
 153.786132812 -239.686523438 107.828125 -258.723632812 107.82421875 -258.723632812 c 0
 107.8203125 -258.723632812 61.8623046875 -239.686523438 61.859375 -239.68359375 c 0
 61.8564453125 -239.680664062 42.8203125 -193.723632812 42.8203125 -193.719726562 c 0
 42.8203125 -193.71484375 61.8564453125 -147.7578125 61.859375 -147.754882812 c 0
 61.8623046875 -147.751953125 107.8203125 -128.71484375 107.82421875 -128.71484375 c 0
 107.828125 -128.71484375 153.786132812 -147.751953125 153.7890625 -147.754882812 c 0
 153.791992188 -147.7578125 172.828125 -193.71484375 172.828125 -193.719726562 c 0
85.1650390625 14.6259765625 m 0
 103.90234375 22.744140625 120.0546875 12.8984375 125.62109375 3.9775390625 c 0
 177.271484375 -78.8056640625 l 0
 182.459960938 -87.12109375 180.655273438 -94.529296875 179.01171875 -98.4970703125 c 0
 136.181640625 -201.877929688 l 0
 129.534179688 -217.921875 109.439453125 -220.631835938 98.0341796875 -217.350585938 c 0
 86.6279296875 -214.069335938 72.5751953125 -202.196289062 79.466796875 -185.560546875 c 0
 118.088867188 -92.3369140625 l 1
 72.38671875 -19.087890625 l 0
 66.8203125 -10.1669921875 66.427734375 6.5068359375 85.1650390625 14.6259765625 c 0
213.205078125 265.045898438 m 0
 213.205078125 265.041015625 194.168945312 219.083984375 194.166015625 219.081054688 c 0
 194.163085938 219.078125 148.205078125 200.041992188 148.201171875 200.041992188 c 0
 148.197265625 200.041992188 102.239257812 219.078125 102.236328125 219.081054688 c 0
 102.233398438 219.083984375 83.197265625 265.041015625 83.197265625 265.045898438 c 0
 83.197265625 265.049804688 102.233398438 311.006835938 102.236328125 311.009765625 c 0
 102.239257812 311.013671875 148.197265625 330.049804688 148.201171875 330.049804688 c 0
 148.205078125 330.049804688 194.163085938 311.013671875 194.166015625 311.009765625 c 0
 194.168945312 311.006835938 213.205078125 265.049804688 213.205078125 265.045898438 c 0
EndSplineSet
AlternateSubs2: "Randomize subtable" semicolon.1 semicolon.2 semicolon.3 semicolon.4 semicolon.5 semicolon.6 semicolon.7 semicolon.8 semicolon.9
EndChar

StartChar: less
Encoding: 60 60 27
Width: 333
VWidth: 0
Flags: HW
LayerCount: 2
Fore
SplineSet
293.678710938 648.173828125 m 0
 293.678710938 648.168945312 274.642578125 602.211914062 274.639648438 602.208984375 c 0
 274.63671875 602.206054688 228.6796875 583.168945312 228.674804688 583.168945312 c 0
 228.670898438 583.168945312 182.713867188 602.206054688 182.709960938 602.208984375 c 0
 182.70703125 602.211914062 163.670898438 648.168945312 163.670898438 648.173828125 c 0
 163.670898438 648.177734375 182.70703125 694.134765625 182.709960938 694.137695312 c 0
 182.713867188 694.140625 228.670898438 713.177734375 228.674804688 713.177734375 c 0
 228.6796875 713.177734375 274.63671875 694.140625 274.639648438 694.137695312 c 0
 274.642578125 694.134765625 293.678710938 648.177734375 293.678710938 648.173828125 c 0
304.2265625 87.041015625 m 0
 304.2265625 87.037109375 285.190429688 41.0791015625 285.1875 41.076171875 c 0
 285.18359375 41.0732421875 239.2265625 22.037109375 239.22265625 22.037109375 c 0
 239.21875 22.037109375 193.260742188 41.0732421875 193.2578125 41.076171875 c 0
 193.254882812 41.0791015625 174.21875 87.037109375 174.21875 87.041015625 c 0
 174.21875 87.044921875 193.254882812 133.002929688 193.2578125 133.005859375 c 0
 193.260742188 133.008789062 239.21875 152.044921875 239.22265625 152.044921875 c 0
 239.2265625 152.044921875 285.18359375 133.008789062 285.1875 133.005859375 c 0
 285.190429688 133.002929688 304.2265625 87.044921875 304.2265625 87.041015625 c 0
241.159179688 670.90625 m 0
 260.362304688 663.583007812 260.975585938 646.9140625 255.954101562 637.770507812 c 0
 92.8349609375 340.73828125 l 1
 264.998046875 99.8330078125 l 0
 275.803710938 84.712890625 264.940429688 70.70703125 254.573242188 65.5625 c 0
 244.206054688 60.4169921875 224.252929688 59.12890625 213.447265625 74.25 c 0
 33.23046875 326.422851562 l 0
 28.1787109375 333.4921875 27.6181640625 342.13671875 31.7265625 349.618164062 c 0
 201.395507812 658.577148438 l 0
 206.416992188 667.719726562 221.955078125 678.229492188 241.159179688 670.90625 c 0
EndSplineSet
AlternateSubs2: "Randomize subtable" less.1 less.2 less.3 less.4 less.5 less.6 less.7 less.8 less.9
EndChar

StartChar: equal
Encoding: 61 61 28
Width: 376
VWidth: 0
Flags: HW
LayerCount: 2
Fore
SplineSet
191.368164062 459.638671875 m 0
 191.368164062 459.634765625 172.33203125 413.677734375 172.329101562 413.674804688 c 0
 172.326171875 413.670898438 126.369140625 394.634765625 126.364257812 394.634765625 c 0
 126.360351562 394.634765625 80.4033203125 413.670898438 80.3994140625 413.674804688 c 0
 80.396484375 413.677734375 61.3603515625 459.634765625 61.3603515625 459.638671875 c 0
 61.3603515625 459.643554688 80.396484375 505.600585938 80.3994140625 505.603515625 c 0
 80.4033203125 505.606445312 126.360351562 524.642578125 126.364257812 524.642578125 c 0
 126.369140625 524.642578125 172.326171875 505.606445312 172.329101562 505.603515625 c 0
 172.33203125 505.600585938 191.368164062 459.643554688 191.368164062 459.638671875 c 0
345.099609375 448.934570312 m 0
 345.099609375 448.930664062 326.063476562 402.973632812 326.060546875 402.970703125 c 0
 326.057617188 402.966796875 280.099609375 383.930664062 280.095703125 383.930664062 c 0
 280.091796875 383.930664062 234.134765625 402.966796875 234.130859375 402.970703125 c 0
 234.127929688 402.973632812 215.091796875 448.930664062 215.091796875 448.934570312 c 0
 215.091796875 448.939453125 234.127929688 494.896484375 234.130859375 494.899414062 c 0
 234.134765625 494.90234375 280.091796875 513.938476562 280.095703125 513.938476562 c 0
 280.099609375 513.938476562 326.057617188 494.90234375 326.060546875 494.899414062 c 0
 326.063476562 494.896484375 345.099609375 448.939453125 345.099609375 448.934570312 c 0
96.318359375 460.2265625 m 0
 97.412109375 471.13671875 109.243164062 485.91796875 128.862304688 484.551757812 c 0
 282.59375 473.84765625 l 0
 295.299804688 472.962890625 311.75390625 464.428710938 310.114257812 448.079101562 c 0
 308.686523438 433.8359375 293.888671875 422.88671875 277.59765625 424.021484375 c 0
 123.866210938 434.725585938 l 0
 107.190429688 435.88671875 94.95703125 446.650390625 96.318359375 460.2265625 c 0
160.0078125 246.54296875 m 0
 160.0078125 246.5390625 140.971679688 200.581054688 140.96875 200.578125 c 0
 140.965820312 200.575195312 95.0078125 181.5390625 95.00390625 181.5390625 c 0
 95 181.5390625 49.0419921875 200.575195312 49.0390625 200.578125 c 0
 49.0361328125 200.581054688 30 246.5390625 30 246.54296875 c 0
 30 246.546875 49.0361328125 292.504882812 49.0390625 292.5078125 c 0
 49.0419921875 292.510742188 95 311.546875 95.00390625 311.546875 c 0
 95.0078125 311.546875 140.965820312 292.510742188 140.96875 292.5078125 c 0
 140.971679688 292.504882812 160.0078125 246.546875 160.0078125 246.54296875 c 0
317.158203125 242.760742188 m 0
 317.158203125 242.756835938 298.122070312 196.799804688 298.119140625 196.795898438 c 0
 298.116210938 196.79296875 252.159179688 177.756835938 252.154296875 177.756835938 c 0
 252.150390625 177.756835938 206.193359375 196.79296875 206.190429688 196.795898438 c 0
 206.186523438 196.799804688 187.150390625 242.756835938 187.150390625 242.760742188 c 0
 187.150390625 242.765625 206.186523438 288.72265625 206.190429688 288.725585938 c 0
 206.193359375 288.728515625 252.150390625 307.764648438 252.154296875 307.764648438 c 0
 252.159179688 307.764648438 298.116210938 288.728515625 298.119140625 288.725585938 c 0
 298.122070312 288.72265625 317.158203125 242.765625 317.158203125 242.760742188 c 0
64.8681640625 242.997070312 m 0
 65.1982421875 252.51953125 74.12890625 272.055664062 95.8701171875 271.532226562 c 0
 253.020507812 267.75 l 0
 263.516601562 267.498046875 282.918945312 264.456054688 282.291015625 246.338867188 c 0
 281.931640625 235.969726562 272.025390625 217.272460938 251.288085938 217.771484375 c 0
 94.1376953125 221.553710938 l 0
 82.7158203125 221.828125 64.2685546875 225.716796875 64.8681640625 242.997070312 c 0
EndSplineSet
AlternateSubs2: "Randomize subtable" equal.1 equal.2 equal.3 equal.4 equal.5 equal.6 equal.7 equal.8 equal.9
EndChar

StartChar: greater
Encoding: 62 62 29
Width: 327
VWidth: 0
Flags: HW
LayerCount: 2
Fore
SplineSet
182.374023438 645.588867188 m 0
 182.374023438 645.583984375 163.337890625 599.626953125 163.334960938 599.624023438 c 0
 163.33203125 599.62109375 117.374023438 580.583984375 117.370117188 580.583984375 c 0
 117.366210938 580.583984375 71.4091796875 599.62109375 71.4052734375 599.624023438 c 0
 71.40234375 599.626953125 52.3662109375 645.583984375 52.3662109375 645.588867188 c 0
 52.3662109375 645.592773438 71.40234375 691.549804688 71.4052734375 691.552734375 c 0
 71.4091796875 691.555664062 117.366210938 710.592773438 117.370117188 710.592773438 c 0
 117.374023438 710.592773438 163.33203125 691.555664062 163.334960938 691.552734375 c 0
 163.337890625 691.549804688 182.374023438 645.592773438 182.374023438 645.588867188 c 0
158.0078125 80.3349609375 m 0
 158.0078125 80.3310546875 138.971679688 34.3740234375 138.96875 34.37109375 c 0
 138.965820312 34.3671875 93.0078125 15.3310546875 93.00390625 15.3310546875 c 0
 93 15.3310546875 47.0419921875 34.3671875 47.0390625 34.37109375 c 0
 47.0361328125 34.3740234375 28 80.3310546875 28 80.3349609375 c 0
 28 80.33984375 47.0361328125 126.296875 47.0390625 126.299804688 c 0
 47.0419921875 126.302734375 93 145.338867188 93.00390625 145.338867188 c 0
 93.0078125 145.338867188 138.965820312 126.302734375 138.96875 126.299804688 c 0
 138.971679688 126.296875 158.0078125 80.33984375 158.0078125 80.3349609375 c 0
106.2421875 668.8046875 m 0
 125.854492188 675.333007812 140.75390625 664.19921875 145.229492188 654.861328125 c 0
 295.423828125 341.5078125 l 0
 300.669921875 330.563476562 294.72265625 321.432617188 293.543945312 319.732421875 c 0
 118.983398438 67.8330078125 l 0
 108.421875 52.5927734375 88.4501953125 53.6572265625 78.0009765625 58.685546875 c 0
 67.5517578125 63.7138671875 56.4638671875 77.5966796875 67.0244140625 92.8369140625 c 0
 234.303710938 334.228515625 l 1
 89.5107421875 636.315429688 l 0
 85.0341796875 645.653320312 86.6298828125 662.276367188 106.2421875 668.8046875 c 0
EndSplineSet
AlternateSubs2: "Randomize subtable" greater.1 greater.2 greater.3 greater.4 greater.5 greater.6 greater.7 greater.8 greater.9
EndChar

StartChar: question
Encoding: 63 63 30
Width: 376
VWidth: 0
Flags: HW
LayerCount: 2
Fore
SplineSet
158.0078125 512.368164062 m 0
 158.0078125 512.36328125 138.971679688 466.40625 138.96875 466.403320312 c 0
 138.965820312 466.400390625 93.0078125 447.36328125 93.00390625 447.36328125 c 0
 93 447.36328125 47.0419921875 466.400390625 47.0390625 466.403320312 c 0
 47.0361328125 466.40625 28 512.36328125 28 512.368164062 c 0
 28 512.372070312 47.0361328125 558.329101562 47.0390625 558.33203125 c 0
 47.0419921875 558.334960938 93 577.372070312 93.00390625 577.372070312 c 0
 93.0078125 577.372070312 138.965820312 558.334960938 138.96875 558.33203125 c 0
 138.971679688 558.329101562 158.0078125 512.372070312 158.0078125 512.368164062 c 0
217.041015625 204.322265625 m 0
 217.041015625 204.317382812 198.004882812 158.360351562 198.000976562 158.357421875 c 0
 197.998046875 158.354492188 152.041015625 139.318359375 152.037109375 139.318359375 c 0
 152.032226562 139.318359375 106.075195312 158.354492188 106.072265625 158.357421875 c 0
 106.069335938 158.360351562 87.033203125 204.317382812 87.033203125 204.322265625 c 0
 87.033203125 204.326171875 106.069335938 250.283203125 106.072265625 250.287109375 c 0
 106.075195312 250.290039062 152.032226562 269.326171875 152.037109375 269.326171875 c 0
 152.041015625 269.326171875 197.998046875 250.290039062 198.000976562 250.287109375 c 0
 198.004882812 250.283203125 217.041015625 204.326171875 217.041015625 204.322265625 c 0
108.678710938 491.051757812 m 0
 90.671875 481.856445312 73.7294921875 490.731445312 67.4248046875 499.305664062 c 0
 -8.2734375 602.24609375 76.759765625 744.71875 207.901367188 730.913085938 c 0
 315.810546875 719.552734375 352.2265625 616.359375 344.68359375 545.077148438 c 0
 330.208007812 408.265625 182.036132812 326.350585938 182.036132812 204.322265625 c 0
 182.036132812 187.348632812 164.102539062 179.322265625 152.036132812 179.322265625 c 0
 139.969726562 179.322265625 122.036132812 187.348632812 122.036132812 204.322265625 c 0
 122.036132812 346.721679688 271.959960938 427.025390625 284.916015625 549.46875 c 0
 291.97265625 616.16015625 253.521484375 675.712890625 200.381835938 681.307617188 c 0
 120.729492188 689.693359375 68.7734375 593.166015625 118.583007812 525.4296875 c 0
 124.887695312 516.856445312 126.685546875 500.247070312 108.678710938 491.051757812 c 0
215.23046875 -28.77734375 m 0
 215.23046875 -28.78125 196.194335938 -74.73828125 196.19140625 -74.7412109375 c 0
 196.188476562 -74.744140625 150.231445312 -93.78125 150.2265625 -93.78125 c 0
 150.22265625 -93.78125 104.265625 -74.744140625 104.26171875 -74.7412109375 c 0
 104.258789062 -74.73828125 85.22265625 -28.78125 85.22265625 -28.77734375 c 0
 85.22265625 -28.7724609375 104.258789062 17.1845703125 104.26171875 17.1875 c 0
 104.265625 17.1904296875 150.22265625 36.2265625 150.2265625 36.2265625 c 0
 150.231445312 36.2265625 196.188476562 17.1904296875 196.19140625 17.1875 c 0
 196.194335938 17.1845703125 215.23046875 -28.7724609375 215.23046875 -28.77734375 c 0
EndSplineSet
AlternateSubs2: "Randomize subtable" question.1 question.2 question.3 question.4 question.5 question.6 question.7 question.8 question.9
EndChar

StartChar: at
Encoding: 64 64 31
Width: 619
VWidth: 0
Flags: HW
LayerCount: 2
Fore
SplineSet
199.034179688 -7.365234375 m 0
 199.034179688 -7.369140625 179.998046875 -53.326171875 179.995117188 -53.3291015625 c 0
 179.9921875 -53.3330078125 134.034179688 -72.369140625 134.030273438 -72.369140625 c 0
 134.026367188 -72.369140625 88.068359375 -53.3330078125 88.0654296875 -53.3291015625 c 0
 88.0625 -53.326171875 69.0263671875 -7.369140625 69.0263671875 -7.365234375 c 0
 69.0263671875 -7.3603515625 88.0625 38.5966796875 88.0654296875 38.599609375 c 0
 88.068359375 38.6025390625 134.026367188 57.638671875 134.030273438 57.638671875 c 0
 134.034179688 57.638671875 179.9921875 38.6025390625 179.995117188 38.599609375 c 0
 179.998046875 38.5966796875 199.034179688 -7.3603515625 199.034179688 -7.365234375 c 0
413.846679688 133.521484375 m 0
 413.846679688 133.516601562 394.809570312 87.5595703125 394.806640625 87.556640625 c 0
 394.803710938 87.5537109375 348.846679688 68.517578125 348.842773438 68.517578125 c 0
 348.837890625 68.517578125 302.880859375 87.5537109375 302.877929688 87.556640625 c 0
 302.875 87.5595703125 283.837890625 133.516601562 283.837890625 133.521484375 c 0
 283.837890625 133.525390625 302.875 179.482421875 302.877929688 179.486328125 c 0
 302.880859375 179.489257812 348.837890625 198.525390625 348.842773438 198.525390625 c 0
 348.846679688 198.525390625 394.803710938 179.489257812 394.806640625 179.486328125 c 0
 394.809570312 179.482421875 413.846679688 133.525390625 413.846679688 133.521484375 c 0
128.645507812 -31.978515625 m 0
 108.478515625 -29.595703125 102.528320312 -14.4296875 104.327148438 -3.85546875 c 0
 140.40625 208.17578125 l 1
 129.744140625 218.76953125 l 0
 90.1572265625 259.734375 67.1875 301.995117188 53.3134765625 336.305664062 c 0
 -4.7333984375 479.858398438 39.505859375 667.831054688 203.859375 714.65625 c 0
 429.9921875 779.083007812 604.322265625 526.7265625 589.270507812 213.971679688 c 0
 581.787109375 58.44140625 515.10546875 -48.8291015625 403.858398438 -48.8291015625 c 0
 386.577148438 -48.8291015625 377.47265625 -37.7353515625 375.055664062 -30.822265625 c 0
 325.0625 112.166015625 l 1
 277.883789062 121.766601562 232.353515625 140.689453125 193.805664062 165.860351562 c 1
 163.733398438 -10.875 l 0
 161.626953125 -23.2509765625 146.823242188 -34.126953125 128.645507812 -31.978515625 c 0
203.858398438 224.939453125 m 1
 207.356445312 222.125 l 0
 240.265625 196.024414062 273.125976562 180.106445312 304.93359375 169.736328125 c 1
 230.627929688 382.259765625 l 1
 203.858398438 224.939453125 l 1
152.326171875 278.232421875 m 1
 190.772460938 504.177734375 l 0
 193.694335938 521.349609375 212.913085938 527.686523438 227.004882812 525.068359375 c 0
 232.135742188 524.115234375 244.866210938 520.279296875 249.278320312 507.661132812 c 0
 425.456054688 3.76953125 l 1
 492.201171875 21.046875 524.737304688 120.75 529.319335938 215.974609375 c 0
 544.228515625 525.780273438 376.556640625 711.017578125 223.26953125 667.344726562 c 0
 93.8681640625 630.477539062 62.5009765625 470.166992188 110.172851562 352.271484375 c 0
 123.196289062 320.063476562 140.508789062 293.755859375 152.326171875 278.232421875 c 1
EndSplineSet
AlternateSubs2: "Randomize subtable" at.1 at.2 at.3 at.4 at.5 at.6 at.7 at.8 at.9
EndChar

StartChar: A
Encoding: 65 65 32
Width: 481
VWidth: 0
Flags: HW
LayerCount: 2
Fore
SplineSet
160.0078125 -83.9228515625 m 0
 160.0078125 -83.9267578125 140.971679688 -129.883789062 140.96875 -129.88671875 c 0
 140.965820312 -129.889648438 95.0078125 -148.926757812 95.00390625 -148.926757812 c 0
 95 -148.926757812 49.0419921875 -129.889648438 49.0390625 -129.88671875 c 0
 49.0361328125 -129.883789062 30 -83.9267578125 30 -83.9228515625 c 0
 30 -83.91796875 49.0361328125 -37.9609375 49.0390625 -37.9580078125 c 0
 49.0419921875 -37.955078125 95 -18.91796875 95.00390625 -18.91796875 c 0
 95.0078125 -18.91796875 140.965820312 -37.955078125 140.96875 -37.9580078125 c 0
 140.971679688 -37.9609375 160.0078125 -83.91796875 160.0078125 -83.9228515625 c 0
449.836914062 -45.1318359375 m 0
 449.836914062 -45.1357421875 430.799804688 -91.09375 430.796875 -91.0966796875 c 0
 430.793945312 -91.099609375 384.836914062 -110.135742188 384.83203125 -110.135742188 c 0
 384.828125 -110.135742188 338.87109375 -91.099609375 338.868164062 -91.0966796875 c 0
 338.865234375 -91.09375 319.828125 -45.1357421875 319.828125 -45.1318359375 c 0
 319.828125 -45.1279296875 338.865234375 0.830078125 338.868164062 0.8330078125 c 0
 338.87109375 0.8359375 384.828125 19.8720703125 384.83203125 19.8720703125 c 0
 384.836914062 19.8720703125 430.793945312 0.8359375 430.796875 0.8330078125 c 0
 430.799804688 0.830078125 449.836914062 -45.1279296875 449.836914062 -45.1318359375 c 0
88.9443359375 -108.44140625 m 0
 68.0673828125 -105.790039062 63.578125 -89.83203125 65.3466796875 -80.1572265625 c 0
 221.474609375 773.814453125 l 0
 224.516601562 790.448242188 243.358398438 797.23828125 257.963867188 794.392578125 c 0
 277.762695312 790.534179688 280.53515625 775.391601562 280.856445312 773.434570312 c 0
 414.556640625 -41.74609375 l 0
 416.994140625 -56.6083984375 403.0625 -68.2880859375 387.966796875 -70.0068359375 c 0
 371.247070312 -71.9111328125 357.267578125 -61.67578125 355.109375 -48.517578125 c 0
 249.522460938 595.255859375 l 1
 124.663085938 -87.6875 l 0
 122.403320312 -100.044921875 107.208007812 -110.759765625 88.9443359375 -108.44140625 c 0
237.365234375 153.72265625 m 0
 237.365234375 153.717773438 218.328125 107.760742188 218.325195312 107.7578125 c 0
 218.322265625 107.754882812 172.365234375 88.71875 172.360351562 88.71875 c 0
 172.356445312 88.71875 126.399414062 107.754882812 126.396484375 107.7578125 c 0
 126.393554688 107.760742188 107.356445312 153.717773438 107.356445312 153.72265625 c 0
 107.356445312 153.7265625 126.393554688 199.68359375 126.396484375 199.6875 c 0
 126.399414062 199.690429688 172.356445312 218.7265625 172.360351562 218.7265625 c 0
 172.365234375 218.7265625 218.322265625 199.690429688 218.325195312 199.6875 c 0
 218.328125 199.68359375 237.365234375 153.7265625 237.365234375 153.72265625 c 0
339.211914062 219.717773438 m 0
 339.211914062 219.713867188 320.17578125 173.756835938 320.171875 173.752929688 c 0
 320.168945312 173.75 274.211914062 154.713867188 274.208007812 154.713867188 c 0
 274.203125 154.713867188 228.24609375 173.75 228.243164062 173.752929688 c 0
 228.240234375 173.756835938 209.204101562 219.713867188 209.204101562 219.717773438 c 0
 209.204101562 219.72265625 228.240234375 265.6796875 228.243164062 265.682617188 c 0
 228.24609375 265.685546875 274.203125 284.721679688 274.208007812 284.721679688 c 0
 274.211914062 284.721679688 320.168945312 265.685546875 320.171875 265.682617188 c 0
 320.17578125 265.6796875 339.211914062 219.72265625 339.211914062 219.717773438 c 0
148.678710938 138.375976562 m 0
 135.71484375 152.26953125 144.419921875 167.28515625 153.946289062 173.458007812 c 0
 255.79296875 239.454101562 l 0
 272.463867188 250.256835938 290.483398438 243.001953125 297.890625 235.064453125 c 0
 305.297851562 227.126953125 309.294921875 210.786132812 292.623046875 199.982421875 c 0
 190.776367188 133.987304688 l 0
 181.250976562 127.814453125 161.642578125 124.483398438 148.678710938 138.375976562 c 0
EndSplineSet
AlternateSubs2: "Randomize subtable" A.1 A.2 A.3 A.4 A.5 A.6 A.7 A.8 A.9
EndChar

StartChar: B
Encoding: 66 66 33
Width: 351
VWidth: 0
Flags: HW
LayerCount: 2
Fore
SplineSet
175.216796875 42.2392578125 m 0
 175.216796875 42.2353515625 156.180664062 -3.72265625 156.177734375 -3.7255859375 c 0
 156.174804688 -3.728515625 110.216796875 -22.7646484375 110.212890625 -22.7646484375 c 0
 110.208984375 -22.7646484375 64.2509765625 -3.728515625 64.248046875 -3.7255859375 c 0
 64.2451171875 -3.72265625 45.208984375 42.2353515625 45.208984375 42.2392578125 c 0
 45.208984375 42.2431640625 64.2451171875 88.201171875 64.248046875 88.2041015625 c 0
 64.2509765625 88.20703125 110.208984375 107.243164062 110.212890625 107.243164062 c 0
 110.216796875 107.243164062 156.174804688 88.20703125 156.177734375 88.2041015625 c 0
 156.180664062 88.201171875 175.216796875 42.2431640625 175.216796875 42.2392578125 c 0
160.0078125 721.966796875 m 0
 160.0078125 721.962890625 140.971679688 676.005859375 140.96875 676.001953125 c 0
 140.965820312 675.999023438 95.0078125 656.962890625 95.00390625 656.962890625 c 0
 95 656.962890625 49.04296875 675.999023438 49.0390625 676.001953125 c 0
 49.0361328125 676.005859375 30 721.962890625 30 721.966796875 c 0
 30 721.971679688 49.0361328125 767.928710938 49.0390625 767.931640625 c 0
 49.04296875 767.934570312 95 786.970703125 95.00390625 786.970703125 c 0
 95.0078125 786.970703125 140.965820312 767.934570312 140.96875 767.931640625 c 0
 140.971679688 767.928710938 160.0078125 721.971679688 160.0078125 721.966796875 c 0
111.088867188 17.2490234375 m 0
 90.6162109375 16.9306640625 80.4443359375 31.7197265625 80.21875 41.7734375 c 0
 65.009765625 721.500976562 l 0
 64.6298828125 738.47265625 82.34765625 746.775390625 94.412109375 746.961914062 c 0
 106.416992188 747.1484375 124.608398438 739.930664062 125 722.43359375 c 0
 140.208984375 42.705078125 l 0
 140.432617188 32.70703125 132.084960938 17.5751953125 111.088867188 17.2490234375 c 0
111.590820312 406.745117188 m 0
 95.138671875 418.599609375 105.90625 432.322265625 112.774414062 438.94140625 c 0
 248.372070312 569.631835938 l 1
 74.62890625 703.619140625 l 0
 59.12890625 715.572265625 64.791015625 731.567382812 72.986328125 738.947265625 c 0
 81.181640625 746.327148438 99.880859375 752.26953125 115.380859375 740.31640625 c 0
 310.412109375 589.913085938 l 0
 318.5390625 583.645507812 326.213867188 568.208984375 312.729492188 555.212890625 c 0
 158.161132812 406.239257812 l 0
 143.935546875 392.528320312 120.310546875 400.462890625 111.590820312 406.745117188 c 0
111.388671875 437.501953125 m 0
 123.985351562 451.626953125 143.676757812 448.654296875 153.361328125 442.65625 c 0
 243.120117188 387.071289062 287.706054688 290.348632812 281.418945312 195.661132812 c 0
 274.771484375 95.5322265625 195.642578125 30.3798828125 115.83984375 17.6826171875 c 0
 98.52734375 14.9287109375 83.763671875 24.37890625 80.951171875 36.6572265625 c 0
 78.5029296875 47.3408203125 84.396484375 63.5830078125 104.587890625 66.7958984375 c 0
 163.577148438 76.1806640625 216.784179688 127.23046875 221.510742188 198.422851562 c 0
 226.62890625 275.516601562 191.259765625 356.892578125 117.57421875 402.524414062 c 0
 107.888671875 408.521484375 98.7919921875 423.375976562 111.388671875 437.501953125 c 0
EndSplineSet
AlternateSubs2: "Randomize subtable" B.1 B.2 B.3 B.4 B.5 B.6 B.7 B.8 B.9
EndChar

StartChar: C
Encoding: 67 67 34
Width: 430
VWidth: 0
Flags: HW
LayerCount: 2
Fore
SplineSet
399.17578125 538.095703125 m 0
 399.17578125 538.091796875 380.139648438 492.134765625 380.13671875 492.131835938 c 0
 380.133789062 492.12890625 334.17578125 473.091796875 334.171875 473.091796875 c 0
 334.16796875 473.091796875 288.209960938 492.12890625 288.20703125 492.131835938 c 0
 288.204101562 492.134765625 269.16796875 538.091796875 269.16796875 538.095703125 c 0
 269.16796875 538.100585938 288.204101562 584.057617188 288.20703125 584.060546875 c 0
 288.209960938 584.063476562 334.16796875 603.099609375 334.171875 603.099609375 c 0
 334.17578125 603.099609375 380.133789062 584.063476562 380.13671875 584.060546875 c 0
 380.139648438 584.057617188 399.17578125 538.100585938 399.17578125 538.095703125 c 0
373.907226562 140.005859375 m 0
 373.907226562 140.001953125 354.87109375 94.0439453125 354.868164062 94.041015625 c 0
 354.865234375 94.0380859375 308.908203125 75.001953125 308.903320312 75.001953125 c 0
 308.899414062 75.001953125 262.942382812 94.0380859375 262.939453125 94.041015625 c 0
 262.935546875 94.0439453125 243.899414062 140.001953125 243.899414062 140.005859375 c 0
 243.899414062 140.009765625 262.935546875 185.967773438 262.939453125 185.970703125 c 0
 262.942382812 185.973632812 308.899414062 205.009765625 308.903320312 205.009765625 c 0
 308.908203125 205.009765625 354.865234375 185.973632812 354.868164062 185.970703125 c 0
 354.87109375 185.967773438 373.907226562 140.009765625 373.907226562 140.005859375 c 0
329.3828125 513.19921875 m 0
 308.391601562 513.697265625 303.853515625 529.124023438 304.18359375 538.806640625 c 0
 305.810546875 586.443359375 267.700195312 625.198242188 223.967773438 622.448242188 c 0
 138.208007812 617.053710938 117.31640625 491.452148438 101.479492188 387.755859375 c 0
 66.3779296875 157.90625 116.18359375 3.3056640625 221.942382812 24.318359375 c 0
 265.127929688 32.8984375 297.984375 81.873046875 280.1015625 133.01171875 c 0
 275.065429688 147.413085938 286.741210938 160.6640625 300.870117188 164.094726562 c 0
 315.630859375 167.6796875 332.669921875 161.401367188 337.705078125 147 c 0
 362.181640625 77.0048828125 321.506835938 -7.30078125 235.858398438 -24.318359375 c 0
 41.1552734375 -63.001953125 12.2783203125 199.712890625 41.9599609375 394.068359375 c 0
 57.2646484375 494.283203125 79.9873046875 663.533203125 219.452148438 672.305664062 c 0
 300.220703125 677.385742188 366.780273438 614.120117188 364.16015625 537.384765625 c 0
 363.594726562 520.829101562 343.389648438 512.8671875 329.3828125 513.19921875 c 0
EndSplineSet
AlternateSubs2: "Randomize subtable" C.1 C.2 C.3 C.4 C.5 C.6 C.7 C.8 C.9
EndChar

StartChar: D
Encoding: 68 68 35
Width: 451
VWidth: 0
Flags: HW
LayerCount: 2
Fore
SplineSet
172.359375 -167.109375 m 0
 172.359375 -167.114257812 153.322265625 -213.071289062 153.319335938 -213.07421875 c 0
 153.31640625 -213.077148438 107.359375 -232.11328125 107.35546875 -232.11328125 c 0
 107.350585938 -232.11328125 61.3935546875 -213.077148438 61.390625 -213.07421875 c 0
 61.3876953125 -213.071289062 42.3505859375 -167.114257812 42.3505859375 -167.109375 c 0
 42.3505859375 -167.10546875 61.3876953125 -121.1484375 61.390625 -121.145507812 c 0
 61.3935546875 -121.142578125 107.350585938 -102.10546875 107.35546875 -102.10546875 c 0
 107.359375 -102.10546875 153.31640625 -121.142578125 153.319335938 -121.145507812 c 0
 153.322265625 -121.1484375 172.359375 -167.10546875 172.359375 -167.109375 c 0
160.0078125 733.3203125 m 0
 160.0078125 733.315429688 140.971679688 687.358398438 140.96875 687.35546875 c 0
 140.965820312 687.352539062 95.0078125 668.31640625 95.00390625 668.31640625 c 0
 95 668.31640625 49.0419921875 687.352539062 49.0390625 687.35546875 c 0
 49.0361328125 687.358398438 30 733.315429688 30 733.3203125 c 0
 30 733.32421875 49.0361328125 779.28125 49.0390625 779.284179688 c 0
 49.0419921875 779.288085938 95 798.32421875 95.00390625 798.32421875 c 0
 95.0078125 798.32421875 140.965820312 779.288085938 140.96875 779.284179688 c 0
 140.971679688 779.28125 160.0078125 733.32421875 160.0078125 733.3203125 c 0
86.7568359375 -185.28515625 m 0
 71.40234375 -173.202148438 77.2587890625 -157.255859375 85.54296875 -149.9453125 c 0
 285.124023438 26.1728515625 361.610351562 264.439453125 358.819335938 467.944335938 c 0
 356.845703125 611.76953125 235.44921875 720.70703125 98.197265625 708.461914062 c 0
 80.2998046875 706.865234375 66.8974609375 717.247070312 65.30078125 729.67578125 c 0
 63.9296875 740.349609375 71.37109375 756.354492188 91.810546875 758.177734375 c 0
 264.856445312 773.616210938 416.439453125 641.709960938 418.815429688 468.516601562 c 0
 422.201171875 221.624023438 318.811523438 -16.923828125 129.166015625 -184.274414062 c 0
 120.880859375 -191.584960938 102.111328125 -197.369140625 86.7568359375 -185.28515625 c 0
107.697265625 -192.107421875 m 0
 87.330078125 -192.301757812 77.494140625 -177.450195312 77.3564453125 -167.395507812 c 0
 65.005859375 733.034179688 l 0
 64.7734375 750.006835938 82.595703125 758.203125 94.6611328125 758.318359375 c 0
 106.7265625 758.432617188 124.76953125 750.578125 125.001953125 733.60546875 c 0
 137.352539062 -166.82421875 l 0
 137.490234375 -176.87890625 128.064453125 -191.9140625 107.697265625 -192.107421875 c 0
EndSplineSet
AlternateSubs2: "Randomize subtable" D.1 D.2 D.3 D.4 D.5 D.6 D.7 D.8 D.9
EndChar

StartChar: E
Encoding: 69 69 36
Width: 358
VWidth: 0
Flags: HW
LayerCount: 2
Fore
SplineSet
317.200195312 694.858398438 m 0
 317.200195312 694.854492188 298.1640625 648.897460938 298.16015625 648.893554688 c 0
 298.157226562 648.890625 252.200195312 629.854492188 252.196289062 629.854492188 c 0
 252.19140625 629.854492188 206.234375 648.890625 206.231445312 648.893554688 c 0
 206.228515625 648.897460938 187.192382812 694.854492188 187.192382812 694.858398438 c 0
 187.192382812 694.86328125 206.228515625 740.8203125 206.231445312 740.823242188 c 0
 206.234375 740.826171875 252.19140625 759.862304688 252.196289062 759.862304688 c 0
 252.200195312 759.862304688 298.157226562 740.826171875 298.16015625 740.823242188 c 0
 298.1640625 740.8203125 317.200195312 694.86328125 317.200195312 694.858398438 c 0
326.587890625 10.0986328125 m 0
 326.587890625 10.0947265625 307.551757812 -35.8623046875 307.548828125 -35.8662109375 c 0
 307.545898438 -35.869140625 261.588867188 -54.9052734375 261.583984375 -54.9052734375 c 0
 261.580078125 -54.9052734375 215.623046875 -35.869140625 215.620117188 -35.8662109375 c 0
 215.616210938 -35.8623046875 196.580078125 10.0947265625 196.580078125 10.0986328125 c 0
 196.580078125 10.103515625 215.616210938 56.060546875 215.620117188 56.0634765625 c 0
 215.623046875 56.06640625 261.580078125 75.1025390625 261.583984375 75.1025390625 c 0
 261.588867188 75.1025390625 307.545898438 56.06640625 307.548828125 56.0634765625 c 0
 307.551757812 56.060546875 326.587890625 10.103515625 326.587890625 10.0986328125 c 0
290.514648438 16.8388671875 m 0
 294.55859375 1.8173828125 282.787109375 -11.55859375 268.151367188 -14.294921875 c 0
 81.9375 -49.109375 l 0
 64.3740234375 -52.392578125 48.0107421875 -41.869140625 45.6728515625 -28.2578125 c 0
 45.5087890625 -27.3037109375 45.3935546875 -26.33203125 45.373046875 -25.0458984375 c 0
 33.2392578125 740.006835938 l 0
 33.0205078125 753.755859375 47.2333984375 766.262695312 65.1943359375 765.284179688 c 0
 67.7587890625 765.143554688 69.708984375 764.80078125 71.560546875 764.35546875 c 0
 260.520507812 718.876953125 l 0
 280.44921875 714.081054688 284.041992188 696.647460938 280.611328125 686.748046875 c 0
 276.44921875 674.73828125 261.165039062 666.678710938 243.872070312 670.840820312 c 0
 93.7685546875 706.966796875 l 1
 104.87890625 6.4228515625 l 1
 255.016601562 34.4921875 l 0
 266.790039062 36.693359375 285.891601562 34.0107421875 290.514648438 16.8388671875 c 0
161.0078125 400.548828125 m 0
 161.0078125 400.543945312 141.971679688 354.586914062 141.96875 354.583984375 c 0
 141.965820312 354.581054688 96.0078125 335.544921875 96.00390625 335.544921875 c 0
 96 335.544921875 50.0419921875 354.581054688 50.0390625 354.583984375 c 0
 50.0361328125 354.586914062 31 400.543945312 31 400.548828125 c 0
 31 400.552734375 50.0361328125 446.509765625 50.0390625 446.512695312 c 0
 50.0419921875 446.516601562 96 465.552734375 96.00390625 465.552734375 c 0
 96.0078125 465.552734375 141.965820312 446.516601562 141.96875 446.512695312 c 0
 141.971679688 446.509765625 161.0078125 400.552734375 161.0078125 400.548828125 c 0
316.741210938 449.451171875 m 0
 316.741210938 449.446289062 297.705078125 403.489257812 297.702148438 403.486328125 c 0
 297.69921875 403.483398438 251.741210938 384.447265625 251.737304688 384.447265625 c 0
 251.733398438 384.447265625 205.775390625 403.483398438 205.772460938 403.486328125 c 0
 205.76953125 403.489257812 186.733398438 449.446289062 186.733398438 449.451171875 c 0
 186.733398438 449.455078125 205.76953125 495.412109375 205.772460938 495.415039062 c 0
 205.775390625 495.41796875 251.733398438 514.455078125 251.737304688 514.455078125 c 0
 251.741210938 514.455078125 297.69921875 495.41796875 297.702148438 495.415039062 c 0
 297.705078125 495.412109375 316.741210938 449.455078125 316.741210938 449.451171875 c 0
68.1953125 391.1484375 m 0
 60.7880859375 407.529296875 74.732421875 420.584960938 85.42578125 423.943359375 c 0
 241.158203125 472.845703125 l 0
 260.571289062 478.94140625 275.516601562 467.76171875 279.545898438 458.8515625 c 0
 283.08984375 451.013671875 283.1328125 432.59375 262.315429688 426.056640625 c 0
 106.583007812 377.154296875 l 0
 97.2939453125 374.237304688 76.0390625 373.80078125 68.1953125 391.1484375 c 0
EndSplineSet
AlternateSubs2: "Randomize subtable" E.1 E.2 E.3 E.4 E.5 E.6 E.7 E.8 E.9
EndChar

StartChar: F
Encoding: 70 70 37
Width: 390
VWidth: 0
Flags: HW
LayerCount: 2
Fore
SplineSet
167.782226562 -55.5234375 m 0
 167.782226562 -55.5283203125 148.74609375 -101.485351562 148.743164062 -101.48828125 c 0
 148.740234375 -101.491210938 102.783203125 -120.52734375 102.778320312 -120.52734375 c 0
 102.774414062 -120.52734375 56.8173828125 -101.491210938 56.8134765625 -101.48828125 c 0
 56.810546875 -101.485351562 37.7744140625 -55.5283203125 37.7744140625 -55.5234375 c 0
 37.7744140625 -55.51953125 56.810546875 -9.5625 56.8134765625 -9.5595703125 c 0
 56.8173828125 -9.556640625 102.774414062 9.48046875 102.778320312 9.48046875 c 0
 102.783203125 9.48046875 148.740234375 -9.556640625 148.743164062 -9.5595703125 c 0
 148.74609375 -9.5625 167.782226562 -55.51953125 167.782226562 -55.5234375 c 0
359.17578125 861.232421875 m 0
 359.17578125 861.227539062 340.138671875 815.270507812 340.135742188 815.267578125 c 0
 340.1328125 815.264648438 294.17578125 796.228515625 294.171875 796.228515625 c 0
 294.166992188 796.228515625 248.209960938 815.264648438 248.20703125 815.267578125 c 0
 248.204101562 815.270507812 229.166992188 861.227539062 229.166992188 861.232421875 c 0
 229.166992188 861.236328125 248.204101562 907.193359375 248.20703125 907.196289062 c 0
 248.209960938 907.19921875 294.166992188 926.236328125 294.171875 926.236328125 c 0
 294.17578125 926.236328125 340.1328125 907.19921875 340.135742188 907.196289062 c 0
 340.138671875 907.193359375 359.17578125 861.236328125 359.17578125 861.232421875 c 0
102.647460938 -80.5234375 m 0
 82.279296875 -80.4501953125 72.7265625 -65.470703125 72.7783203125 -55.4150390625 c 0
 77.2060546875 793.44921875 l 0
 77.275390625 806.701171875 89.0634765625 814.0234375 95.2216796875 816.259765625 c 0
 282.186523438 884.150390625 l 0
 301.546875 891.180664062 316.853515625 880.436523438 321.672851562 871.21875 c 0
 326.493164062 862.000976562 325.515625 845.34375 306.155273438 838.313476562 c 0
 137.12109375 776.93359375 l 1
 132.778320312 -55.6328125 l 0
 132.725585938 -65.6875 123.016601562 -80.59765625 102.647460938 -80.5234375 c 0
160.0078125 313.162109375 m 0
 160.0078125 313.158203125 140.971679688 267.201171875 140.96875 267.198242188 c 0
 140.965820312 267.1953125 95.0078125 248.158203125 95.00390625 248.158203125 c 0
 95 248.158203125 49.0419921875 267.1953125 49.0390625 267.198242188 c 0
 49.0361328125 267.201171875 30 313.158203125 30 313.162109375 c 0
 30 313.166992188 49.0361328125 359.124023438 49.0390625 359.126953125 c 0
 49.0419921875 359.129882812 95 378.166015625 95.00390625 378.166015625 c 0
 95.0078125 378.166015625 140.965820312 359.129882812 140.96875 359.126953125 c 0
 140.971679688 359.124023438 160.0078125 313.166992188 160.0078125 313.162109375 c 0
355.751953125 483.522460938 m 0
 355.751953125 483.518554688 336.715820312 437.561523438 336.712890625 437.55859375 c 0
 336.708984375 437.5546875 290.751953125 418.518554688 290.748046875 418.518554688 c 0
 290.743164062 418.518554688 244.786132812 437.5546875 244.783203125 437.55859375 c 0
 244.780273438 437.561523438 225.744140625 483.518554688 225.744140625 483.522460938 c 0
 225.744140625 483.52734375 244.780273438 529.484375 244.783203125 529.487304688 c 0
 244.786132812 529.490234375 290.743164062 548.526367188 290.748046875 548.526367188 c 0
 290.751953125 548.526367188 336.708984375 529.490234375 336.712890625 529.487304688 c 0
 336.715820312 529.484375 355.751953125 483.52734375 355.751953125 483.522460938 c 0
74.3896484375 294.999023438 m 0
 59.046875 307.091796875 64.9169921875 323.03515625 73.2080078125 330.340820312 c 0
 175.64453125 420.600585938 l 1
 269.221679688 500.935546875 l 0
 283.931640625 513.563476562 302.985351562 508.46484375 311.643554688 501.4609375 c 0
 320.301757812 494.45703125 326.983398438 478.73828125 312.274414062 466.110351562 c 0
 218.96875 386.0078125 l 1
 116.799804688 295.984375 l 0
 108.508789062 288.678710938 89.7333984375 282.907226562 74.3896484375 294.999023438 c 0
EndSplineSet
AlternateSubs2: "Randomize subtable" F.1 F.2 F.3 F.4 F.5 F.6 F.7 F.8 F.9
EndChar

StartChar: G
Encoding: 71 71 38
Width: 399
VWidth: 0
Flags: HW
LayerCount: 2
Fore
SplineSet
368.279296875 520.120117188 m 0
 368.279296875 520.116210938 349.243164062 474.158203125 349.240234375 474.155273438 c 0
 349.237304688 474.15234375 303.280273438 455.116210938 303.275390625 455.116210938 c 0
 303.271484375 455.116210938 257.314453125 474.15234375 257.311523438 474.155273438 c 0
 257.30859375 474.158203125 238.271484375 520.116210938 238.271484375 520.120117188 c 0
 238.271484375 520.124023438 257.30859375 566.08203125 257.311523438 566.084960938 c 0
 257.314453125 566.087890625 303.271484375 585.124023438 303.275390625 585.124023438 c 0
 303.280273438 585.124023438 349.237304688 566.087890625 349.240234375 566.084960938 c 0
 349.243164062 566.08203125 368.279296875 520.124023438 368.279296875 520.120117188 c 0
289.1328125 498.072265625 m 0
 270.5078125 506.368164062 271.129882812 523.037109375 276.818359375 531.905273438 c 0
 311.267578125 585.612304688 276.908203125 653.514648438 221.490234375 660.40625 c 0
 132.19921875 671.509765625 100.833007812 564.072265625 93.0224609375 345.784179688 c 0
 85.30859375 130.168945312 116.301757812 -7.697265625 214.705078125 10.3837890625 c 0
 291.0625 24.4130859375 l 0
 308.640625 27.6435546875 323.2734375 18.783203125 326.502929688 6.576171875 c 0
 329.165039062 -3.4853515625 324.60546875 -20.6240234375 303.982421875 -24.4130859375 c 0
 227.625 -38.443359375 l 0
 40.1279296875 -72.8935546875 27.169921875 182.934570312 33.0498046875 347.274414062 c 0
 37.6572265625 476.05859375 44.97265625 732.909179688 230.345703125 709.858398438 c 0
 328.083007812 697.705078125 383.293945312 591.837890625 329.732421875 508.334960938 c 0
 324.044921875 499.466796875 307.7578125 489.776367188 289.1328125 498.072265625 c 0
235.08984375 277.682617188 m 0
 235.08984375 277.678710938 216.052734375 231.721679688 216.049804688 231.71875 c 0
 216.046875 231.715820312 170.08984375 212.678710938 170.084960938 212.678710938 c 0
 170.081054688 212.678710938 124.124023438 231.715820312 124.12109375 231.71875 c 0
 124.118164062 231.721679688 105.081054688 277.678710938 105.081054688 277.682617188 c 0
 105.081054688 277.6875 124.118164062 323.64453125 124.12109375 323.647460938 c 0
 124.124023438 323.650390625 170.081054688 342.6875 170.084960938 342.6875 c 0
 170.08984375 342.6875 216.046875 323.650390625 216.049804688 323.647460938 c 0
 216.052734375 323.64453125 235.08984375 277.6875 235.08984375 277.682617188 c 0
362.526367188 0 m 0
 362.526367188 -0.00390625 343.490234375 -45.9619140625 343.487304688 -45.96484375 c 0
 343.484375 -45.9677734375 297.52734375 -65.00390625 297.522460938 -65.00390625 c 0
 297.518554688 -65.00390625 251.561523438 -45.9677734375 251.55859375 -45.96484375 c 0
 251.5546875 -45.9619140625 232.518554688 -0.00390625 232.518554688 0 c 0
 232.518554688 0.00390625 251.5546875 45.9619140625 251.55859375 45.96484375 c 0
 251.561523438 45.9677734375 297.518554688 65.00390625 297.522460938 65.00390625 c 0
 297.52734375 65.00390625 343.484375 45.9677734375 343.487304688 45.96484375 c 0
 343.490234375 45.9619140625 362.526367188 0.00390625 362.526367188 0 c 0
140.870117188 283.493164062 m 0
 144.66015625 300.330078125 163.205078125 304.194335938 175.6171875 302.25390625 c 0
 301.331054688 282.598632812 l 0
 311.462890625 281.013671875 325.700195312 272.893554688 325.798828125 258.166015625 c 0
 327.522460938 0.1396484375 l 0
 327.635742188 -16.833984375 309.755859375 -24.943359375 297.689453125 -25 c 0
 285.623046875 -25.0556640625 267.63671875 -17.1123046875 267.522460938 -0.1396484375 c 0
 265.9375 237.259765625 l 1
 164.552734375 253.111328125 l 0
 149.809570312 255.416992188 137.5390625 268.701171875 140.870117188 283.493164062 c 0
EndSplineSet
AlternateSubs2: "Randomize subtable" G.1 G.2 G.3 G.4 G.5 G.6 G.7 G.8 G.9
EndChar

StartChar: H
Encoding: 72 72 39
Width: 485
VWidth: 0
Flags: HW
LayerCount: 2
Fore
SplineSet
202.791992188 13.7548828125 m 0
 202.791992188 13.7509765625 183.754882812 -32.2060546875 183.751953125 -32.208984375 c 0
 183.749023438 -32.212890625 137.791992188 -51.2490234375 137.788085938 -51.2490234375 c 0
 137.783203125 -51.2490234375 91.826171875 -32.212890625 91.8232421875 -32.208984375 c 0
 91.8203125 -32.2060546875 72.783203125 13.7509765625 72.783203125 13.7548828125 c 0
 72.783203125 13.759765625 91.8203125 59.716796875 91.8232421875 59.7197265625 c 0
 91.826171875 59.72265625 137.783203125 78.7587890625 137.788085938 78.7587890625 c 0
 137.791992188 78.7587890625 183.749023438 59.72265625 183.751953125 59.7197265625 c 0
 183.754882812 59.716796875 202.791992188 13.759765625 202.791992188 13.7548828125 c 0
160.0078125 689.265625 m 0
 160.0078125 689.26171875 140.971679688 643.3046875 140.96875 643.30078125 c 0
 140.965820312 643.297851562 95.0078125 624.26171875 95.00390625 624.26171875 c 0
 95 624.26171875 49.0419921875 643.297851562 49.0390625 643.30078125 c 0
 49.0361328125 643.3046875 30 689.26171875 30 689.265625 c 0
 30 689.270507812 49.0361328125 735.227539062 49.0390625 735.23046875 c 0
 49.0419921875 735.233398438 95 754.26953125 95.00390625 754.26953125 c 0
 95.0078125 754.26953125 140.965820312 735.233398438 140.96875 735.23046875 c 0
 140.971679688 735.227539062 160.0078125 689.270507812 160.0078125 689.265625 c 0
453.930664062 10.3369140625 m 0
 453.930664062 10.3330078125 434.893554688 -35.625 434.890625 -35.6279296875 c 0
 434.887695312 -35.630859375 388.930664062 -54.6669921875 388.926757812 -54.6669921875 c 0
 388.921875 -54.6669921875 342.96484375 -35.630859375 342.961914062 -35.6279296875 c 0
 342.958984375 -35.625 323.922851562 10.3330078125 323.922851562 10.3369140625 c 0
 323.922851562 10.3408203125 342.958984375 56.298828125 342.961914062 56.3017578125 c 0
 342.96484375 56.3046875 388.921875 75.3408203125 388.926757812 75.3408203125 c 0
 388.930664062 75.3408203125 434.887695312 56.3046875 434.890625 56.3017578125 c 0
 434.893554688 56.298828125 453.930664062 10.3408203125 453.930664062 10.3369140625 c 0
369.6171875 712.76171875 m 0
 369.6171875 712.7578125 350.581054688 666.80078125 350.578125 666.797851562 c 0
 350.57421875 666.794921875 304.6171875 647.7578125 304.61328125 647.7578125 c 0
 304.608398438 647.7578125 258.651367188 666.794921875 258.6484375 666.797851562 c 0
 258.645507812 666.80078125 239.609375 712.7578125 239.609375 712.76171875 c 0
 239.609375 712.766601562 258.645507812 758.723632812 258.6484375 758.7265625 c 0
 258.651367188 758.729492188 304.608398438 777.766601562 304.61328125 777.766601562 c 0
 304.6171875 777.766601562 350.57421875 758.729492188 350.578125 758.7265625 c 0
 350.581054688 758.723632812 369.6171875 712.766601562 369.6171875 712.76171875 c 0
137.799804688 -11.279296875 m 0
 122.680664062 -11.9443359375 108.772460938 -2.4638671875 107.829101562 12.4375 c 0
 65.0458984375 687.948242188 l 0
 64.248046875 700.547851562 76.4892578125 713.486328125 94.7802734375 714.290039062 c 0
 115.376953125 715.196289062 124.330078125 700.569335938 124.961914062 690.583007812 c 0
 167.745117188 15.072265625 l 0
 168.83203125 -2.0908203125 150.1015625 -10.73828125 137.799804688 -11.279296875 c 0
390.4921875 -14.67578125 m 0
 371.744140625 -16.455078125 360.654296875 -3.724609375 359.119140625 7.5087890625 c 0
 342.520507812 128.984375 326.584960938 250.5390625 307.115234375 412.745117188 c 0
 296.39453125 502.059570312 286.337890625 591.451171875 274.711914062 710.73828125 c 0
 273.254882812 725.689453125 286.159179688 736.595703125 301.110351562 737.607421875 c 0
 314.143554688 738.489257812 332.875976562 731.60546875 334.514648438 714.786132812 c 0
 344.03515625 617.103515625 354.72265625 518.4765625 366.81640625 417.721679688 c 0
 382.868164062 283.9921875 400.056640625 149.849609375 418.734375 13.1650390625 c 0
 420.70703125 -1.2724609375 406.051757812 -13.19921875 390.4921875 -14.67578125 c 0
174.999023438 399.073242188 m 0
 174.999023438 399.068359375 155.962890625 353.111328125 155.959960938 353.108398438 c 0
 155.95703125 353.10546875 109.999023438 334.069335938 109.995117188 334.069335938 c 0
 109.991210938 334.069335938 64.033203125 353.10546875 64.0302734375 353.108398438 c 0
 64.02734375 353.111328125 44.9912109375 399.068359375 44.9912109375 399.073242188 c 0
 44.9912109375 399.077148438 64.02734375 445.034179688 64.0302734375 445.038085938 c 0
 64.033203125 445.041015625 109.991210938 464.077148438 109.995117188 464.077148438 c 0
 109.999023438 464.077148438 155.95703125 445.041015625 155.959960938 445.038085938 c 0
 155.962890625 445.034179688 174.999023438 399.077148438 174.999023438 399.073242188 c 0
80.2880859375 395.1484375 m 0
 78.8388671875 409.280273438 90.8486328125 422.80078125 107.44140625 423.982421875 c 0
 334.411132812 440.142578125 l 0
 350.770507812 441.307617188 365.280273438 432.735351562 366.698242188 418.908203125 c 0
 367.833007812 407.836914062 360.190429688 391.795898438 339.51953125 390.32421875 c 0
 112.548828125 374.1640625 l 0
 99.6689453125 373.247070312 82.0537109375 377.922851562 80.2880859375 395.1484375 c 0
EndSplineSet
AlternateSubs2: "Randomize subtable" H.1 H.2 H.3 H.4 H.5 H.6 H.7 H.8 H.9
EndChar

StartChar: I
Encoding: 73 73 40
Width: 229
VWidth: 0
Flags: HW
LayerCount: 2
Fore
SplineSet
198.381835938 -92.5224609375 m 0
 198.381835938 -92.52734375 179.345703125 -138.484375 179.342773438 -138.487304688 c 0
 179.33984375 -138.490234375 133.381835938 -157.526367188 133.377929688 -157.526367188 c 0
 133.374023438 -157.526367188 87.416015625 -138.490234375 87.4130859375 -138.487304688 c 0
 87.41015625 -138.484375 68.3740234375 -92.52734375 68.3740234375 -92.5224609375 c 0
 68.3740234375 -92.5185546875 87.41015625 -46.5615234375 87.4130859375 -46.5576171875 c 0
 87.416015625 -46.5546875 133.374023438 -27.5185546875 133.377929688 -27.5185546875 c 0
 133.381835938 -27.5185546875 179.33984375 -46.5546875 179.342773438 -46.5576171875 c 0
 179.345703125 -46.5615234375 198.381835938 -92.5185546875 198.381835938 -92.5224609375 c 0
160.0078125 700.040039062 m 0
 160.0078125 700.036132812 140.971679688 654.079101562 140.96875 654.076171875 c 0
 140.965820312 654.073242188 95.0078125 635.036132812 95.00390625 635.036132812 c 0
 95 635.036132812 49.0419921875 654.073242188 49.0390625 654.076171875 c 0
 49.0361328125 654.079101562 30 700.036132812 30 700.040039062 c 0
 30 700.044921875 49.0361328125 746.001953125 49.0390625 746.004882812 c 0
 49.0419921875 746.0078125 95 765.044921875 95.00390625 765.044921875 c 0
 95.0078125 765.044921875 140.965820312 746.0078125 140.96875 746.004882812 c 0
 140.971679688 746.001953125 160.0078125 700.044921875 160.0078125 700.040039062 c 0
139.380859375 -117.04296875 m 0
 121.1875 -119.420898438 106.063476562 -108.745117188 103.739257812 -96.396484375 c 0
 81.8212890625 20.048828125 69.9267578125 131.158203125 65.0283203125 232.338867188 c 0
 61.384765625 307.565429688 68.4375 395.27734375 65.0283203125 465.685546875 c 0
 60.90625 550.802734375 61.5283203125 628.78125 65.0283203125 701.048828125 c 0
 65.849609375 718.008789062 83.033203125 725.462890625 95.8388671875 725.032226562 c 0
 107.970703125 724.624023438 125.80078125 715.9921875 124.979492188 699.032226562 c 0
 121.311523438 623.290039062 121.153320312 546.700195312 124.979492188 467.701171875 c 0
 128.7734375 389.34765625 121.221679688 311.954101562 124.979492188 234.35546875 c 0
 130.173828125 127.05859375 142.555664062 20.0458984375 163.014648438 -88.6484375 c 0
 164.913085938 -98.736328125 159.874023438 -114.364257812 139.380859375 -117.04296875 c 0
EndSplineSet
AlternateSubs2: "Randomize subtable" I.1 I.2 I.3 I.4 I.5 I.6 I.7 I.8 I.9
EndChar

StartChar: J
Encoding: 74 74 41
Width: 329
VWidth: 0
Flags: HW
LayerCount: 2
Fore
SplineSet
248.548828125 730.467773438 m 0
 248.548828125 730.463867188 229.51171875 684.506835938 229.508789062 684.50390625 c 0
 229.505859375 684.500976562 183.548828125 665.463867188 183.544921875 665.463867188 c 0
 183.540039062 665.463867188 137.583007812 684.500976562 137.580078125 684.50390625 c 0
 137.577148438 684.506835938 118.541015625 730.463867188 118.541015625 730.467773438 c 0
 118.541015625 730.47265625 137.577148438 776.4296875 137.580078125 776.432617188 c 0
 137.583007812 776.435546875 183.540039062 795.47265625 183.544921875 795.47265625 c 0
 183.548828125 795.47265625 229.505859375 776.435546875 229.508789062 776.432617188 c 0
 229.51171875 776.4296875 248.548828125 730.47265625 248.548828125 730.467773438 c 0
160.0078125 51.87890625 m 0
 160.0078125 51.8740234375 140.971679688 5.9169921875 140.96875 5.9140625 c 0
 140.965820312 5.9111328125 95.0078125 -13.125 95.00390625 -13.125 c 0
 95 -13.125 49.0419921875 5.9111328125 49.0390625 5.9140625 c 0
 49.0361328125 5.9169921875 30 51.8740234375 30 51.87890625 c 0
 30 51.8828125 49.0361328125 97.83984375 49.0390625 97.84375 c 0
 49.0419921875 97.8466796875 95 116.8828125 95.00390625 116.8828125 c 0
 95.0078125 116.8828125 140.965820312 97.8466796875 140.96875 97.84375 c 0
 140.971679688 97.83984375 160.0078125 51.8828125 160.0078125 51.87890625 c 0
179.272460938 755.241210938 m 0
 197.619140625 756.706054688 211.977539062 745.294921875 213.408203125 732.852539062 c 0
 298.235351562 -5.0634765625 l 0
 300.380859375 -23.7275390625 279.040039062 -32.2998046875 268.880859375 -32.443359375 c 0
 264.135742188 -32.5107421875 260.268554688 -31.7001953125 256.9765625 -30.5732421875 c 0
 83.6083984375 28.7529296875 l 0
 64.072265625 35.4375 62.6689453125 52.0732421875 67.2529296875 61.375 c 0
 71.8359375 70.6767578125 86.8642578125 81.6904296875 106.399414062 75.0048828125 c 0
 233.766601562 31.419921875 l 1
 153.681640625 728.083984375 l 0
 152.510742188 738.272460938 158.53125 753.5859375 179.272460938 755.241210938 c 0
EndSplineSet
AlternateSubs2: "Randomize subtable" J.1 J.2 J.3 J.4 J.5 J.6 J.7 J.8 J.9
EndChar

StartChar: K
Encoding: 75 75 42
Width: 542
VWidth: 0
Flags: HW
LayerCount: 2
Fore
SplineSet
235.212890625 44.9599609375 m 0
 235.212890625 44.9560546875 216.176757812 -1.001953125 216.173828125 -1.0048828125 c 0
 216.170898438 -1.0078125 170.212890625 -20.0439453125 170.208984375 -20.0439453125 c 0
 170.205078125 -20.0439453125 124.248046875 -1.0078125 124.244140625 -1.0048828125 c 0
 124.241210938 -1.001953125 105.205078125 44.9560546875 105.205078125 44.9599609375 c 0
 105.205078125 44.9638671875 124.241210938 90.921875 124.244140625 90.9248046875 c 0
 124.248046875 90.927734375 170.205078125 109.963867188 170.208984375 109.963867188 c 0
 170.212890625 109.963867188 216.170898438 90.927734375 216.173828125 90.9248046875 c 0
 216.176757812 90.921875 235.212890625 44.9638671875 235.212890625 44.9599609375 c 0
160.0078125 699.926757812 m 0
 160.0078125 699.922851562 140.971679688 653.96484375 140.96875 653.961914062 c 0
 140.965820312 653.958984375 95.0078125 634.922851562 95.00390625 634.922851562 c 0
 95 634.922851562 49.0419921875 653.958984375 49.0390625 653.961914062 c 0
 49.0361328125 653.96484375 30 699.922851562 30 699.926757812 c 0
 30 699.930664062 49.0361328125 745.888671875 49.0390625 745.891601562 c 0
 49.0419921875 745.89453125 95 764.930664062 95.00390625 764.930664062 c 0
 95.0078125 764.930664062 140.965820312 745.89453125 140.96875 745.891601562 c 0
 140.971679688 745.888671875 160.0078125 699.930664062 160.0078125 699.926757812 c 0
174.477539062 20.1865234375 m 0
 156.131835938 18.7236328125 141.774414062 30.1357421875 140.345703125 42.5791015625 c 0
 65.140625 697.544921875 l 0
 63.42578125 712.4765625 75.861328125 723.513671875 90.79296875 724.705078125 c 0
 103.298828125 725.702148438 122.8828125 719.591796875 124.8671875 702.307617188 c 0
 200.072265625 47.3408203125 l 0
 201.2421875 37.1533203125 195.21875 21.83984375 174.477539062 20.1865234375 c 0
219.73828125 252.012695312 m 0
 219.73828125 252.008789062 200.702148438 206.051757812 200.69921875 206.047851562 c 0
 200.696289062 206.044921875 154.73828125 187.008789062 154.734375 187.008789062 c 0
 154.73046875 187.008789062 108.7734375 206.044921875 108.76953125 206.047851562 c 0
 108.766601562 206.051757812 89.73046875 252.008789062 89.73046875 252.012695312 c 0
 89.73046875 252.017578125 108.766601562 297.974609375 108.76953125 297.977539062 c 0
 108.7734375 297.98046875 154.73046875 317.016601562 154.734375 317.016601562 c 0
 154.73828125 317.016601562 200.696289062 297.98046875 200.69921875 297.977539062 c 0
 200.702148438 297.974609375 219.73828125 252.017578125 219.73828125 252.012695312 c 0
498.422851562 718.361328125 m 0
 498.422851562 718.357421875 479.385742188 672.399414062 479.3828125 672.396484375 c 0
 479.379882812 672.393554688 433.422851562 653.357421875 433.418945312 653.357421875 c 0
 433.4140625 653.357421875 387.45703125 672.393554688 387.454101562 672.396484375 c 0
 387.451171875 672.399414062 368.4140625 718.357421875 368.4140625 718.361328125 c 0
 368.4140625 718.365234375 387.451171875 764.323242188 387.454101562 764.326171875 c 0
 387.45703125 764.329101562 433.4140625 783.365234375 433.418945312 783.365234375 c 0
 433.422851562 783.365234375 479.379882812 764.329101562 479.3828125 764.326171875 c 0
 479.385742188 764.323242188 498.422851562 718.365234375 498.422851562 718.361328125 c 0
141.361328125 229.634765625 m 0
 122.45703125 237.479492188 122.500976562 254.15625 127.879882812 263.157226562 c 0
 406.564453125 729.505859375 l 0
 415.978515625 745.258789062 435.991210938 745.22265625 446.791992188 740.740234375 c 0
 457.59375 736.2578125 469.6875 722.970703125 460.2734375 707.216796875 c 0
 181.588867188 240.869140625 l 0
 176.209960938 231.868164062 160.265625 221.7890625 141.361328125 229.634765625 c 0
510.8984375 119.921875 m 0
 510.8984375 119.916992188 491.862304688 73.9599609375 491.858398438 73.95703125 c 0
 491.85546875 73.9541015625 445.8984375 54.9169921875 445.89453125 54.9169921875 c 0
 445.889648438 54.9169921875 399.932617188 73.9541015625 399.9296875 73.95703125 c 0
 399.926757812 73.9599609375 380.890625 119.916992188 380.890625 119.921875 c 0
 380.890625 119.92578125 399.926757812 165.8828125 399.9296875 165.885742188 c 0
 399.932617188 165.888671875 445.889648438 184.92578125 445.89453125 184.92578125 c 0
 445.8984375 184.92578125 491.85546875 165.888671875 491.858398438 165.885742188 c 0
 491.862304688 165.8828125 510.8984375 119.92578125 510.8984375 119.921875 c 0
245.15234375 432.404296875 m 0
 262.998046875 434.362304688 275.413085938 423.1171875 277.37109375 410.723632812 c 0
 290.970703125 324.6640625 324.111328125 251.764648438 363.899414062 194.061523438 c 0
 382.5 167.084960938 412.869140625 147.349609375 448.434570312 144.83203125 c 0
 464.688476562 143.680664062 477.247070312 132.127929688 475.850585938 118.427734375 c 0
 474.564453125 105.81640625 461.290039062 93.7412109375 443.354492188 95.01171875 c 0
 390.012695312 98.7880859375 341.7265625 125.859375 311.875976562 169.150390625 c 0
 253.807617188 253.366210938 228.360351562 337.905273438 217.884765625 404.196289062 c 0
 215.595703125 418.680664062 229.8203125 430.721679688 245.15234375 432.404296875 c 0
EndSplineSet
AlternateSubs2: "Randomize subtable" K.1 K.2 K.3 K.4 K.5 K.6 K.7 K.8 K.9
EndChar

StartChar: L
Encoding: 76 76 43
Width: 450
VWidth: 0
Flags: HW
LayerCount: 2
Fore
SplineSet
160.0078125 723.119140625 m 0
 160.0078125 723.115234375 140.971679688 677.158203125 140.96875 677.155273438 c 0
 140.965820312 677.15234375 95.0078125 658.115234375 95.00390625 658.115234375 c 0
 95 658.115234375 49.0419921875 677.15234375 49.0390625 677.155273438 c 0
 49.0361328125 677.158203125 30 723.115234375 30 723.119140625 c 0
 30 723.124023438 49.0361328125 769.081054688 49.0390625 769.083984375 c 0
 49.0419921875 769.086914062 95 788.124023438 95.00390625 788.124023438 c 0
 95.0078125 788.124023438 140.965820312 769.086914062 140.96875 769.083984375 c 0
 140.971679688 769.081054688 160.0078125 723.124023438 160.0078125 723.119140625 c 0
418.518554688 66.2060546875 m 0
 418.518554688 66.201171875 399.482421875 20.244140625 399.478515625 20.2412109375 c 0
 399.475585938 20.23828125 353.518554688 1.2021484375 353.514648438 1.2021484375 c 0
 353.509765625 1.2021484375 307.552734375 20.23828125 307.549804688 20.2412109375 c 0
 307.546875 20.244140625 288.510742188 66.201171875 288.510742188 66.2060546875 c 0
 288.510742188 66.2099609375 307.546875 112.166992188 307.549804688 112.170898438 c 0
 307.552734375 112.173828125 353.509765625 131.209960938 353.514648438 131.209960938 c 0
 353.518554688 131.209960938 399.475585938 112.173828125 399.478515625 112.170898438 c 0
 399.482421875 112.166992188 418.518554688 66.2099609375 418.518554688 66.2060546875 c 0
93.5400390625 748.095703125 m 0
 113.458007812 748.549804688 124.634765625 734.713867188 124.993164062 723.802734375 c 0
 144.681640625 123.747070312 l 1
 358.958984375 90.7900390625 l 0
 373.6171875 88.5361328125 386.435546875 77.1103515625 383.236328125 62.6669921875 c 0
 380.423828125 49.9658203125 365.216796875 38.9833984375 348.068359375 41.62109375 c 0
 109.911132812 78.2509765625 l 0
 98.369140625 80.0263671875 85.80859375 88.708984375 85.3671875 102.15234375 c 0
 65.0146484375 722.436523438 l 0
 64.697265625 732.120117188 72.5478515625 747.6171875 93.5400390625 748.095703125 c 0
EndSplineSet
AlternateSubs2: "Randomize subtable" L.1 L.2 L.3 L.4 L.5 L.6 L.7 L.8 L.9
EndChar

StartChar: M
Encoding: 77 77 44
Width: 485
VWidth: 0
Flags: HW
LayerCount: 2
Fore
SplineSet
160.0078125 -60.4169921875 m 0
 160.0078125 -60.4208984375 140.971679688 -106.377929688 140.96875 -106.381835938 c 0
 140.965820312 -106.384765625 95.0078125 -125.420898438 95.00390625 -125.420898438 c 0
 95 -125.420898438 49.0419921875 -106.384765625 49.0390625 -106.381835938 c 0
 49.0361328125 -106.377929688 30 -60.4208984375 30 -60.4169921875 c 0
 30 -60.412109375 49.0361328125 -14.455078125 49.0390625 -14.4521484375 c 0
 49.0419921875 -14.44921875 95 4.5869140625 95.00390625 4.5869140625 c 0
 95.0078125 4.5869140625 140.965820312 -14.44921875 140.96875 -14.4521484375 c 0
 140.971679688 -14.455078125 160.0078125 -60.412109375 160.0078125 -60.4169921875 c 0
453.818359375 51.3017578125 m 0
 453.818359375 51.2978515625 434.782226562 5.3408203125 434.779296875 5.337890625 c 0
 434.776367188 5.333984375 388.819335938 -13.7021484375 388.814453125 -13.7021484375 c 0
 388.810546875 -13.7021484375 342.853515625 5.333984375 342.849609375 5.337890625 c 0
 342.846679688 5.3408203125 323.810546875 51.2978515625 323.810546875 51.3017578125 c 0
 323.810546875 51.306640625 342.846679688 97.263671875 342.849609375 97.2666015625 c 0
 342.853515625 97.26953125 388.810546875 116.305664062 388.814453125 116.305664062 c 0
 388.819335938 116.305664062 434.776367188 97.26953125 434.779296875 97.2666015625 c 0
 434.782226562 97.263671875 453.818359375 51.306640625 453.818359375 51.3017578125 c 0
95.0029296875 -85.416015625 m 0
 74.634765625 -85.416015625 65.00390625 -70.470703125 65.00390625 -60.416015625 c 0
 65.0283203125 704.475585938 l 0
 65.0283203125 718.225585938 79.4384765625 730.575195312 97.3828125 729.397460938 c 0
 114.564453125 728.270507812 122.513671875 716.801757812 124.34375 709.784179688 c 0
 261.185546875 185.063476562 l 1
 390.286132812 845.317382812 l 0
 393.180664062 860.122070312 410.2734375 868.998046875 427.028320312 865.580078125 c 0
 437.008789062 863.543945312 450.45703125 855.1484375 449.879882812 840.477539062 c 0
 418.798828125 50.482421875 l 0
 418.110351562 32.9921875 399.12109375 26.0068359375 387.423828125 26.326171875 c 0
 374.98828125 26.666015625 358.163085938 35.15625 358.830078125 52.12109375 c 0
 374.662109375 454.509765625 l 1
 295.010742188 47.154296875 l 0
 292.409179688 33.849609375 279.215820312 28.533203125 274.052734375 27.2373046875 c 0
 262.495117188 24.3369140625 240.864257812 27.5439453125 236.0859375 45.8662109375 c 0
 125.020507812 471.74609375 l 1
 125.00390625 -60.4169921875 l 0
 125.00390625 -70.47265625 115.372070312 -85.4169921875 95.0029296875 -85.416015625 c 0
EndSplineSet
AlternateSubs2: "Randomize subtable" M.1 M.2 M.3 M.4 M.5 M.6 M.7 M.8 M.9
EndChar

StartChar: N
Encoding: 78 78 45
Width: 466
VWidth: 0
Flags: HW
LayerCount: 2
Fore
SplineSet
160.0078125 70.7958984375 m 0
 160.0078125 70.7919921875 140.971679688 24.833984375 140.96875 24.8310546875 c 0
 140.965820312 24.828125 95.0078125 5.7919921875 95.00390625 5.7919921875 c 0
 95 5.7919921875 49.0419921875 24.828125 49.0390625 24.8310546875 c 0
 49.0361328125 24.833984375 30 70.7919921875 30 70.7958984375 c 0
 30 70.7998046875 49.0361328125 116.7578125 49.0390625 116.760742188 c 0
 49.0419921875 116.763671875 95 135.799804688 95.00390625 135.799804688 c 0
 95.0078125 135.799804688 140.965820312 116.763671875 140.96875 116.760742188 c 0
 140.971679688 116.7578125 160.0078125 70.7998046875 160.0078125 70.7958984375 c 0
435.16015625 681.922851562 m 0
 435.16015625 681.918945312 416.124023438 635.961914062 416.12109375 635.958007812 c 0
 416.118164062 635.955078125 370.161132812 616.918945312 370.15625 616.918945312 c 0
 370.15234375 616.918945312 324.1953125 635.955078125 324.192382812 635.958007812 c 0
 324.189453125 635.961914062 305.15234375 681.918945312 305.15234375 681.922851562 c 0
 305.15234375 681.927734375 324.189453125 727.884765625 324.192382812 727.887695312 c 0
 324.1953125 727.890625 370.15234375 746.926757812 370.15625 746.926757812 c 0
 370.161132812 746.926757812 416.118164062 727.890625 416.12109375 727.887695312 c 0
 416.124023438 727.884765625 435.16015625 681.927734375 435.16015625 681.922851562 c 0
94.2099609375 45.802734375 m 0
 73.2119140625 46.08203125 64.81640625 61.1962890625 65.0078125 71.1943359375 c 0
 76.4892578125 670.778320312 l 0
 76.751953125 684.52734375 91.396484375 696.68359375 109.31640625 695.268554688 c 0
 129.461914062 693.676757812 134.885742188 678.502929688 135.249023438 677.481445312 c 0
 325.321289062 142.880859375 l 1
 340.165039062 682.49609375 l 0
 340.646484375 699.991210938 359.400390625 707.134765625 371.065429688 706.912109375 c 0
 383.12890625 706.681640625 400.616210938 698.319335938 400.149414062 681.349609375 c 0
 380.918945312 -17.7158203125 l 0
 380.899414062 -18.4072265625 380.533203125 -34.44921875 361.6796875 -40.4814453125 c 0
 344.875 -45.857421875 327.276367188 -38.626953125 322.163085938 -24.244140625 c 0
 133.356445312 506.795898438 l 1
 125 70.396484375 l 0
 124.807617188 60.3427734375 114.68359375 45.53125 94.2099609375 45.802734375 c 0
EndSplineSet
AlternateSubs2: "Randomize subtable" N.1 N.2 N.3 N.4 N.5 N.6 N.7 N.8 N.9
EndChar

StartChar: O
Encoding: 79 79 46
Width: 412
VWidth: 0
Flags: HW
LayerCount: 2
Fore
SplineSet
277.169921875 642.19140625 m 0
 277.169921875 642.186523438 258.133789062 596.229492188 258.130859375 596.2265625 c 0
 258.127929688 596.223632812 212.170898438 577.1875 212.166015625 577.1875 c 0
 212.162109375 577.1875 166.205078125 596.223632812 166.201171875 596.2265625 c 0
 166.198242188 596.229492188 147.162109375 642.186523438 147.162109375 642.19140625 c 0
 147.162109375 642.1953125 166.198242188 688.15234375 166.201171875 688.15625 c 0
 166.205078125 688.159179688 212.162109375 707.1953125 212.166015625 707.1953125 c 0
 212.170898438 707.1953125 258.127929688 688.159179688 258.130859375 688.15625 c 0
 258.133789062 688.15234375 277.169921875 642.1953125 277.169921875 642.19140625 c 0
211.828125 667.189453125 m 1
 227.865234375 667.33984375 236.260742188 657.737304688 238.741210938 653.791015625 c 0
 293.724609375 566.313476562 336.091796875 470.463867188 363.657226562 367.4765625 c 0
 414.901367188 176.026367188 334.54296875 17.083984375 194.258789062 20.81640625 c 0
 91.4375 23.552734375 -26.86328125 95.568359375 65.0498046875 482.157226562 c 0
 90.4091796875 588.821289062 123.896484375 667.19140625 212.166015625 667.19140625 c 0
 228.204101562 667.19140625 236.46875 657.510742188 238.896484375 653.541015625 c 0
 239.350585938 652.798828125 211.828125 667.189453125 211.828125 667.189453125 c 1
195.602539062 614.321289062 m 1
 159.08984375 600.240234375 139.09765625 536.341796875 123.905273438 472.440429688 c 0
 68.09765625 237.7109375 78.5380859375 73.9208984375 196.172851562 70.791015625 c 0
 295.30078125 68.1533203125 344.787109375 208.303710938 305.096679688 356.591796875 c 0
 278.75 455.026367188 240.182617188 540.282226562 195.602539062 614.321289062 c 1
EndSplineSet
AlternateSubs2: "Randomize subtable" O.1 O.2 O.3 O.4 O.5 O.6 O.7 O.8 O.9
EndChar

StartChar: P
Encoding: 80 80 47
Width: 463
VWidth: 0
Flags: HW
LayerCount: 2
Fore
SplineSet
160.0078125 128.666992188 m 0
 160.0078125 128.663085938 140.971679688 82.7060546875 140.96875 82.703125 c 0
 140.965820312 82.69921875 95.0078125 63.6630859375 95.00390625 63.6630859375 c 0
 95 63.6630859375 49.0419921875 82.69921875 49.0390625 82.703125 c 0
 49.0361328125 82.7060546875 30 128.663085938 30 128.666992188 c 0
 30 128.671875 49.0361328125 174.62890625 49.0390625 174.631835938 c 0
 49.0419921875 174.634765625 95 193.670898438 95.00390625 193.670898438 c 0
 95.0078125 193.670898438 140.965820312 174.634765625 140.96875 174.631835938 c 0
 140.971679688 174.62890625 160.0078125 128.671875 160.0078125 128.666992188 c 0
186.697265625 337.853515625 m 0
 186.697265625 337.848632812 167.66015625 291.891601562 167.657226562 291.888671875 c 0
 167.654296875 291.885742188 121.697265625 272.849609375 121.693359375 272.849609375 c 0
 121.688476562 272.849609375 75.7314453125 291.885742188 75.728515625 291.888671875 c 0
 75.7255859375 291.891601562 56.6884765625 337.848632812 56.6884765625 337.853515625 c 0
 56.6884765625 337.857421875 75.7255859375 383.814453125 75.728515625 383.817382812 c 0
 75.7314453125 383.821289062 121.688476562 402.857421875 121.693359375 402.857421875 c 0
 121.697265625 402.857421875 167.654296875 383.821289062 167.657226562 383.817382812 c 0
 167.66015625 383.814453125 186.697265625 337.857421875 186.697265625 337.853515625 c 0
91.23046875 103.829101562 m 0
 70.9150390625 105.05078125 64.1591796875 119.814453125 65.08203125 130.466796875 c 0
 121.395507812 780.7265625 l 0
 122.864257812 797.693359375 141.358398438 805.471679688 155.817382812 803.643554688 c 0
 159.544921875 803.172851562 163.631835938 802.10546875 167.828125 799.799804688 c 0
 418.5390625 662.081054688 l 0
 433.567382812 653.826171875 435.864257812 636.848632812 425.796875 625.955078125 c 0
 145.4609375 322.599609375 l 0
 144.315429688 321.360351562 142.815429688 320.091796875 141.575195312 319.114257812 c 1
 124.92578125 126.868164062 l 0
 123.780273438 113.640625 108.786132812 102.7734375 91.23046875 103.829101562 c 0
149.336914062 408.7421875 m 1
 358.559570312 635.143554688 l 1
 177.5546875 734.572265625 l 1
 149.336914062 408.7421875 l 1
EndSplineSet
AlternateSubs2: "Randomize subtable" P.1 P.2 P.3 P.4 P.5 P.6 P.7 P.8 P.9
EndChar

StartChar: Q
Encoding: 81 81 48
Width: 438
VWidth: 0
Flags: HW
LayerCount: 2
Fore
SplineSet
268.23828125 841.331054688 m 0
 268.23828125 841.326171875 249.202148438 795.369140625 249.19921875 795.366210938 c 0
 249.196289062 795.36328125 203.239257812 776.327148438 203.234375 776.327148438 c 0
 203.23046875 776.327148438 157.2734375 795.36328125 157.270507812 795.366210938 c 0
 157.267578125 795.369140625 138.23046875 841.326171875 138.23046875 841.331054688 c 0
 138.23046875 841.334960938 157.267578125 887.291992188 157.270507812 887.294921875 c 0
 157.2734375 887.298828125 203.23046875 906.334960938 203.234375 906.334960938 c 0
 203.239257812 906.334960938 249.196289062 887.298828125 249.19921875 887.294921875 c 0
 249.202148438 887.291992188 268.23828125 841.334960938 268.23828125 841.331054688 c 0
175.236328125 850.310546875 m 1
 180.765625 862.28125 196.24609375 865.721679688 202.006835938 866.477539062 c 0
 214.111328125 868.065429688 229.642578125 862.294921875 232.869140625 845.219726562 c 0
 241.4296875 801.744140625 l 0
 268.935546875 667.493164062 305.87890625 535.0625 353.375976562 403.069335938 c 0
 441.875976562 157.122070312 365.693359375 -53.7822265625 194.32421875 -37.0478515625 c 0
 73.744140625 -25.2724609375 19.3779296875 101.806640625 33.06640625 264.947265625 c 0
 48.5029296875 448.918945312 83.583984375 633.48046875 156.70703125 808.096679688 c 0
 175.21875 850.272460938 l 0
 179.53515625 859.662109375 191.569335938 871.82421875 211.291015625 865.530273438 c 0
 226.868164062 860.557617188 232.030273438 849.614257812 232.861328125 845.259765625 c 0
 175.236328125 850.310546875 l 1
193.448242188 741.252929688 m 1
 133.3203125 579.752929688 105.309570312 409.115234375 92.919921875 261.459960938 c 0
 82.283203125 134.68359375 116.444335938 20.900390625 201.30859375 12.6123046875 c 0
 312.501953125 1.75390625 374.422851562 170.5 295.903320312 388.708007812 c 0
 245.98828125 527.423828125 213.381835938 652.234375 193.448242188 741.252929688 c 1
253.982421875 109.569335938 m 0
 253.982421875 109.565429688 234.946289062 63.607421875 234.943359375 63.6044921875 c 0
 234.939453125 63.6015625 188.982421875 44.5654296875 188.978515625 44.5654296875 c 0
 188.973632812 44.5654296875 143.016601562 63.6015625 143.013671875 63.6044921875 c 0
 143.010742188 63.607421875 123.974609375 109.565429688 123.974609375 109.569335938 c 0
 123.974609375 109.573242188 143.010742188 155.53125 143.013671875 155.534179688 c 0
 143.016601562 155.537109375 188.973632812 174.573242188 188.978515625 174.573242188 c 0
 188.982421875 174.573242188 234.939453125 155.537109375 234.943359375 155.534179688 c 0
 234.946289062 155.53125 253.982421875 109.573242188 253.982421875 109.569335938 c 0
406.7578125 -101.552734375 m 0
 406.7578125 -101.556640625 387.720703125 -147.514648438 387.717773438 -147.517578125 c 0
 387.71484375 -147.520507812 341.7578125 -166.556640625 341.75390625 -166.556640625 c 0
 341.749023438 -166.556640625 295.791992188 -147.520507812 295.7890625 -147.517578125 c 0
 295.786132812 -147.514648438 276.749023438 -101.556640625 276.749023438 -101.552734375 c 0
 276.749023438 -101.548828125 295.786132812 -55.5908203125 295.7890625 -55.587890625 c 0
 295.791992188 -55.5849609375 341.749023438 -36.548828125 341.75390625 -36.548828125 c 0
 341.7578125 -36.548828125 387.71484375 -55.5849609375 387.717773438 -55.587890625 c 0
 387.720703125 -55.5908203125 406.7578125 -101.548828125 406.7578125 -101.552734375 c 0
176.727539062 132.389648438 m 0
 196.005859375 139.576171875 211.435546875 128.956054688 216.362304688 119.77734375 c 0
 278.052734375 4.8525390625 l 1
 365.182617188 -85.9384765625 l 0
 378.372070312 -99.6826171875 369.913085938 -114.796875 360.490234375 -121.076171875 c 0
 351.06640625 -127.356445312 331.513671875 -130.91015625 318.323242188 -117.166015625 c 0
 228.801757812 -23.8828125 l 0
 227.85546875 -22.896484375 226.284179688 -21.1552734375 224.846679688 -18.4775390625 c 0
 161.592773438 99.361328125 l 0
 156.665039062 108.540039062 157.450195312 125.204101562 176.727539062 132.389648438 c 0
EndSplineSet
AlternateSubs2: "Randomize subtable" Q.1 Q.2 Q.3 Q.4 Q.5 Q.6 Q.7 Q.8 Q.9
EndChar

StartChar: R
Encoding: 82 82 49
Width: 527
VWidth: 0
Flags: HW
LayerCount: 2
Fore
SplineSet
203.91796875 -3.2841796875 m 0
 203.91796875 -3.2880859375 184.881835938 -49.24609375 184.87890625 -49.2490234375 c 0
 184.875 -49.251953125 138.91796875 -68.2880859375 138.9140625 -68.2880859375 c 0
 138.909179688 -68.2880859375 92.9521484375 -49.251953125 92.94921875 -49.2490234375 c 0
 92.9462890625 -49.24609375 73.91015625 -3.2880859375 73.91015625 -3.2841796875 c 0
 73.91015625 -3.2802734375 92.9462890625 42.677734375 92.94921875 42.6806640625 c 0
 92.9521484375 42.68359375 138.909179688 61.7197265625 138.9140625 61.7197265625 c 0
 138.91796875 61.7197265625 184.875 42.68359375 184.87890625 42.6806640625 c 0
 184.881835938 42.677734375 203.91796875 -3.2802734375 203.91796875 -3.2841796875 c 0
160.0078125 744.567382812 m 0
 160.0078125 744.5625 140.971679688 698.60546875 140.96875 698.602539062 c 0
 140.965820312 698.599609375 95.0078125 679.563476562 95.00390625 679.563476562 c 0
 95 679.563476562 49.04296875 698.599609375 49.0390625 698.602539062 c 0
 49.0361328125 698.60546875 30 744.5625 30 744.567382812 c 0
 30 744.571289062 49.0361328125 790.528320312 49.0390625 790.532226562 c 0
 49.04296875 790.53515625 95 809.571289062 95.00390625 809.571289062 c 0
 95.0078125 809.571289062 140.965820312 790.53515625 140.96875 790.532226562 c 0
 140.971679688 790.528320312 160.0078125 744.571289062 160.0078125 744.567382812 c 0
473.584960938 11.0537109375 m 0
 473.584960938 11.0498046875 454.548828125 -34.908203125 454.545898438 -34.9111328125 c 0
 454.54296875 -34.9140625 408.5859375 -53.9501953125 408.581054688 -53.9501953125 c 0
 408.577148438 -53.9501953125 362.620117188 -34.9140625 362.6171875 -34.9111328125 c 0
 362.61328125 -34.908203125 343.577148438 11.0498046875 343.577148438 11.0537109375 c 0
 343.577148438 11.0576171875 362.61328125 57.015625 362.6171875 57.0185546875 c 0
 362.620117188 57.021484375 408.577148438 76.0576171875 408.581054688 76.0576171875 c 0
 408.5859375 76.0576171875 454.54296875 57.021484375 454.545898438 57.0185546875 c 0
 454.548828125 57.015625 473.584960938 11.0576171875 473.584960938 11.0537109375 c 0
140.6015625 -28.2451171875 m 0
 120.181640625 -29.078125 109.540039062 -14.5498046875 108.950195312 -4.505859375 c 0
 65.0400390625 743.345703125 l 0
 64.541015625 751.836914062 69.5810546875 760.329101562 77.9814453125 765.153320312 c 0
 261.357421875 870.454101562 482.870117188 741.602539062 495.498046875 547.1640625 c 0
 513.100585938 276.16015625 207.748046875 275.985351562 207.715820312 275.989257812 c 1
 432.583984375 26.05078125 l 0
 445.252929688 11.9697265625 436.231445312 -2.9169921875 426.577148438 -8.9482421875 c 0
 416.922851562 -14.98046875 397.24609375 -18.0234375 384.578125 -3.9423828125 c 0
 153.936523438 252.412109375 l 1
 168.877929688 -2.0625 l 0
 169.469726562 -12.12890625 161.389648438 -27.3974609375 140.6015625 -28.2451171875 c 0
148.489257812 345.196289062 m 1
 282.1875 279.224609375 446.12109375 382.259765625 435.5859375 544.4609375 c 0
 425.208984375 704.236328125 261.866210938 797.227539062 125.819335938 731.288085938 c 1
 148.489257812 345.196289062 l 1
EndSplineSet
AlternateSubs2: "Randomize subtable" R.1 R.2 R.3 R.4 R.5 R.6 R.7 R.8 R.9
EndChar

StartChar: S
Encoding: 83 83 50
Width: 454
VWidth: 0
Flags: HW
LayerCount: 2
Fore
SplineSet
422.555664062 610.7109375 m 0
 422.555664062 610.70703125 403.51953125 564.75 403.516601562 564.747070312 c 0
 403.513671875 564.744140625 357.556640625 545.70703125 357.551757812 545.70703125 c 0
 357.547851562 545.70703125 311.590820312 564.744140625 311.587890625 564.747070312 c 0
 311.583984375 564.75 292.547851562 610.70703125 292.547851562 610.7109375 c 0
 292.547851562 610.715820312 311.583984375 656.672851562 311.587890625 656.67578125 c 0
 311.590820312 656.678710938 357.547851562 675.71484375 357.551757812 675.71484375 c 0
 357.556640625 675.71484375 403.513671875 656.678710938 403.516601562 656.67578125 c 0
 403.51953125 656.672851562 422.555664062 610.715820312 422.555664062 610.7109375 c 0
196.65625 135.721679688 m 0
 196.65625 135.717773438 177.620117188 89.7607421875 177.6171875 89.7578125 c 0
 177.614257812 89.7548828125 131.657226562 70.7177734375 131.65234375 70.7177734375 c 0
 131.6484375 70.7177734375 85.69140625 89.7548828125 85.6884765625 89.7578125 c 0
 85.685546875 89.7607421875 66.6484375 135.717773438 66.6484375 135.721679688 c 0
 66.6484375 135.7265625 85.685546875 181.68359375 85.6884765625 181.686523438 c 0
 85.69140625 181.689453125 131.6484375 200.725585938 131.65234375 200.725585938 c 0
 131.657226562 200.725585938 177.614257812 181.689453125 177.6171875 181.686523438 c 0
 177.620117188 181.68359375 196.65625 135.7265625 196.65625 135.721679688 c 0
378.095703125 592.493164062 m 0
 362.705078125 580.44140625 343.952148438 586.263671875 335.689453125 593.591796875 c 0
 223.098632812 693.4375 l 1
 108.247070312 733.827148438 36.30078125 563.1796875 143.461914062 500.32421875 c 0
 168.705078125 485.518554688 211.509765625 487.827148438 247.98828125 475.717773438 c 0
 330.330078125 448.3828125 389.659179688 360.508789062 376.974609375 246.581054688 c 0
 368.745117188 172.674804688 329.064453125 92.3466796875 249.372070312 40.3037109375 c 0
 235.395507812 31.17578125 219.331054688 34.8828125 210.602539062 41.546875 c 0
 111.387695312 117.288085938 l 0
 95.8154296875 129.17578125 101.380859375 145.1953125 109.53125 152.609375 c 0
 117.682617188 160.0234375 136.344726562 166.043945312 151.916992188 154.15625 c 0
 231.37109375 93.5009765625 l 1
 277.44921875 131.012695312 309.98828125 186.16015625 317.23046875 251.200195312 c 0
 326.43359375 333.846679688 289.274414062 408.190429688 225.783203125 429.267578125 c 0
 196.684570312 438.927734375 148.249023438 436.374023438 108.928710938 459.436523438 c 0
 -62.5078125 559.9921875 72.7138671875 809.08203125 253.868164062 736.703125 c 0
 257.775390625 735.142578125 260.53515625 733.25390625 262.760742188 731.280273438 c 0
 379.4140625 627.831054688 l 0
 387.676757812 620.502929688 393.485351562 604.543945312 378.095703125 592.493164062 c 0
EndSplineSet
AlternateSubs2: "Randomize subtable" S.1 S.2 S.3 S.4 S.5 S.6 S.7 S.8 S.9
EndChar

StartChar: T
Encoding: 84 84 51
Width: 495
VWidth: 0
Flags: HW
LayerCount: 2
Fore
SplineSet
160.0078125 682.944335938 m 0
 160.0078125 682.940429688 140.971679688 636.983398438 140.96875 636.98046875 c 0
 140.965820312 636.977539062 95.0078125 617.940429688 95.00390625 617.940429688 c 0
 95 617.940429688 49.0419921875 636.977539062 49.0390625 636.98046875 c 0
 49.0361328125 636.983398438 30 682.940429688 30 682.944335938 c 0
 30 682.94921875 49.0361328125 728.90625 49.0390625 728.909179688 c 0
 49.0419921875 728.912109375 95 747.94921875 95.00390625 747.94921875 c 0
 95.0078125 747.94921875 140.965820312 728.912109375 140.96875 728.909179688 c 0
 140.971679688 728.90625 160.0078125 682.94921875 160.0078125 682.944335938 c 0
464.465820312 729.26171875 m 0
 464.465820312 729.256835938 445.428710938 683.299804688 445.42578125 683.296875 c 0
 445.422851562 683.293945312 399.465820312 664.2578125 399.461914062 664.2578125 c 0
 399.45703125 664.2578125 353.5 683.293945312 353.497070312 683.296875 c 0
 353.494140625 683.299804688 334.45703125 729.256835938 334.45703125 729.26171875 c 0
 334.45703125 729.265625 353.494140625 775.22265625 353.497070312 775.225585938 c 0
 353.5 775.229492188 399.45703125 794.265625 399.461914062 794.265625 c 0
 399.465820312 794.265625 445.422851562 775.229492188 445.42578125 775.225585938 c 0
 445.428710938 775.22265625 464.465820312 729.265625 464.465820312 729.26171875 c 0
322.052734375 43.3349609375 m 0
 322.052734375 43.330078125 303.016601562 -2.626953125 303.012695312 -2.6298828125 c 0
 303.009765625 -2.6328125 257.052734375 -21.6689453125 257.048828125 -21.6689453125 c 0
 257.043945312 -21.6689453125 211.086914062 -2.6328125 211.083984375 -2.6298828125 c 0
 211.081054688 -2.626953125 192.044921875 43.330078125 192.044921875 43.3349609375 c 0
 192.044921875 43.3388671875 211.081054688 89.2958984375 211.083984375 89.298828125 c 0
 211.086914062 89.3017578125 257.043945312 108.338867188 257.048828125 108.338867188 c 0
 257.052734375 108.338867188 303.009765625 89.3017578125 303.012695312 89.298828125 c 0
 303.016601562 89.2958984375 322.052734375 43.3388671875 322.052734375 43.3349609375 c 0
65.8056640625 677.021484375 m 0
 62.4775390625 692.213867188 74.8603515625 705.29296875 89.6171875 707.538085938 c 0
 394.073242188 753.85546875 l 0
 411.78125 756.548828125 426.026367188 747.206054688 428.720703125 734.909179688 c 0
 430.958984375 724.689453125 425.995117188 707.884765625 404.849609375 704.66796875 c 0
 100.392578125 658.350585938 l 0
 88.4140625 656.528320312 69.666015625 659.399414062 65.8056640625 677.021484375 c 0
246.547851562 731.09765625 m 0
 267.022460938 731.30859375 277.08203125 716.465820312 277.231445312 706.412109375 c 0
 287.046875 43.6435546875 l 0
 287.297851562 26.6708984375 269.517578125 18.4609375 257.452148438 18.3369140625 c 0
 245.446289062 18.2138671875 227.310546875 25.52734375 227.05078125 43.0263671875 c 0
 217.235351562 705.794921875 l 0
 217.087890625 715.793945312 225.548828125 730.881835938 246.547851562 731.09765625 c 0
EndSplineSet
AlternateSubs2: "Randomize subtable" T.1 T.2 T.3 T.4 T.5 T.6 T.7 T.8 T.9
EndChar

StartChar: U
Encoding: 85 85 52
Width: 397
VWidth: 0
Flags: HW
LayerCount: 2
Fore
SplineSet
160.0078125 674.46875 m 0
 160.0078125 674.463867188 140.971679688 628.506835938 140.96875 628.50390625 c 0
 140.965820312 628.500976562 95.0078125 609.463867188 95.00390625 609.463867188 c 0
 95 609.463867188 49.0419921875 628.500976562 49.0390625 628.50390625 c 0
 49.0361328125 628.506835938 30 674.463867188 30 674.46875 c 0
 30 674.47265625 49.0361328125 720.4296875 49.0390625 720.432617188 c 0
 49.0419921875 720.435546875 95 739.47265625 95.00390625 739.47265625 c 0
 95.0078125 739.47265625 140.965820312 720.435546875 140.96875 720.432617188 c 0
 140.971679688 720.4296875 160.0078125 674.47265625 160.0078125 674.46875 c 0
366.32421875 552.810546875 m 0
 366.32421875 552.806640625 347.288085938 506.849609375 347.28515625 506.846679688 c 0
 347.282226562 506.842773438 301.32421875 487.806640625 301.3203125 487.806640625 c 0
 301.31640625 487.806640625 255.358398438 506.842773438 255.35546875 506.846679688 c 0
 255.352539062 506.849609375 236.31640625 552.806640625 236.31640625 552.810546875 c 0
 236.31640625 552.815429688 255.352539062 598.772460938 255.35546875 598.775390625 c 0
 255.358398438 598.778320312 301.31640625 617.814453125 301.3203125 617.814453125 c 0
 301.32421875 617.814453125 347.282226562 598.778320312 347.28515625 598.775390625 c 0
 347.288085938 598.772460938 366.32421875 552.815429688 366.32421875 552.810546875 c 0
94.9619140625 699.467773438 m 0
 115.331054688 699.4921875 124.987304688 684.55859375 125.00390625 674.502929688 c 0
 125.787109375 206.701171875 l 0
 125.930664062 120.756835938 188.198242188 63.0419921875 242.126953125 39.92578125 c 0
 251.060546875 36.0966796875 281.821289062 52.9013671875 280.532226562 114.206054688 c 0
 271.3125 552.961914062 l 1
 271.98828125 571.961914062 291.12890625 577.624023438 301.38671875 577.818359375 c 0
 313.008789062 578.0390625 330.834960938 570.875 331.3125 553.37890625 c 0
 331.3125 553.3671875 340.528320312 136.756835938 340.528320312 114.838867188 c 1
 342.03125 43.357421875 288.7890625 -36.302734375 214.681640625 -4.537109375 c 0
 126.829101562 33.12109375 65.9423828125 113.767578125 65.787109375 206.631835938 c 0
 65.00390625 674.43359375 l 0
 64.9873046875 684.48828125 74.59375 699.444335938 94.9619140625 699.467773438 c 0
EndSplineSet
AlternateSubs2: "Randomize subtable" U.1 U.2 U.3 U.4 U.5 U.6 U.7 U.8 U.9
EndChar

StartChar: V
Encoding: 86 86 53
Width: 390
VWidth: 0
Flags: HW
LayerCount: 2
Fore
SplineSet
160.0078125 646.349609375 m 0
 160.0078125 646.345703125 140.971679688 600.388671875 140.96875 600.384765625 c 0
 140.965820312 600.381835938 95.0078125 581.345703125 95.00390625 581.345703125 c 0
 95 581.345703125 49.0419921875 600.381835938 49.0390625 600.384765625 c 0
 49.0361328125 600.388671875 30 646.345703125 30 646.349609375 c 0
 30 646.354492188 49.0361328125 692.311523438 49.0390625 692.314453125 c 0
 49.0419921875 692.317382812 95 711.353515625 95.00390625 711.353515625 c 0
 95.0078125 711.353515625 140.965820312 692.317382812 140.96875 692.314453125 c 0
 140.971679688 692.311523438 160.0078125 646.354492188 160.0078125 646.349609375 c 0
359.19140625 800.377929688 m 0
 359.19140625 800.373046875 340.155273438 754.416015625 340.15234375 754.413085938 c 0
 340.149414062 754.41015625 294.192382812 735.373046875 294.1875 735.373046875 c 0
 294.18359375 735.373046875 248.2265625 754.41015625 248.22265625 754.413085938 c 0
 248.219726562 754.416015625 229.18359375 800.373046875 229.18359375 800.377929688 c 0
 229.18359375 800.381835938 248.219726562 846.338867188 248.22265625 846.341796875 c 0
 248.2265625 846.344726562 294.18359375 865.381835938 294.1875 865.381835938 c 0
 294.192382812 865.381835938 340.149414062 846.344726562 340.15234375 846.341796875 c 0
 340.155273438 846.338867188 359.19140625 800.381835938 359.19140625 800.377929688 c 0
91.9560546875 671.235351562 m 0
 109.7890625 673.270507812 122.69140625 662.125976562 124.7265625 649.741210938 c 0
 201.081054688 185.041015625 l 1
 264.296875 802.502929688 l 0
 266.04296875 819.551757812 285.349609375 826.096679688 298.013671875 825.196289062 c 0
 312.958984375 824.133789062 325.610351562 813.198242188 324.080078125 798.252929688 c 0
 237.8984375 -43.5244140625 l 0
 237.166992188 -50.6640625 231.19921875 -62.7734375 214.395507812 -65.8251953125 c 0
 201.434570312 -68.1796875 181.247070312 -62.8251953125 178.284179688 -44.7900390625 c 0
 65.28125 642.958984375 l 0
 62.9921875 656.890625 75.8916015625 669.40234375 91.9560546875 671.235351562 c 0
EndSplineSet
AlternateSubs2: "Randomize subtable" V.1 V.2 V.3 V.4 V.5 V.6 V.7 V.8 V.9
EndChar

StartChar: W
Encoding: 87 87 54
Width: 536
VWidth: 0
Flags: HW
LayerCount: 2
Fore
SplineSet
160.0078125 793.553710938 m 0
 160.0078125 793.549804688 140.971679688 747.591796875 140.96875 747.588867188 c 0
 140.965820312 747.5859375 95.0078125 728.549804688 95.00390625 728.549804688 c 0
 95 728.549804688 49.0419921875 747.5859375 49.0390625 747.588867188 c 0
 49.0361328125 747.591796875 30 793.549804688 30 793.553710938 c 0
 30 793.557617188 49.0361328125 839.515625 49.0390625 839.518554688 c 0
 49.0419921875 839.521484375 95 858.557617188 95.00390625 858.557617188 c 0
 95.0078125 858.557617188 140.965820312 839.521484375 140.96875 839.518554688 c 0
 140.971679688 839.515625 160.0078125 793.557617188 160.0078125 793.553710938 c 0
505.497070312 642.146484375 m 0
 505.497070312 642.141601562 486.4609375 596.184570312 486.458007812 596.181640625 c 0
 486.455078125 596.178710938 440.498046875 577.142578125 440.493164062 577.142578125 c 0
 440.489257812 577.142578125 394.532226562 596.178710938 394.529296875 596.181640625 c 0
 394.526367188 596.184570312 375.489257812 642.141601562 375.489257812 642.146484375 c 0
 375.489257812 642.150390625 394.526367188 688.107421875 394.529296875 688.110351562 c 0
 394.532226562 688.114257812 440.489257812 707.150390625 440.493164062 707.150390625 c 0
 440.498046875 707.150390625 486.455078125 688.114257812 486.458007812 688.110351562 c 0
 486.4609375 688.107421875 505.497070312 642.150390625 505.497070312 642.146484375 c 0
91.029296875 818.385742188 m 0
 108.041015625 819.357421875 123.799804688 809.045898438 124.93359375 795.263671875 c 0
 174.021484375 198.473632812 l 1
 225.081054688 503.245117188 l 0
 227.984375 520.576171875 247.309570312 526.766601562 261.259765625 524.200195312 c 0
 281.1171875 520.547851562 284.111328125 505.456054688 284.466796875 503.46484375 c 0
 340.64453125 188.649414062 l 1
 410.736328125 645.317382812 l 0
 413.344726562 662.309570312 433.134765625 668.133789062 445.788085938 666.78515625 c 0
 461.104492188 665.15234375 472.466796875 653.408203125 470.251953125 638.974609375 c 0
 372.637695312 2.98828125 l 0
 371.879882812 -1.9453125 366.743164062 -14.9169921875 349.607421875 -18.203125 c 0
 334.989257812 -21.005859375 316.174804688 -14.1552734375 313.206054688 2.4833984375 c 0
 255.729492188 324.57421875 l 1
 193.540039062 -46.634765625 l 0
 191.15234375 -60.8876953125 176.763671875 -66.8544921875 168.221679688 -67.908203125 c 0
 154.484375 -69.6025390625 135.346679688 -62.4921875 133.8984375 -44.8876953125 c 0
 65.07421875 791.844726562 l 0
 64.197265625 802.5 70.7080078125 817.224609375 91.029296875 818.385742188 c 0
EndSplineSet
AlternateSubs2: "Randomize subtable" W.1 W.2 W.3 W.4 W.5 W.6 W.7 W.8 W.9
EndChar

StartChar: X
Encoding: 88 88 55
Width: 470
VWidth: 0
Flags: HW
LayerCount: 2
Fore
SplineSet
160.0078125 719.09375 m 0
 160.0078125 719.08984375 140.971679688 673.131835938 140.96875 673.12890625 c 0
 140.965820312 673.125976562 95.0078125 654.08984375 95.00390625 654.08984375 c 0
 95 654.08984375 49.0419921875 673.125976562 49.0390625 673.12890625 c 0
 49.0361328125 673.131835938 30 719.08984375 30 719.09375 c 0
 30 719.09765625 49.0361328125 765.055664062 49.0390625 765.05859375 c 0
 49.0419921875 765.061523438 95 784.09765625 95.00390625 784.09765625 c 0
 95.0078125 784.09765625 140.965820312 765.061523438 140.96875 765.05859375 c 0
 140.971679688 765.055664062 160.0078125 719.09765625 160.0078125 719.09375 c 0
438.936523438 -24.2958984375 m 0
 438.936523438 -24.30078125 419.900390625 -70.2578125 419.897460938 -70.2607421875 c 0
 419.89453125 -70.263671875 373.9375 -89.2998046875 373.932617188 -89.2998046875 c 0
 373.928710938 -89.2998046875 327.971679688 -70.263671875 327.967773438 -70.2607421875 c 0
 327.96484375 -70.2578125 308.928710938 -24.30078125 308.928710938 -24.2958984375 c 0
 308.928710938 -24.2919921875 327.96484375 21.6650390625 327.967773438 21.6689453125 c 0
 327.971679688 21.671875 373.928710938 40.7080078125 373.932617188 40.7080078125 c 0
 373.9375 40.7080078125 419.89453125 21.671875 419.897460938 21.6689453125 c 0
 419.900390625 21.6650390625 438.936523438 -24.2919921875 438.936523438 -24.2958984375 c 0
84.57421875 742.5703125 m 0
 102.203125 747.163085938 119.272460938 738.186523438 123.63671875 726.5546875 c 0
 402.565429688 -16.8349609375 l 0
 407.9375 -31.1513671875 398.051757812 -44.205078125 384.09375 -47.841796875 c 0
 372.3046875 -50.9140625 351.594726562 -48.533203125 345.299804688 -31.7568359375 c 0
 66.37109375 711.6328125 l 0
 62.76171875 721.251953125 64.4423828125 737.32421875 84.57421875 742.5703125 c 0
174.58203125 35.2451171875 m 0
 174.58203125 35.2412109375 155.545898438 -10.7158203125 155.54296875 -10.71875 c 0
 155.540039062 -10.72265625 109.58203125 -29.7587890625 109.578125 -29.7587890625 c 0
 109.57421875 -29.7587890625 63.6162109375 -10.72265625 63.61328125 -10.71875 c 0
 63.6103515625 -10.7158203125 44.57421875 35.2412109375 44.57421875 35.2451171875 c 0
 44.57421875 35.25 63.6103515625 81.20703125 63.61328125 81.2099609375 c 0
 63.6162109375 81.212890625 109.57421875 100.249023438 109.578125 100.249023438 c 0
 109.58203125 100.249023438 155.540039062 81.212890625 155.54296875 81.2099609375 c 0
 155.545898438 81.20703125 174.58203125 35.25 174.58203125 35.2451171875 c 0
336.609375 673.430664062 m 0
 336.609375 673.42578125 317.573242188 627.46875 317.569335938 627.465820312 c 0
 317.56640625 627.462890625 271.609375 608.426757812 271.60546875 608.426757812 c 0
 271.600585938 608.426757812 225.643554688 627.462890625 225.640625 627.465820312 c 0
 225.637695312 627.46875 206.6015625 673.42578125 206.6015625 673.430664062 c 0
 206.6015625 673.434570312 225.637695312 719.391601562 225.640625 719.39453125 c 0
 225.643554688 719.397460938 271.600585938 738.434570312 271.60546875 738.434570312 c 0
 271.609375 738.434570312 317.56640625 719.397460938 317.569335938 719.39453125 c 0
 317.573242188 719.391601562 336.609375 673.434570312 336.609375 673.430664062 c 0
101.842773438 11.0556640625 m 0
 81.181640625 14.69921875 77.73046875 30.5830078125 80.2275390625 40.419921875 c 0
 242.254882812 678.604492188 l 0
 246.626953125 695.822265625 267.153320312 699.768554688 279.25 697.635742188 c 0
 293.92578125 695.047851562 304.681640625 682.930664062 300.956054688 668.254882812 c 0
 138.928710938 30.0712890625 l 0
 135.823242188 17.841796875 119.916015625 7.869140625 101.842773438 11.0556640625 c 0
EndSplineSet
AlternateSubs2: "Randomize subtable" X.1 X.2 X.3 X.4 X.5 X.6 X.7 X.8 X.9
EndChar

StartChar: Y
Encoding: 89 89 56
Width: 468
VWidth: 0
Flags: HW
LayerCount: 2
Fore
SplineSet
160.0078125 812.358398438 m 0
 160.0078125 812.353515625 140.971679688 766.396484375 140.96875 766.393554688 c 0
 140.965820312 766.390625 95.0078125 747.354492188 95.00390625 747.354492188 c 0
 95 747.354492188 49.0419921875 766.390625 49.0390625 766.393554688 c 0
 49.0361328125 766.396484375 30 812.353515625 30 812.358398438 c 0
 30 812.362304688 49.0361328125 858.319335938 49.0390625 858.322265625 c 0
 49.0419921875 858.326171875 95 877.362304688 95.00390625 877.362304688 c 0
 95.0078125 877.362304688 140.965820312 858.326171875 140.96875 858.322265625 c 0
 140.971679688 858.319335938 160.0078125 812.362304688 160.0078125 812.358398438 c 0
436.751953125 610.249023438 m 0
 436.751953125 610.245117188 417.715820312 564.287109375 417.712890625 564.284179688 c 0
 417.709960938 564.28125 371.752929688 545.245117188 371.748046875 545.245117188 c 0
 371.744140625 545.245117188 325.787109375 564.28125 325.784179688 564.284179688 c 0
 325.780273438 564.287109375 306.744140625 610.245117188 306.744140625 610.249023438 c 0
 306.744140625 610.252929688 325.780273438 656.2109375 325.784179688 656.213867188 c 0
 325.787109375 656.216796875 371.744140625 675.252929688 371.748046875 675.252929688 c 0
 371.752929688 675.252929688 417.709960938 656.216796875 417.712890625 656.213867188 c 0
 417.715820312 656.2109375 436.751953125 610.252929688 436.751953125 610.249023438 c 0
259.2734375 -18.955078125 m 0
 259.2734375 -18.9599609375 240.237304688 -64.9169921875 240.234375 -64.919921875 c 0
 240.231445312 -64.9228515625 194.274414062 -83.958984375 194.26953125 -83.958984375 c 0
 194.265625 -83.958984375 148.30859375 -64.9228515625 148.305664062 -64.919921875 c 0
 148.301757812 -64.9169921875 129.265625 -18.9599609375 129.265625 -18.955078125 c 0
 129.265625 -18.951171875 148.301757812 27.005859375 148.305664062 27.0087890625 c 0
 148.30859375 27.01171875 194.265625 46.048828125 194.26953125 46.048828125 c 0
 194.274414062 46.048828125 240.231445312 27.01171875 240.234375 27.0087890625 c 0
 240.237304688 27.005859375 259.2734375 -18.951171875 259.2734375 -18.955078125 c 0
90.6787109375 837.120117188 m 0
 108.969726562 838.680664062 123.321289062 827.338867188 124.848632812 814.904296875 c 0
 199.3515625 208.43359375 l 1
 224.14453125 -16.6708984375 l 0
 225.790039062 -31.6083984375 213.45703125 -42.59375 198.51953125 -43.7353515625 c 0
 186.29296875 -44.6708984375 166.291992188 -38.455078125 164.396484375 -21.2412109375 c 0
 139.630859375 203.602539062 l 1
 65.1611328125 809.8125 l 0
 63.8935546875 820.125976562 70.228515625 835.375 90.6787109375 837.120117188 c 0
383.293945312 633.323242188 m 0
 402.786132812 626.55078125 404.08203125 609.909179688 399.438476562 600.627929688 c 0
 197.180664062 196.397460938 l 0
 189.052734375 180.153320312 169.083007812 179.07421875 157.946289062 182.943359375 c 0
 146.80859375 186.813476562 133.674804688 199.395507812 141.801757812 215.638671875 c 0
 344.059570312 619.870117188 l 0
 348.703125 629.151367188 363.801757812 640.096679688 383.293945312 633.323242188 c 0
EndSplineSet
AlternateSubs2: "Randomize subtable" Y.1 Y.2 Y.3 Y.4 Y.5 Y.6 Y.7 Y.8 Y.9
EndChar

StartChar: Z
Encoding: 90 90 57
Width: 381
VWidth: 0
Flags: HW
LayerCount: 2
Fore
SplineSet
160.0078125 695.09375 m 0
 160.0078125 695.088867188 140.971679688 649.131835938 140.96875 649.12890625 c 0
 140.965820312 649.125976562 95.0078125 630.08984375 95.00390625 630.08984375 c 0
 95 630.08984375 49.04296875 649.125976562 49.0390625 649.12890625 c 0
 49.0361328125 649.131835938 30 695.088867188 30 695.09375 c 0
 30 695.09765625 49.0361328125 741.0546875 49.0390625 741.05859375 c 0
 49.04296875 741.061523438 95 760.09765625 95.00390625 760.09765625 c 0
 95.0078125 760.09765625 140.965820312 741.061523438 140.96875 741.05859375 c 0
 140.971679688 741.0546875 160.0078125 695.09765625 160.0078125 695.09375 c 0
349.80078125 21.103515625 m 0
 349.80078125 21.0986328125 330.763671875 -24.8583984375 330.760742188 -24.861328125 c 0
 330.7578125 -24.8642578125 284.80078125 -43.900390625 284.795898438 -43.900390625 c 0
 284.791992188 -43.900390625 238.834960938 -24.8642578125 238.83203125 -24.861328125 c 0
 238.829101562 -24.8583984375 219.791992188 21.0986328125 219.791992188 21.103515625 c 0
 219.791992188 21.107421875 238.829101562 67.064453125 238.83203125 67.0673828125 c 0
 238.834960938 67.0712890625 284.791992188 86.107421875 284.795898438 86.107421875 c 0
 284.80078125 86.107421875 330.7578125 67.0712890625 330.760742188 67.0673828125 c 0
 330.763671875 67.064453125 349.80078125 21.107421875 349.80078125 21.103515625 c 0
65.1767578125 692.137695312 m 0
 62.1611328125 706.92578125 75.1904296875 717.645507812 89.978515625 719.740234375 c 0
 312.119140625 751.194335938 l 0
 331.34375 753.916015625 345.678710938 741.23828125 347.0234375 728.7890625 c 0
 347.3984375 725.3203125 346.9140625 722.497070312 346.08984375 719.977539062 c 0
 124.158203125 40.9609375 l 1
 283.641601562 46.0849609375 l 0
 296.756835938 46.505859375 314.018554688 38.4091796875 314.794921875 21.63671875 c 0
 315.603515625 4.150390625 297.569335938 -3.5048828125 285.952148438 -3.8779296875 c 0
 85.626953125 -10.3134765625 l 0
 82.94140625 -10.3994140625 80.8642578125 -10.20703125 78.8828125 -9.89453125 c 0
 65.6708984375 -7.806640625 50.10546875 4.6533203125 55.5263671875 21.2373046875 c 0
 275.852539062 695.342773438 l 1
 100.029296875 670.446289062 l 0
 82.283203125 667.93359375 67.7529296875 679.502929688 65.1767578125 692.137695312 c 0
EndSplineSet
AlternateSubs2: "Randomize subtable" Z.1 Z.2 Z.3 Z.4 Z.5 Z.6 Z.7 Z.8 Z.9
EndChar

StartChar: bracketleft
Encoding: 91 91 58
Width: 240
VWidth: 0
Flags: HW
LayerCount: 2
Fore
SplineSet
212.447265625 698.645507812 m 0
 212.447265625 698.641601562 193.411132812 652.684570312 193.408203125 652.681640625 c 0
 193.405273438 652.677734375 147.448242188 633.641601562 147.443359375 633.641601562 c 0
 147.439453125 633.641601562 101.482421875 652.677734375 101.479492188 652.681640625 c 0
 101.4765625 652.684570312 82.439453125 698.641601562 82.439453125 698.645507812 c 0
 82.439453125 698.650390625 101.4765625 744.607421875 101.479492188 744.610351562 c 0
 101.482421875 744.61328125 147.439453125 763.649414062 147.443359375 763.649414062 c 0
 147.448242188 763.649414062 193.405273438 744.61328125 193.408203125 744.610351562 c 0
 193.411132812 744.607421875 212.447265625 698.650390625 212.447265625 698.645507812 c 0
187.955078125 -22.3525390625 m 0
 187.955078125 -22.357421875 168.918945312 -68.314453125 168.916015625 -68.3173828125 c 0
 168.913085938 -68.3203125 122.956054688 -87.357421875 122.951171875 -87.357421875 c 0
 122.947265625 -87.357421875 76.990234375 -68.3203125 76.986328125 -68.3173828125 c 0
 76.9833984375 -68.314453125 57.947265625 -22.357421875 57.947265625 -22.3525390625 c 0
 57.947265625 -22.3486328125 76.9833984375 23.6083984375 76.986328125 23.611328125 c 0
 76.990234375 23.6142578125 122.947265625 42.6513671875 122.951171875 42.6513671875 c 0
 122.956054688 42.6513671875 168.913085938 23.6142578125 168.916015625 23.611328125 c 0
 168.918945312 23.6083984375 187.955078125 -22.3486328125 187.955078125 -22.3525390625 c 0
175.462890625 689.625976562 m 0
 168.884765625 673.0078125 149.796875 671.673828125 138.044921875 674.904296875 c 0
 101.446289062 684.96484375 l 1
 90.361328125 6.36328125 l 1
 126.794921875 2.44140625 l 0
 147.181640625 0.24609375 154.18359375 -16.01171875 152.528320312 -26.6904296875 c 0
 150.557617188 -39.3974609375 136.586914062 -49.0283203125 119.107421875 -47.146484375 c 0
 56.15625 -40.369140625 l 0
 44.333984375 -39.0966796875 29.759765625 -30.134765625 30.0029296875 -15.2353515625 c 0
 42.0087890625 719.723632812 l 0
 42.0361328125 721.408203125 42.2255859375 723.147460938 42.8662109375 725.329101562 c 0
 46.220703125 736.744140625 62.4404296875 748.337890625 81.404296875 743.125 c 0
 156.841796875 722.38671875 l 0
 171.086914062 718.470703125 181.245117188 704.231445312 175.462890625 689.625976562 c 0
EndSplineSet
AlternateSubs2: "Randomize subtable" bracketleft.1 bracketleft.2 bracketleft.3 bracketleft.4 bracketleft.5 bracketleft.6 bracketleft.7 bracketleft.8 bracketleft.9
EndChar

StartChar: backslash
Encoding: 92 92 59
Width: 307
VWidth: 0
Flags: HW
LayerCount: 2
Fore
SplineSet
158.0078125 741.444335938 m 0
 158.0078125 741.440429688 138.971679688 695.483398438 138.96875 695.48046875 c 0
 138.965820312 695.477539062 93.0078125 676.440429688 93.00390625 676.440429688 c 0
 93 676.440429688 47.0419921875 695.477539062 47.0390625 695.48046875 c 0
 47.0361328125 695.483398438 28 741.440429688 28 741.444335938 c 0
 28 741.44921875 47.0361328125 787.40625 47.0390625 787.409179688 c 0
 47.0419921875 787.412109375 93 806.44921875 93.00390625 806.44921875 c 0
 93.0078125 806.44921875 138.965820312 787.412109375 138.96875 787.409179688 c 0
 138.971679688 787.40625 158.0078125 741.44921875 158.0078125 741.444335938 c 0
278.754882812 -23.13671875 m 0
 278.754882812 -23.1416015625 259.717773438 -69.0986328125 259.71484375 -69.1015625 c 0
 259.711914062 -69.1044921875 213.754882812 -88.140625 213.750976562 -88.140625 c 0
 213.74609375 -88.140625 167.7890625 -69.1044921875 167.786132812 -69.1015625 c 0
 167.783203125 -69.0986328125 148.74609375 -23.1416015625 148.74609375 -23.13671875 c 0
 148.74609375 -23.1328125 167.783203125 22.82421875 167.786132812 22.8271484375 c 0
 167.7890625 22.8310546875 213.74609375 41.8671875 213.750976562 41.8671875 c 0
 213.754882812 41.8671875 259.711914062 22.8310546875 259.71484375 22.8271484375 c 0
 259.717773438 22.82421875 278.754882812 -23.1328125 278.754882812 -23.13671875 c 0
90.5302734375 766.388671875 m 0
 108.375976562 768.345703125 120.790039062 757.099609375 122.747070312 744.70703125 c 0
 243.494140625 -19.875 l 0
 245.842773438 -34.7470703125 231.599609375 -46.3955078125 216.41015625 -48.060546875 c 0
 199.029296875 -49.966796875 185.9765625 -38.869140625 184.0078125 -26.3994140625 c 0
 63.2607421875 738.182617188 l 0
 60.97265625 752.666992188 75.19921875 764.708007812 90.5302734375 766.388671875 c 0
EndSplineSet
AlternateSubs2: "Randomize subtable" backslash.1 backslash.2 backslash.3 backslash.4 backslash.5 backslash.6 backslash.7 backslash.8 backslash.9
EndChar

StartChar: bracketright
Encoding: 93 93 60
Width: 228
VWidth: 0
Flags: HW
LayerCount: 2
Fore
SplineSet
162.82421875 701.30859375 m 0
 162.82421875 701.3046875 143.788085938 655.346679688 143.78515625 655.34375 c 0
 143.782226562 655.340820312 97.8251953125 636.3046875 97.8203125 636.3046875 c 0
 97.81640625 636.3046875 51.859375 655.340820312 51.8564453125 655.34375 c 0
 51.8525390625 655.346679688 32.81640625 701.3046875 32.81640625 701.30859375 c 0
 32.81640625 701.3125 51.8525390625 747.270507812 51.8564453125 747.2734375 c 0
 51.859375 747.276367188 97.81640625 766.3125 97.8203125 766.3125 c 0
 97.8251953125 766.3125 143.782226562 747.276367188 143.78515625 747.2734375 c 0
 143.788085938 747.270507812 162.82421875 701.3125 162.82421875 701.30859375 c 0
159.0078125 -13.5810546875 m 0
 159.0078125 -13.5859375 139.971679688 -59.54296875 139.96875 -59.5458984375 c 0
 139.965820312 -59.548828125 94.0078125 -78.5849609375 94.00390625 -78.5849609375 c 0
 94 -78.5849609375 48.0419921875 -59.548828125 48.0390625 -59.5458984375 c 0
 48.0361328125 -59.54296875 29 -13.5859375 29 -13.5810546875 c 0
 29 -13.5771484375 48.0361328125 32.3798828125 48.0390625 32.3837890625 c 0
 48.0419921875 32.38671875 94 51.4228515625 94.00390625 51.4228515625 c 0
 94.0078125 51.4228515625 139.965820312 32.38671875 139.96875 32.3837890625 c 0
 139.971679688 32.3798828125 159.0078125 -13.5771484375 159.0078125 -13.5810546875 c 0
68.345703125 696.581054688 m 0
 65.4853515625 711.64453125 78.3173828125 724.047851562 93.1328125 726.000976562 c 0
 162.94921875 735.206054688 l 0
 183.321289062 737.891601562 196.48828125 723.685546875 197.545898438 712.470703125 c 0
 197.615234375 711.73046875 197.65625 710.983398438 197.630859375 709.993164062 c 0
 179.471679688 -17.177734375 l 0
 179.05078125 -34.05078125 161.698242188 -42.390625 147.486328125 -41.6025390625 c 0
 92.01171875 -38.5263671875 l 0
 71.6884765625 -37.3994140625 63.3154296875 -21.369140625 64.193359375 -10.376953125 c 0
 65.291015625 3.3681640625 79.4716796875 12.279296875 95.99609375 11.36328125 c 0
 120.138671875 10.0244140625 l 1
 136.897460938 681.149414062 l 1
 102.509765625 676.615234375 l 0
 89.48046875 674.897460938 71.4697265625 680.124023438 68.345703125 696.581054688 c 0
EndSplineSet
AlternateSubs2: "Randomize subtable" bracketright.1 bracketright.2 bracketright.3 bracketright.4 bracketright.5 bracketright.6 bracketright.7 bracketright.8 bracketright.9
EndChar

StartChar: asciicircum
Encoding: 94 94 61
Width: 443
VWidth: 0
Flags: HW
LayerCount: 2
Fore
SplineSet
160.0078125 415.719726562 m 0
 160.0078125 415.71484375 140.971679688 369.7578125 140.96875 369.754882812 c 0
 140.965820312 369.751953125 95.0078125 350.715820312 95.00390625 350.715820312 c 0
 95 350.715820312 49.0419921875 369.751953125 49.0390625 369.754882812 c 0
 49.0361328125 369.7578125 30 415.71484375 30 415.719726562 c 0
 30 415.723632812 49.0361328125 461.680664062 49.0390625 461.684570312 c 0
 49.0419921875 461.6875 95 480.723632812 95.00390625 480.723632812 c 0
 95.0078125 480.723632812 140.965820312 461.6875 140.96875 461.684570312 c 0
 140.971679688 461.680664062 160.0078125 415.723632812 160.0078125 415.719726562 c 0
413.216796875 415.022460938 m 0
 413.216796875 415.017578125 394.180664062 369.060546875 394.176757812 369.057617188 c 0
 394.173828125 369.0546875 348.216796875 350.018554688 348.212890625 350.018554688 c 0
 348.208007812 350.018554688 302.250976562 369.0546875 302.248046875 369.057617188 c 0
 302.245117188 369.060546875 283.208984375 415.017578125 283.208984375 415.022460938 c 0
 283.208984375 415.026367188 302.245117188 460.983398438 302.248046875 460.986328125 c 0
 302.250976562 460.990234375 348.208007812 480.026367188 348.212890625 480.026367188 c 0
 348.216796875 480.026367188 394.173828125 460.990234375 394.176757812 460.986328125 c 0
 394.180664062 460.983398438 413.216796875 415.026367188 413.216796875 415.022460938 c 0
82.5029296875 392.993164062 m 0
 63.3056640625 400.326171875 62.7041015625 416.99609375 67.732421875 426.13671875 c 0
 228.364257812 718.165039062 l 0
 235.864257812 731.80078125 254.513671875 736.887695312 270.237304688 729.586914062 c 0
 272.125976562 728.709960938 281.338867188 724.572265625 284.645507812 714.119140625 c 0
 377.22265625 421.392578125 l 0
 381.809570312 406.888671875 371.631835938 394.311523438 357.126953125 391.125976562 c 0
 344.896484375 388.440429688 324.555664062 391.728515625 319.203125 408.650390625 c 0
 247.984375 633.841796875 l 1
 122.275390625 405.301757812 l 0
 117.247070312 396.161132812 101.701171875 385.66015625 82.5029296875 392.993164062 c 0
EndSplineSet
AlternateSubs2: "Randomize subtable" asciicircum.1 asciicircum.2 asciicircum.3 asciicircum.4 asciicircum.5 asciicircum.6 asciicircum.7 asciicircum.8 asciicircum.9
EndChar

StartChar: underscore
Encoding: 95 95 62
Width: 521
VWidth: 0
Flags: HW
LayerCount: 2
Fore
SplineSet
171.0078125 -152.5703125 m 0
 171.0078125 -152.575195312 151.971679688 -198.532226562 151.96875 -198.53515625 c 0
 151.965820312 -198.538085938 106.0078125 -217.57421875 106.00390625 -217.57421875 c 0
 106 -217.57421875 60.0419921875 -198.538085938 60.0390625 -198.53515625 c 0
 60.0361328125 -198.532226562 41 -152.575195312 41 -152.5703125 c 0
 41 -152.56640625 60.0361328125 -106.609375 60.0390625 -106.60546875 c 0
 60.0419921875 -106.602539062 106 -87.56640625 106.00390625 -87.56640625 c 0
 106.0078125 -87.56640625 151.965820312 -106.602539062 151.96875 -106.60546875 c 0
 151.971679688 -106.609375 171.0078125 -152.56640625 171.0078125 -152.5703125 c 0
479.569335938 -134.477539062 m 0
 479.569335938 -134.482421875 460.532226562 -180.439453125 460.529296875 -180.442382812 c 0
 460.526367188 -180.4453125 414.569335938 -199.481445312 414.564453125 -199.481445312 c 0
 414.560546875 -199.481445312 368.603515625 -180.4453125 368.600585938 -180.442382812 c 0
 368.59765625 -180.439453125 349.560546875 -134.482421875 349.560546875 -134.477539062 c 0
 349.560546875 -134.473632812 368.59765625 -88.5166015625 368.600585938 -88.513671875 c 0
 368.603515625 -88.509765625 414.560546875 -69.4736328125 414.564453125 -69.4736328125 c 0
 414.569335938 -69.4736328125 460.526367188 -88.509765625 460.529296875 -88.513671875 c 0
 460.532226562 -88.5166015625 479.569335938 -134.473632812 479.569335938 -134.477539062 c 0
76.0732421875 -154.274414062 m 0
 74.5126953125 -135.782226562 93.99609375 -128.212890625 103.8984375 -127.631835938 c 0
 412.458984375 -109.5390625 l 0
 434.650390625 -108.23828125 443.822265625 -124.799804688 444.524414062 -133.1171875 c 0
 445.288085938 -142.157226562 438.741210938 -158.122070312 416.670898438 -159.416015625 c 0
 108.110351562 -177.508789062 l 0
 97.26171875 -178.14453125 77.6279296875 -172.685546875 76.0732421875 -154.274414062 c 0
EndSplineSet
AlternateSubs2: "Randomize subtable" underscore.1 underscore.2 underscore.3 underscore.4 underscore.5 underscore.6 underscore.7 underscore.8 underscore.9
EndChar

StartChar: grave
Encoding: 96 96 63
Width: 300
VWidth: 0
Flags: HW
LayerCount: 2
Fore
SplineSet
161.0078125 730.349609375 m 0
 161.0078125 730.345703125 141.971679688 684.388671875 141.96875 684.385742188 c 0
 141.965820312 684.381835938 96.0078125 665.345703125 96.00390625 665.345703125 c 0
 96 665.345703125 50.0419921875 684.381835938 50.0390625 684.385742188 c 0
 50.0361328125 684.388671875 31 730.345703125 31 730.349609375 c 0
 31 730.354492188 50.0361328125 776.311523438 50.0390625 776.314453125 c 0
 50.0419921875 776.317382812 96 795.353515625 96.00390625 795.353515625 c 0
 96.0078125 795.353515625 141.965820312 776.317382812 141.96875 776.314453125 c 0
 141.971679688 776.311523438 161.0078125 730.354492188 161.0078125 730.349609375 c 0
267.802734375 560.389648438 m 0
 267.802734375 560.384765625 248.766601562 514.427734375 248.763671875 514.424804688 c 0
 248.760742188 514.421875 202.803710938 495.385742188 202.798828125 495.385742188 c 0
 202.794921875 495.385742188 156.837890625 514.421875 156.833984375 514.424804688 c 0
 156.831054688 514.427734375 137.794921875 560.384765625 137.794921875 560.389648438 c 0
 137.794921875 560.393554688 156.831054688 606.350585938 156.833984375 606.353515625 c 0
 156.837890625 606.357421875 202.794921875 625.393554688 202.798828125 625.393554688 c 0
 202.803710938 625.393554688 248.760742188 606.357421875 248.763671875 606.353515625 c 0
 248.766601562 606.350585938 267.802734375 560.393554688 267.802734375 560.389648438 c 0
82.0888671875 752.498046875 m 0
 100.797851562 760.661132812 116.984375 750.85546875 122.58203125 741.947265625 c 0
 229.376953125 571.986328125 l 0
 239.172851562 556.395507812 227.405273438 542.90625 216.715820312 538.2421875 c 0
 206.026367188 533.577148438 186.01953125 533.201171875 176.22265625 548.791992188 c 0
 69.427734375 718.752929688 l 0
 63.8310546875 727.661132812 63.3798828125 744.333984375 82.0888671875 752.498046875 c 0
EndSplineSet
AlternateSubs2: "Randomize subtable" grave.1 grave.2 grave.3 grave.4 grave.5 grave.6 grave.7 grave.8 grave.9
EndChar

StartChar: a
Encoding: 97 97 64
Width: 372
VWidth: 0
Flags: HW
LayerCount: 2
Fore
SplineSet
162.497070312 17.03125 m 0
 162.497070312 17.02734375 143.4609375 -28.9296875 143.458007812 -28.93359375 c 0
 143.455078125 -28.9365234375 97.498046875 -47.97265625 97.4931640625 -47.97265625 c 0
 97.4892578125 -47.97265625 51.5322265625 -28.9365234375 51.5283203125 -28.93359375 c 0
 51.525390625 -28.9296875 32.4892578125 17.02734375 32.4892578125 17.03125 c 0
 32.4892578125 17.03515625 51.525390625 62.9931640625 51.5283203125 62.99609375 c 0
 51.5322265625 62.9990234375 97.4892578125 82.03515625 97.4931640625 82.03515625 c 0
 97.498046875 82.03515625 143.455078125 62.9990234375 143.458007812 62.99609375 c 0
 143.4609375 62.9931640625 162.497070312 17.03515625 162.497070312 17.03125 c 0
340.596679688 66.462890625 m 0
 340.596679688 66.458984375 321.560546875 20.501953125 321.556640625 20.4990234375 c 0
 321.553710938 20.49609375 275.596679688 1.458984375 275.592773438 1.458984375 c 0
 275.587890625 1.458984375 229.630859375 20.49609375 229.627929688 20.4990234375 c 0
 229.625 20.501953125 210.588867188 66.458984375 210.588867188 66.462890625 c 0
 210.588867188 66.4677734375 229.625 112.424804688 229.627929688 112.427734375 c 0
 229.630859375 112.430664062 275.587890625 131.467773438 275.592773438 131.467773438 c 0
 275.596679688 131.467773438 321.553710938 112.430664062 321.556640625 112.427734375 c 0
 321.560546875 112.424804688 340.596679688 66.4677734375 340.596679688 66.462890625 c 0
94.3720703125 -7.8466796875 m 0
 78.228515625 -5.9921875 65.4951171875 6.6689453125 67.7744140625 20.4443359375 c 0
 141.37890625 465.448242188 l 0
 144.24609375 482.784179688 163.088867188 489.086914062 177.512695312 486.456054688 c 0
 193.983398438 483.451171875 199.202148438 471.9296875 200.396484375 467.409179688 c 0
 304.891601562 71.837890625 l 0
 308.760742188 57.1884765625 298.124023438 44.998046875 283.474609375 42.310546875 c 0
 271.399414062 40.0947265625 250.834960938 43.9013671875 246.293945312 61.087890625 c 0
 177.892578125 320.025390625 l 1
 127.211914062 13.6171875 l 0
 125.1640625 1.234375 112.203125 -9.89453125 94.3720703125 -7.8466796875 c 0
160.0078125 192.28515625 m 0
 160.0078125 192.28125 140.971679688 146.32421875 140.96875 146.321289062 c 0
 140.965820312 146.317382812 95.0078125 127.28125 95.00390625 127.28125 c 0
 95 127.28125 49.0419921875 146.317382812 49.0390625 146.321289062 c 0
 49.0361328125 146.32421875 30 192.28125 30 192.28515625 c 0
 30 192.290039062 49.0361328125 238.247070312 49.0390625 238.25 c 0
 49.0419921875 238.252929688 95 257.2890625 95.00390625 257.2890625 c 0
 95.0078125 257.2890625 140.965820312 238.252929688 140.96875 238.25 c 0
 140.971679688 238.247070312 160.0078125 192.290039062 160.0078125 192.28515625 c 0
290.700195312 164.590820312 m 0
 290.700195312 164.5859375 271.663085938 118.62890625 271.66015625 118.625976562 c 0
 271.657226562 118.623046875 225.700195312 99.5869140625 225.696289062 99.5869140625 c 0
 225.69140625 99.5869140625 179.734375 118.623046875 179.731445312 118.625976562 c 0
 179.728515625 118.62890625 160.69140625 164.5859375 160.69140625 164.590820312 c 0
 160.69140625 164.594726562 179.728515625 210.551757812 179.731445312 210.555664062 c 0
 179.734375 210.55859375 225.69140625 229.594726562 225.696289062 229.594726562 c 0
 225.700195312 229.594726562 271.657226562 210.55859375 271.66015625 210.555664062 c 0
 271.663085938 210.551757812 290.700195312 164.594726562 290.700195312 164.590820312 c 0
66.298828125 199.658203125 m 0
 71.4736328125 216.618164062 90.767578125 218.978515625 102.397460938 216.513671875 c 0
 233.08984375 188.819335938 l 0
 253.44140625 184.506835938 257.43359375 167.155273438 254.401367188 157.217773438 c 0
 250.704101562 145.103515625 235.747070312 136.665039062 218.302734375 140.362304688 c 0
 87.6103515625 168.056640625 l 0
 73.0732421875 171.13671875 61.75 184.752929688 66.298828125 199.658203125 c 0
EndSplineSet
AlternateSubs2: "Randomize subtable" a.1 a.2 a.3 a.4 a.5 a.6 a.7 a.8 a.9
EndChar

StartChar: b
Encoding: 98 98 65
Width: 404
VWidth: 0
Flags: HW
LayerCount: 2
Fore
SplineSet
198.561523438 -15.1474609375 m 0
 198.561523438 -15.15234375 179.525390625 -61.109375 179.522460938 -61.1123046875 c 0
 179.518554688 -61.115234375 133.561523438 -80.1513671875 133.557617188 -80.1513671875 c 0
 133.552734375 -80.1513671875 87.595703125 -61.115234375 87.5927734375 -61.1123046875 c 0
 87.58984375 -61.109375 68.5537109375 -15.15234375 68.5537109375 -15.1474609375 c 0
 68.5537109375 -15.1435546875 87.58984375 30.8134765625 87.5927734375 30.81640625 c 0
 87.595703125 30.8203125 133.552734375 49.8564453125 133.557617188 49.8564453125 c 0
 133.561523438 49.8564453125 179.518554688 30.8203125 179.522460938 30.81640625 c 0
 179.525390625 30.8134765625 198.561523438 -15.1435546875 198.561523438 -15.1474609375 c 0
160.0078125 391.970703125 m 0
 160.0078125 391.966796875 140.971679688 346.008789062 140.96875 346.005859375 c 0
 140.965820312 346.002929688 95.0078125 326.966796875 95.00390625 326.966796875 c 0
 95 326.966796875 49.0419921875 346.002929688 49.0390625 346.005859375 c 0
 49.0361328125 346.008789062 30 391.966796875 30 391.970703125 c 0
 30 391.974609375 49.0361328125 437.932617188 49.0390625 437.935546875 c 0
 49.0419921875 437.938476562 95 456.974609375 95.00390625 456.974609375 c 0
 95.0078125 456.974609375 140.965820312 437.938476562 140.96875 437.935546875 c 0
 140.971679688 437.932617188 160.0078125 391.974609375 160.0078125 391.970703125 c 0
136.911132812 -40.0048828125 m 0
 118.666992188 -41.205078125 104.831054688 -29.576171875 103.650390625 -17.115234375 c 0
 65.0966796875 390.00390625 l 0
 63.6806640625 404.958007812 76.7890625 415.850585938 91.7421875 416.833984375 c 0
 105.092773438 417.711914062 123.337890625 410.547851562 124.911132812 393.9375 c 0
 163.46484375 -13.181640625 l 0
 164.501953125 -24.1396484375 156.84375 -38.6943359375 136.911132812 -40.0048828125 c 0
109.412109375 252.724609375 m 0
 104.62890625 267.185546875 116.100585938 279.544921875 130.561523438 282.866210938 c 0
 250.994140625 310.530273438 l 1
 83.4326171875 368.905273438 l 0
 63.9482421875 375.693359375 62.6708984375 392.336914062 67.3251953125 401.614257812 c 0
 71.9794921875 410.890625 87.0908203125 421.82421875 106.575195312 415.036132812 c 0
 354.296875 328.734375 l 0
 356.333984375 328.024414062 366.419921875 324.563476562 370.932617188 314.182617188 c 0
 377.0625 300.079101562 366.604492188 285.221679688 350.697265625 281.567382812 c 0
 146.504882812 234.6640625 l 0
 130.41796875 230.96875 113.852539062 239.301757812 109.412109375 252.724609375 c 0
109.295898438 252.98828125 m 0
 104.059570312 267.666015625 116.32421875 279.344726562 129.983398438 282.728515625 c 0
 242.797851562 310.678710938 351.1328125 226.427734375 349.09765625 114.43359375 c 0
 346.99609375 -1.2744140625 229.390625 -75.076171875 122.1328125 -38.2646484375 c 0
 102.60546875 -31.5625 101.22265625 -14.9248046875 105.818359375 -5.6279296875 c 0
 110.413085938 3.669921875 125.455078125 14.669921875 144.982421875 7.9677734375 c 0
 216.067382812 -16.4287109375 287.721679688 39.0458984375 289.10546875 115.189453125 c 0
 290.494140625 191.623046875 221.850585938 253.326171875 147.083007812 234.801757812 c 0
 130.188476562 230.616210938 113.693359375 240.665039062 109.295898438 252.98828125 c 0
EndSplineSet
AlternateSubs2: "Randomize subtable" b.1 b.2 b.3 b.4 b.5 b.6 b.7 b.8 b.9
EndChar

